G04 #@! TF.GenerationSoftware,KiCad,Pcbnew,8.0.6*
G04 #@! TF.CreationDate,2025-02-13T15:50:05+01:00*
G04 #@! TF.ProjectId,Merx_Carte_Ucontroleur,4d657278-5f43-4617-9274-655f55636f6e,rev?*
G04 #@! TF.SameCoordinates,Original*
G04 #@! TF.FileFunction,Profile,NP*
%FSLAX46Y46*%
G04 Gerber Fmt 4.6, Leading zero omitted, Abs format (unit mm)*
G04 Created by KiCad (PCBNEW 8.0.6) date 2025-02-13 15:50:05*
%MOMM*%
%LPD*%
G01*
G04 APERTURE LIST*
G04 #@! TA.AperFunction,Profile*
%ADD10C,0.200000*%
G04 #@! TD*
%ADD11C,0.300000*%
G04 #@! TA.AperFunction,NonConductor*
%ADD12C,0.300000*%
G04 #@! TD*
G04 #@! TA.AperFunction,ComponentPad*
%ADD13O,1.800000X2.200000*%
G04 #@! TD*
G04 #@! TA.AperFunction,ComponentPad*
%ADD14R,1.800000X2.200000*%
G04 #@! TD*
G04 #@! TA.AperFunction,ComponentPad*
%ADD15C,1.524000*%
G04 #@! TD*
G04 #@! TA.AperFunction,ComponentPad*
%ADD16R,1.308000X1.308000*%
G04 #@! TD*
G04 #@! TA.AperFunction,ComponentPad*
%ADD17C,1.308000*%
G04 #@! TD*
G04 #@! TA.AperFunction,ComponentPad*
%ADD18R,1.358000X1.358000*%
G04 #@! TD*
G04 #@! TA.AperFunction,ComponentPad*
%ADD19C,1.358000*%
G04 #@! TD*
G04 #@! TA.AperFunction,ComponentPad*
%ADD20C,5.500000*%
G04 #@! TD*
G04 #@! TA.AperFunction,ComponentPad*
%ADD21O,1.700000X1.700000*%
G04 #@! TD*
G04 #@! TA.AperFunction,ComponentPad*
%ADD22R,1.700000X1.700000*%
G04 #@! TD*
G04 #@! TA.AperFunction,ComponentPad*
%ADD23R,2.200000X1.800000*%
G04 #@! TD*
G04 #@! TA.AperFunction,ComponentPad*
%ADD24O,2.200000X1.800000*%
G04 #@! TD*
G04 #@! TA.AperFunction,SMDPad,CuDef*
%ADD25R,0.450000X1.475000*%
G04 #@! TD*
G04 #@! TA.AperFunction,ViaPad*
%ADD26C,1.200000*%
G04 #@! TD*
G04 #@! TA.AperFunction,Conductor*
%ADD27C,0.250000*%
G04 #@! TD*
G04 #@! TA.AperFunction,Conductor*
%ADD28C,0.700000*%
G04 #@! TD*
G04 #@! TA.AperFunction,Conductor*
%ADD29C,0.600000*%
G04 #@! TD*
G04 APERTURE END LIST*
D10*
X86920000Y-45900000D02*
X86920000Y-61900000D01*
X146920000Y-45900000D02*
X86920000Y-45900000D01*
X86920000Y-61900000D02*
X79420000Y-61900000D01*
X79420000Y-61900000D02*
X79420000Y-106900000D01*
X154420000Y-106900000D02*
X154420000Y-61900000D01*
X154420000Y-61900000D02*
X146920000Y-61900000D01*
X146920000Y-61900000D02*
X146920000Y-45900000D01*
X102910000Y-72370000D02*
X130950000Y-72370000D01*
X130950000Y-97160000D01*
X102910000Y-97160000D01*
X102910000Y-72370000D01*
X79420000Y-106900000D02*
X154420000Y-106900000D01*
D11*
D12*
X124288346Y-103557971D02*
X124359774Y-103629400D01*
X124359774Y-103629400D02*
X124574060Y-103700828D01*
X124574060Y-103700828D02*
X124716917Y-103700828D01*
X124716917Y-103700828D02*
X124931203Y-103629400D01*
X124931203Y-103629400D02*
X125074060Y-103486542D01*
X125074060Y-103486542D02*
X125145489Y-103343685D01*
X125145489Y-103343685D02*
X125216917Y-103057971D01*
X125216917Y-103057971D02*
X125216917Y-102843685D01*
X125216917Y-102843685D02*
X125145489Y-102557971D01*
X125145489Y-102557971D02*
X125074060Y-102415114D01*
X125074060Y-102415114D02*
X124931203Y-102272257D01*
X124931203Y-102272257D02*
X124716917Y-102200828D01*
X124716917Y-102200828D02*
X124574060Y-102200828D01*
X124574060Y-102200828D02*
X124359774Y-102272257D01*
X124359774Y-102272257D02*
X124288346Y-102343685D01*
X122788346Y-103700828D02*
X123288346Y-102986542D01*
X123645489Y-103700828D02*
X123645489Y-102200828D01*
X123645489Y-102200828D02*
X123074060Y-102200828D01*
X123074060Y-102200828D02*
X122931203Y-102272257D01*
X122931203Y-102272257D02*
X122859774Y-102343685D01*
X122859774Y-102343685D02*
X122788346Y-102486542D01*
X122788346Y-102486542D02*
X122788346Y-102700828D01*
X122788346Y-102700828D02*
X122859774Y-102843685D01*
X122859774Y-102843685D02*
X122931203Y-102915114D01*
X122931203Y-102915114D02*
X123074060Y-102986542D01*
X123074060Y-102986542D02*
X123645489Y-102986542D01*
X122216917Y-103272257D02*
X121502632Y-103272257D01*
X122359774Y-103700828D02*
X121859774Y-102200828D01*
X121859774Y-102200828D02*
X121359774Y-103700828D01*
X120002632Y-103557971D02*
X120074060Y-103629400D01*
X120074060Y-103629400D02*
X120288346Y-103700828D01*
X120288346Y-103700828D02*
X120431203Y-103700828D01*
X120431203Y-103700828D02*
X120645489Y-103629400D01*
X120645489Y-103629400D02*
X120788346Y-103486542D01*
X120788346Y-103486542D02*
X120859775Y-103343685D01*
X120859775Y-103343685D02*
X120931203Y-103057971D01*
X120931203Y-103057971D02*
X120931203Y-102843685D01*
X120931203Y-102843685D02*
X120859775Y-102557971D01*
X120859775Y-102557971D02*
X120788346Y-102415114D01*
X120788346Y-102415114D02*
X120645489Y-102272257D01*
X120645489Y-102272257D02*
X120431203Y-102200828D01*
X120431203Y-102200828D02*
X120288346Y-102200828D01*
X120288346Y-102200828D02*
X120074060Y-102272257D01*
X120074060Y-102272257D02*
X120002632Y-102343685D01*
X117431203Y-102272257D02*
X117574061Y-102200828D01*
X117574061Y-102200828D02*
X117788346Y-102200828D01*
X117788346Y-102200828D02*
X118002632Y-102272257D01*
X118002632Y-102272257D02*
X118145489Y-102415114D01*
X118145489Y-102415114D02*
X118216918Y-102557971D01*
X118216918Y-102557971D02*
X118288346Y-102843685D01*
X118288346Y-102843685D02*
X118288346Y-103057971D01*
X118288346Y-103057971D02*
X118216918Y-103343685D01*
X118216918Y-103343685D02*
X118145489Y-103486542D01*
X118145489Y-103486542D02*
X118002632Y-103629400D01*
X118002632Y-103629400D02*
X117788346Y-103700828D01*
X117788346Y-103700828D02*
X117645489Y-103700828D01*
X117645489Y-103700828D02*
X117431203Y-103629400D01*
X117431203Y-103629400D02*
X117359775Y-103557971D01*
X117359775Y-103557971D02*
X117359775Y-103057971D01*
X117359775Y-103057971D02*
X117645489Y-103057971D01*
X115859775Y-103700828D02*
X116359775Y-102986542D01*
X116716918Y-103700828D02*
X116716918Y-102200828D01*
X116716918Y-102200828D02*
X116145489Y-102200828D01*
X116145489Y-102200828D02*
X116002632Y-102272257D01*
X116002632Y-102272257D02*
X115931203Y-102343685D01*
X115931203Y-102343685D02*
X115859775Y-102486542D01*
X115859775Y-102486542D02*
X115859775Y-102700828D01*
X115859775Y-102700828D02*
X115931203Y-102843685D01*
X115931203Y-102843685D02*
X116002632Y-102915114D01*
X116002632Y-102915114D02*
X116145489Y-102986542D01*
X116145489Y-102986542D02*
X116716918Y-102986542D01*
X114931203Y-102200828D02*
X114645489Y-102200828D01*
X114645489Y-102200828D02*
X114502632Y-102272257D01*
X114502632Y-102272257D02*
X114359775Y-102415114D01*
X114359775Y-102415114D02*
X114288346Y-102700828D01*
X114288346Y-102700828D02*
X114288346Y-103200828D01*
X114288346Y-103200828D02*
X114359775Y-103486542D01*
X114359775Y-103486542D02*
X114502632Y-103629400D01*
X114502632Y-103629400D02*
X114645489Y-103700828D01*
X114645489Y-103700828D02*
X114931203Y-103700828D01*
X114931203Y-103700828D02*
X115074061Y-103629400D01*
X115074061Y-103629400D02*
X115216918Y-103486542D01*
X115216918Y-103486542D02*
X115288346Y-103200828D01*
X115288346Y-103200828D02*
X115288346Y-102700828D01*
X115288346Y-102700828D02*
X115216918Y-102415114D01*
X115216918Y-102415114D02*
X115074061Y-102272257D01*
X115074061Y-102272257D02*
X114931203Y-102200828D01*
X113645489Y-102200828D02*
X113645489Y-103415114D01*
X113645489Y-103415114D02*
X113574060Y-103557971D01*
X113574060Y-103557971D02*
X113502632Y-103629400D01*
X113502632Y-103629400D02*
X113359774Y-103700828D01*
X113359774Y-103700828D02*
X113074060Y-103700828D01*
X113074060Y-103700828D02*
X112931203Y-103629400D01*
X112931203Y-103629400D02*
X112859774Y-103557971D01*
X112859774Y-103557971D02*
X112788346Y-103415114D01*
X112788346Y-103415114D02*
X112788346Y-102200828D01*
X112074060Y-103700828D02*
X112074060Y-102200828D01*
X112074060Y-102200828D02*
X111502631Y-102200828D01*
X111502631Y-102200828D02*
X111359774Y-102272257D01*
X111359774Y-102272257D02*
X111288345Y-102343685D01*
X111288345Y-102343685D02*
X111216917Y-102486542D01*
X111216917Y-102486542D02*
X111216917Y-102700828D01*
X111216917Y-102700828D02*
X111288345Y-102843685D01*
X111288345Y-102843685D02*
X111359774Y-102915114D01*
X111359774Y-102915114D02*
X111502631Y-102986542D01*
X111502631Y-102986542D02*
X112074060Y-102986542D01*
X110574060Y-103700828D02*
X110574060Y-102200828D01*
X109859774Y-102915114D02*
X109359774Y-102915114D01*
X109145488Y-103700828D02*
X109859774Y-103700828D01*
X109859774Y-103700828D02*
X109859774Y-102200828D01*
X109859774Y-102200828D02*
X109145488Y-102200828D01*
X108574059Y-103629400D02*
X108359774Y-103700828D01*
X108359774Y-103700828D02*
X108002631Y-103700828D01*
X108002631Y-103700828D02*
X107859774Y-103629400D01*
X107859774Y-103629400D02*
X107788345Y-103557971D01*
X107788345Y-103557971D02*
X107716916Y-103415114D01*
X107716916Y-103415114D02*
X107716916Y-103272257D01*
X107716916Y-103272257D02*
X107788345Y-103129400D01*
X107788345Y-103129400D02*
X107859774Y-103057971D01*
X107859774Y-103057971D02*
X108002631Y-102986542D01*
X108002631Y-102986542D02*
X108288345Y-102915114D01*
X108288345Y-102915114D02*
X108431202Y-102843685D01*
X108431202Y-102843685D02*
X108502631Y-102772257D01*
X108502631Y-102772257D02*
X108574059Y-102629400D01*
X108574059Y-102629400D02*
X108574059Y-102486542D01*
X108574059Y-102486542D02*
X108502631Y-102343685D01*
X108502631Y-102343685D02*
X108431202Y-102272257D01*
X108431202Y-102272257D02*
X108288345Y-102200828D01*
X108288345Y-102200828D02*
X107931202Y-102200828D01*
X107931202Y-102200828D02*
X107716916Y-102272257D01*
D13*
X138460000Y-76000000D03*
X141000000Y-76000000D03*
D14*
X143540000Y-76000000D03*
X151500000Y-76000000D03*
D13*
X148960000Y-76000000D03*
D15*
X103920000Y-70860000D03*
X106460000Y-70860000D03*
X109000000Y-70860000D03*
X111540000Y-70860000D03*
X114080000Y-70860000D03*
X116620000Y-70860000D03*
X119160000Y-70860000D03*
X121700000Y-70860000D03*
X124240000Y-70860000D03*
X126780000Y-70860000D03*
X129320000Y-70860000D03*
X129320000Y-48000000D03*
X126780000Y-48000000D03*
X124240000Y-48000000D03*
X121700000Y-48000000D03*
X119160000Y-48000000D03*
X116620000Y-48000000D03*
X114080000Y-48000000D03*
X111540000Y-48000000D03*
X109000000Y-48000000D03*
X106460000Y-48000000D03*
X103920000Y-48000000D03*
D16*
X96472500Y-59000000D03*
D17*
X94472500Y-59000000D03*
X92472500Y-59000000D03*
X90472500Y-59000000D03*
D16*
X143367500Y-59000000D03*
D17*
X141367500Y-59000000D03*
X139367500Y-59000000D03*
X137367500Y-59000000D03*
D18*
X99040000Y-93000000D03*
D19*
X99040000Y-90460000D03*
X99040000Y-87920000D03*
X99040000Y-85380000D03*
X99040000Y-82840000D03*
X99040000Y-80300000D03*
X99040000Y-77760000D03*
X83800000Y-77760000D03*
X83800000Y-80300000D03*
X83800000Y-82840000D03*
X83800000Y-85380000D03*
X83800000Y-87920000D03*
X83800000Y-90460000D03*
X83800000Y-93000000D03*
D20*
X86800000Y-68390000D03*
X86800000Y-103390000D03*
D21*
X148540000Y-94960000D03*
X146000000Y-94960000D03*
X143460000Y-94960000D03*
X140920000Y-94960000D03*
X138380000Y-94960000D03*
X135840000Y-94960000D03*
D22*
X133300000Y-94960000D03*
D21*
X148540000Y-102885200D03*
X146000000Y-102885200D03*
X143460000Y-102885200D03*
X140920000Y-102885200D03*
X138380000Y-102885200D03*
X135840000Y-102885200D03*
D22*
X133300000Y-102885200D03*
D23*
X134000000Y-90540000D03*
D24*
X134000000Y-88000000D03*
X134000000Y-85460000D03*
X134000000Y-82920000D03*
D20*
X147040000Y-68390000D03*
D16*
X92000000Y-83000000D03*
D17*
X92000000Y-85000000D03*
X92000000Y-87000000D03*
X92000000Y-89000000D03*
D25*
X113345000Y-56192000D03*
X113995000Y-56192000D03*
X114645000Y-56192000D03*
X115295000Y-56192000D03*
X115945000Y-56192000D03*
X116595000Y-56192000D03*
X117245000Y-56192000D03*
X117895000Y-56192000D03*
X118545000Y-56192000D03*
X119195000Y-56192000D03*
X119195000Y-62068000D03*
X118545000Y-62068000D03*
X117895000Y-62068000D03*
X117245000Y-62068000D03*
X116595000Y-62068000D03*
X115945000Y-62068000D03*
X115295000Y-62068000D03*
X114645000Y-62068000D03*
X113995000Y-62068000D03*
X113345000Y-62068000D03*
D17*
X143420000Y-83000000D03*
X143420000Y-85000000D03*
X143420000Y-87000000D03*
D16*
X143420000Y-89000000D03*
D26*
X124200000Y-51900000D03*
X124200000Y-66800000D03*
X80900000Y-92300000D03*
X87200000Y-85400000D03*
X87200000Y-82900000D03*
X87200000Y-80300000D03*
X87200000Y-77800000D03*
X129340000Y-51850000D03*
X103920000Y-51460000D03*
X103920000Y-65600000D03*
X129370000Y-67250000D03*
X126780000Y-51790000D03*
X126780000Y-67230000D03*
X103920000Y-58960000D03*
X103920000Y-55980000D03*
X149600000Y-88870000D03*
X152990000Y-88890000D03*
X126780000Y-61710000D03*
X133280000Y-70910000D03*
D27*
X140410000Y-61710000D02*
X133570000Y-61710000D01*
D28*
X81600000Y-93000000D02*
X80900000Y-92300000D01*
X83800000Y-93000000D02*
X81600000Y-93000000D01*
X103920000Y-70860000D02*
X103920000Y-65600000D01*
D27*
X113995000Y-63265000D02*
X113995000Y-62068000D01*
X113660000Y-63600000D02*
X113995000Y-63265000D01*
X95600000Y-81060000D02*
X95600000Y-69200000D01*
X101200000Y-63600000D02*
X113660000Y-63600000D01*
X97380000Y-82840000D02*
X95600000Y-81060000D01*
X95600000Y-69200000D02*
X101200000Y-63600000D01*
X99040000Y-82840000D02*
X97380000Y-82840000D01*
X114360000Y-64300000D02*
X114645000Y-64015000D01*
X96700000Y-69500000D02*
X101900000Y-64300000D01*
X101900000Y-64300000D02*
X114360000Y-64300000D01*
X96700000Y-78960000D02*
X96700000Y-69500000D01*
X114645000Y-64015000D02*
X114645000Y-62068000D01*
X98040000Y-80300000D02*
X96700000Y-78960000D01*
X99040000Y-80300000D02*
X98040000Y-80300000D01*
D29*
X89080000Y-87920000D02*
X83800000Y-87920000D01*
X90000000Y-72400000D02*
X90000000Y-87000000D01*
X90000000Y-87000000D02*
X89080000Y-87920000D01*
X102190000Y-60210000D02*
X90000000Y-72400000D01*
X107120000Y-60210000D02*
X102190000Y-60210000D01*
D27*
X151500000Y-99925200D02*
X151500000Y-76000000D01*
X148540000Y-102885200D02*
X151500000Y-99925200D01*
X148960000Y-74660000D02*
X148960000Y-76000000D01*
X147700000Y-73400000D02*
X148960000Y-74660000D01*
X133380000Y-64090000D02*
X142690000Y-73400000D01*
X116160000Y-64090000D02*
X133380000Y-64090000D01*
X142690000Y-73400000D02*
X147700000Y-73400000D01*
X109390000Y-67010000D02*
X113240000Y-67010000D01*
X113240000Y-67010000D02*
X116160000Y-64090000D01*
X106460000Y-70860000D02*
X106460000Y-69940000D01*
X106460000Y-69940000D02*
X109390000Y-67010000D01*
D29*
X149690000Y-72290000D02*
X151500000Y-74100000D01*
X144150000Y-72290000D02*
X149690000Y-72290000D01*
X126780000Y-61710000D02*
X133570000Y-61710000D01*
X133570000Y-61710000D02*
X144150000Y-72290000D01*
X151500000Y-74100000D02*
X151500000Y-76000000D01*
X87180000Y-85380000D02*
X87200000Y-85400000D01*
X83800000Y-85380000D02*
X87180000Y-85380000D01*
X87140000Y-82840000D02*
X87200000Y-82900000D01*
X83800000Y-82840000D02*
X87140000Y-82840000D01*
D27*
X102140000Y-86860000D02*
X100660000Y-85380000D01*
X100660000Y-85380000D02*
X99040000Y-85380000D01*
X102140000Y-97220000D02*
X102140000Y-86860000D01*
X144320000Y-99010000D02*
X103930000Y-99010000D01*
X103930000Y-99010000D02*
X102140000Y-97220000D01*
X146000000Y-100690000D02*
X144320000Y-99010000D01*
X146000000Y-102885200D02*
X146000000Y-100690000D01*
X100510000Y-87920000D02*
X99040000Y-87920000D01*
X101350000Y-88760000D02*
X100510000Y-87920000D01*
X101350000Y-97430000D02*
X101350000Y-88760000D01*
X103640000Y-99720000D02*
X101350000Y-97430000D01*
X142450000Y-99720000D02*
X103640000Y-99720000D01*
X143460000Y-100730000D02*
X142450000Y-99720000D01*
X143460000Y-102885200D02*
X143460000Y-100730000D01*
D29*
X83800000Y-80300000D02*
X87200000Y-80300000D01*
X87160000Y-77760000D02*
X87200000Y-77800000D01*
X83800000Y-77760000D02*
X87160000Y-77760000D01*
D28*
X103920000Y-48000000D02*
X103920000Y-51460000D01*
X129320000Y-51830000D02*
X129340000Y-51850000D01*
X129320000Y-48000000D02*
X129320000Y-51830000D01*
D29*
X126780000Y-48000000D02*
X126780000Y-51790000D01*
D28*
X129370000Y-70810000D02*
X129320000Y-70860000D01*
X129370000Y-67250000D02*
X129370000Y-70810000D01*
D29*
X126780000Y-70860000D02*
X126780000Y-67230000D01*
X132370000Y-65330000D02*
X141000000Y-73960000D01*
X117750000Y-65330000D02*
X132370000Y-65330000D01*
X114080000Y-69000000D02*
X117750000Y-65330000D01*
X114080000Y-70860000D02*
X114080000Y-69000000D01*
X141000000Y-73960000D02*
X141000000Y-76000000D01*
D27*
X116060000Y-54440000D02*
X116595000Y-54975000D01*
X116060000Y-54410000D02*
X116060000Y-54440000D01*
X90472500Y-57687500D02*
X93750000Y-54410000D01*
X93750000Y-54410000D02*
X116060000Y-54410000D01*
X116595000Y-54975000D02*
X116595000Y-56192000D01*
X90472500Y-59000000D02*
X90472500Y-57687500D01*
X115580000Y-57730000D02*
X115945000Y-57365000D01*
X92810000Y-57730000D02*
X115580000Y-57730000D01*
X92472500Y-59000000D02*
X92472500Y-58067500D01*
X92472500Y-58067500D02*
X92810000Y-57730000D01*
X115945000Y-57365000D02*
X115945000Y-56192000D01*
X107050000Y-60280000D02*
X107120000Y-60210000D01*
X94472500Y-59000000D02*
X94472500Y-59772500D01*
D29*
X115110000Y-60210000D02*
X107120000Y-60210000D01*
D27*
X113950000Y-60210000D02*
X115110000Y-60210000D01*
X113345000Y-60815000D02*
X113950000Y-60210000D01*
D29*
X125280000Y-60210000D02*
X115110000Y-60210000D01*
D27*
X113345000Y-62068000D02*
X113345000Y-60815000D01*
D29*
X126780000Y-61710000D02*
X125280000Y-60210000D01*
D27*
X137857500Y-60510000D02*
X139367500Y-59000000D01*
X136190000Y-60510000D02*
X137857500Y-60510000D01*
X134290000Y-58610000D02*
X136190000Y-60510000D01*
X118780000Y-58610000D02*
X134290000Y-58610000D01*
X117895000Y-56192000D02*
X117895000Y-57725000D01*
X117895000Y-57725000D02*
X118780000Y-58610000D01*
X136790000Y-57460000D02*
X137367500Y-58037500D01*
X118545000Y-57179500D02*
X118825500Y-57460000D01*
X118825500Y-57460000D02*
X136790000Y-57460000D01*
X137367500Y-58037500D02*
X137367500Y-59000000D01*
X118545000Y-56192000D02*
X118545000Y-57179500D01*
X141367500Y-60747500D02*
X141367500Y-59000000D01*
X141370000Y-60750000D02*
X141367500Y-60747500D01*
X140410000Y-61710000D02*
X141370000Y-60750000D01*
D28*
X146000000Y-94510000D02*
X134410000Y-82920000D01*
X146000000Y-94960000D02*
X146000000Y-94510000D01*
X134410000Y-82920000D02*
X134000000Y-82920000D01*
X134330000Y-85460000D02*
X134000000Y-85460000D01*
X143460000Y-94590000D02*
X134330000Y-85460000D01*
X143460000Y-94960000D02*
X143460000Y-94590000D01*
X134700000Y-88000000D02*
X134000000Y-88000000D01*
X140920000Y-94220000D02*
X134700000Y-88000000D01*
X140920000Y-94960000D02*
X140920000Y-94220000D01*
X138380000Y-94350000D02*
X138380000Y-94960000D01*
X134570000Y-90540000D02*
X138380000Y-94350000D01*
X134000000Y-90540000D02*
X134570000Y-90540000D01*
D27*
X100050000Y-90460000D02*
X99040000Y-90460000D01*
X100540000Y-97870000D02*
X100540000Y-90950000D01*
X100540000Y-90950000D02*
X100050000Y-90460000D01*
X103170000Y-100500000D02*
X100540000Y-97870000D01*
X140180000Y-100500000D02*
X103170000Y-100500000D01*
X140920000Y-101240000D02*
X140180000Y-100500000D01*
X140920000Y-102885200D02*
X140920000Y-101240000D01*
X137930000Y-101060000D02*
X102170000Y-101060000D01*
X138380000Y-101510000D02*
X137930000Y-101060000D01*
X102170000Y-101060000D02*
X99040000Y-97930000D01*
X99040000Y-97930000D02*
X99040000Y-93000000D01*
X138380000Y-102885200D02*
X138380000Y-101510000D01*
D28*
X131710000Y-72172370D02*
X130397630Y-70860000D01*
X131710000Y-92200000D02*
X131710000Y-72172370D01*
X132570000Y-93060000D02*
X131710000Y-92200000D01*
X135260000Y-93060000D02*
X132570000Y-93060000D01*
X135840000Y-93640000D02*
X135260000Y-93060000D01*
X135840000Y-94960000D02*
X135840000Y-93640000D01*
X130397630Y-70860000D02*
X129320000Y-70860000D01*
X133230000Y-70860000D02*
X133280000Y-70910000D01*
X129320000Y-70860000D02*
X133230000Y-70860000D01*
X133370000Y-70910000D02*
X138460000Y-76000000D01*
X133280000Y-70910000D02*
X133370000Y-70910000D01*
D27*
X102500000Y-72100000D02*
X99040000Y-75560000D01*
X111400000Y-72100000D02*
X102500000Y-72100000D01*
X99040000Y-75560000D02*
X99040000Y-77760000D01*
X111540000Y-71960000D02*
X111400000Y-72100000D01*
X111540000Y-70860000D02*
X111540000Y-71960000D01*
X135840000Y-102885200D02*
X135840000Y-104020000D01*
X148150000Y-104470000D02*
X148540000Y-104080000D01*
X148540000Y-104080000D02*
X148540000Y-102885200D01*
X135840000Y-104020000D02*
X136290000Y-104470000D01*
X136290000Y-104470000D02*
X148150000Y-104470000D01*
X94980000Y-60280000D02*
X107050000Y-60280000D01*
X94472500Y-59772500D02*
X94980000Y-60280000D01*
G04 #@! TA.AperFunction,Conductor*
G36*
X132724335Y-71860421D02*
G01*
X132728224Y-71862731D01*
X132787363Y-71899348D01*
X132977544Y-71973024D01*
X133178024Y-72010500D01*
X133216349Y-72010500D01*
X133283388Y-72030185D01*
X133304030Y-72046819D01*
X137023181Y-75765970D01*
X137056666Y-75827293D01*
X137059500Y-75853651D01*
X137059500Y-76310221D01*
X137093985Y-76527952D01*
X137162103Y-76737603D01*
X137162104Y-76737606D01*
X137230122Y-76871096D01*
X137257129Y-76924100D01*
X137262187Y-76934025D01*
X137391752Y-77112358D01*
X137391756Y-77112363D01*
X137547636Y-77268243D01*
X137547641Y-77268247D01*
X137635520Y-77332094D01*
X137725978Y-77397815D01*
X137854375Y-77463237D01*
X137922393Y-77497895D01*
X137922396Y-77497896D01*
X138027221Y-77531955D01*
X138132049Y-77566015D01*
X138349778Y-77600500D01*
X138349779Y-77600500D01*
X138570221Y-77600500D01*
X138570222Y-77600500D01*
X138787951Y-77566015D01*
X138997606Y-77497895D01*
X139194022Y-77397815D01*
X139372365Y-77268242D01*
X139528242Y-77112365D01*
X139599502Y-77014284D01*
X139629682Y-76972745D01*
X139685011Y-76930079D01*
X139754625Y-76924100D01*
X139816420Y-76956705D01*
X139830318Y-76972745D01*
X139931752Y-77112358D01*
X139931756Y-77112363D01*
X140087636Y-77268243D01*
X140087641Y-77268247D01*
X140175520Y-77332094D01*
X140265978Y-77397815D01*
X140394375Y-77463237D01*
X140462393Y-77497895D01*
X140462396Y-77497896D01*
X140567221Y-77531955D01*
X140672049Y-77566015D01*
X140889778Y-77600500D01*
X140889779Y-77600500D01*
X141110221Y-77600500D01*
X141110222Y-77600500D01*
X141327951Y-77566015D01*
X141537606Y-77497895D01*
X141734022Y-77397815D01*
X141912365Y-77268242D01*
X142068242Y-77112365D01*
X142197815Y-76934022D01*
X142297895Y-76737606D01*
X142366015Y-76527951D01*
X142400500Y-76310222D01*
X142400500Y-75689778D01*
X142366015Y-75472049D01*
X142297895Y-75262394D01*
X142297895Y-75262393D01*
X142246370Y-75161272D01*
X142197815Y-75065978D01*
X142169681Y-75027254D01*
X142068247Y-74887641D01*
X142068243Y-74887636D01*
X141912364Y-74731757D01*
X141851613Y-74687618D01*
X141808948Y-74632287D01*
X141800500Y-74587301D01*
X141800500Y-73881155D01*
X141800499Y-73881153D01*
X141797585Y-73866502D01*
X141769737Y-73726503D01*
X141752199Y-73684164D01*
X141744731Y-73614697D01*
X141776006Y-73552218D01*
X141836094Y-73516565D01*
X141905920Y-73519058D01*
X141954442Y-73549032D01*
X142201016Y-73795606D01*
X142201045Y-73795637D01*
X142291263Y-73885855D01*
X142291267Y-73885858D01*
X142393707Y-73954307D01*
X142393713Y-73954310D01*
X142393714Y-73954311D01*
X142507548Y-74001463D01*
X142567971Y-74013481D01*
X142628393Y-74025500D01*
X142628394Y-74025500D01*
X147389548Y-74025500D01*
X147456587Y-74045185D01*
X147477229Y-74061819D01*
X148009720Y-74594310D01*
X148043205Y-74655633D01*
X148038221Y-74725325D01*
X148009721Y-74769672D01*
X147891751Y-74887642D01*
X147762187Y-75065974D01*
X147662104Y-75262393D01*
X147662103Y-75262396D01*
X147593985Y-75472047D01*
X147559500Y-75689778D01*
X147559500Y-76310221D01*
X147593985Y-76527952D01*
X147662103Y-76737603D01*
X147662104Y-76737606D01*
X147730122Y-76871096D01*
X147757129Y-76924100D01*
X147762187Y-76934025D01*
X147891752Y-77112358D01*
X147891756Y-77112363D01*
X148047636Y-77268243D01*
X148047641Y-77268247D01*
X148135520Y-77332094D01*
X148225978Y-77397815D01*
X148354375Y-77463237D01*
X148422393Y-77497895D01*
X148422396Y-77497896D01*
X148527221Y-77531955D01*
X148632049Y-77566015D01*
X148849778Y-77600500D01*
X148849779Y-77600500D01*
X149070221Y-77600500D01*
X149070222Y-77600500D01*
X149287951Y-77566015D01*
X149497606Y-77497895D01*
X149694022Y-77397815D01*
X149872365Y-77268242D01*
X149922536Y-77218070D01*
X149983857Y-77184586D01*
X150053548Y-77189570D01*
X150109482Y-77231441D01*
X150126398Y-77262419D01*
X150156202Y-77342328D01*
X150156206Y-77342335D01*
X150242452Y-77457544D01*
X150242455Y-77457547D01*
X150357664Y-77543793D01*
X150357671Y-77543797D01*
X150402618Y-77560561D01*
X150492517Y-77594091D01*
X150552127Y-77600500D01*
X150750500Y-77600499D01*
X150817539Y-77620183D01*
X150863294Y-77672987D01*
X150874500Y-77724499D01*
X150874500Y-99614747D01*
X150854815Y-99681786D01*
X150838181Y-99702428D01*
X148995646Y-101544962D01*
X148934323Y-101578447D01*
X148875872Y-101577056D01*
X148775413Y-101550138D01*
X148775403Y-101550136D01*
X148540001Y-101529541D01*
X148539999Y-101529541D01*
X148304596Y-101550136D01*
X148304586Y-101550138D01*
X148076344Y-101611294D01*
X148076335Y-101611298D01*
X147862171Y-101711164D01*
X147862169Y-101711165D01*
X147668597Y-101846705D01*
X147501505Y-102013797D01*
X147371575Y-102199358D01*
X147316998Y-102242983D01*
X147247500Y-102250177D01*
X147185145Y-102218654D01*
X147168425Y-102199358D01*
X147038494Y-102013797D01*
X146871402Y-101846706D01*
X146871401Y-101846705D01*
X146722525Y-101742461D01*
X146678376Y-101711547D01*
X146634751Y-101656970D01*
X146625500Y-101609972D01*
X146625500Y-100628389D01*
X146622737Y-100614502D01*
X146622735Y-100614496D01*
X146601463Y-100507549D01*
X146601461Y-100507544D01*
X146600731Y-100505780D01*
X146600712Y-100505738D01*
X146600692Y-100505688D01*
X146570880Y-100433714D01*
X146554312Y-100393715D01*
X146512585Y-100331267D01*
X146512585Y-100331266D01*
X146512583Y-100331265D01*
X146485858Y-100291267D01*
X146485857Y-100291265D01*
X146395637Y-100201045D01*
X146395606Y-100201016D01*
X144810198Y-98615608D01*
X144810178Y-98615586D01*
X144718733Y-98524141D01*
X144659122Y-98484311D01*
X144616286Y-98455688D01*
X144616287Y-98455688D01*
X144616285Y-98455687D01*
X144616281Y-98455685D01*
X144520127Y-98415858D01*
X144502455Y-98408538D01*
X144502453Y-98408537D01*
X144502452Y-98408537D01*
X144442029Y-98396518D01*
X144381610Y-98384500D01*
X144381607Y-98384500D01*
X144381606Y-98384500D01*
X104240452Y-98384500D01*
X104173413Y-98364815D01*
X104152771Y-98348181D01*
X103176271Y-97371681D01*
X103142786Y-97310358D01*
X103147770Y-97240666D01*
X103189642Y-97184733D01*
X103255106Y-97160316D01*
X103263952Y-97160000D01*
X130950000Y-97160000D01*
X130950000Y-92942152D01*
X130969685Y-92875113D01*
X131022489Y-92829358D01*
X131091647Y-92819414D01*
X131155203Y-92848439D01*
X131161681Y-92854471D01*
X132027834Y-93720624D01*
X132027838Y-93720627D01*
X132167132Y-93813701D01*
X132167133Y-93813701D01*
X132167137Y-93813704D01*
X132255972Y-93850500D01*
X132321918Y-93877816D01*
X132467979Y-93906869D01*
X132486228Y-93910499D01*
X132486232Y-93910500D01*
X132486233Y-93910500D01*
X132486234Y-93910500D01*
X132653767Y-93910500D01*
X134688009Y-93910500D01*
X134755048Y-93930185D01*
X134800803Y-93982989D01*
X134810747Y-94052147D01*
X134789584Y-94105623D01*
X134665965Y-94282169D01*
X134665964Y-94282171D01*
X134566098Y-94496335D01*
X134566094Y-94496344D01*
X134504938Y-94724586D01*
X134504936Y-94724596D01*
X134484341Y-94959999D01*
X134484341Y-94960000D01*
X134504936Y-95195403D01*
X134504938Y-95195413D01*
X134566094Y-95423655D01*
X134566096Y-95423659D01*
X134566097Y-95423663D01*
X134570000Y-95432032D01*
X134665965Y-95637830D01*
X134665967Y-95637834D01*
X134774281Y-95792521D01*
X134801505Y-95831401D01*
X134968599Y-95998495D01*
X135065384Y-96066265D01*
X135162165Y-96134032D01*
X135162167Y-96134033D01*
X135162170Y-96134035D01*
X135376337Y-96233903D01*
X135604592Y-96295063D01*
X135792918Y-96311539D01*
X135839999Y-96315659D01*
X135840000Y-96315659D01*
X135840001Y-96315659D01*
X135879234Y-96312226D01*
X136075408Y-96295063D01*
X136303663Y-96233903D01*
X136517830Y-96134035D01*
X136711401Y-95998495D01*
X136878495Y-95831401D01*
X137008425Y-95645842D01*
X137063002Y-95602217D01*
X137132500Y-95595023D01*
X137194855Y-95626546D01*
X137211575Y-95645842D01*
X137341500Y-95831395D01*
X137341505Y-95831401D01*
X137508599Y-95998495D01*
X137605384Y-96066265D01*
X137702165Y-96134032D01*
X137702167Y-96134033D01*
X137702170Y-96134035D01*
X137916337Y-96233903D01*
X138144592Y-96295063D01*
X138332918Y-96311539D01*
X138379999Y-96315659D01*
X138380000Y-96315659D01*
X138380001Y-96315659D01*
X138419234Y-96312226D01*
X138615408Y-96295063D01*
X138843663Y-96233903D01*
X139057830Y-96134035D01*
X139251401Y-95998495D01*
X139418495Y-95831401D01*
X139548425Y-95645842D01*
X139603002Y-95602217D01*
X139672500Y-95595023D01*
X139734855Y-95626546D01*
X139751575Y-95645842D01*
X139881500Y-95831395D01*
X139881505Y-95831401D01*
X140048599Y-95998495D01*
X140145384Y-96066265D01*
X140242165Y-96134032D01*
X140242167Y-96134033D01*
X140242170Y-96134035D01*
X140456337Y-96233903D01*
X140684592Y-96295063D01*
X140872918Y-96311539D01*
X140919999Y-96315659D01*
X140920000Y-96315659D01*
X140920001Y-96315659D01*
X140959234Y-96312226D01*
X141155408Y-96295063D01*
X141383663Y-96233903D01*
X141597830Y-96134035D01*
X141791401Y-95998495D01*
X141958495Y-95831401D01*
X142088425Y-95645842D01*
X142143002Y-95602217D01*
X142212500Y-95595023D01*
X142274855Y-95626546D01*
X142291575Y-95645842D01*
X142421500Y-95831395D01*
X142421505Y-95831401D01*
X142588599Y-95998495D01*
X142685384Y-96066265D01*
X142782165Y-96134032D01*
X142782167Y-96134033D01*
X142782170Y-96134035D01*
X142996337Y-96233903D01*
X143224592Y-96295063D01*
X143412918Y-96311539D01*
X143459999Y-96315659D01*
X143460000Y-96315659D01*
X143460001Y-96315659D01*
X143499234Y-96312226D01*
X143695408Y-96295063D01*
X143923663Y-96233903D01*
X144137830Y-96134035D01*
X144331401Y-95998495D01*
X144498495Y-95831401D01*
X144628425Y-95645842D01*
X144683002Y-95602217D01*
X144752500Y-95595023D01*
X144814855Y-95626546D01*
X144831575Y-95645842D01*
X144961500Y-95831395D01*
X144961505Y-95831401D01*
X145128599Y-95998495D01*
X145225384Y-96066265D01*
X145322165Y-96134032D01*
X145322167Y-96134033D01*
X145322170Y-96134035D01*
X145536337Y-96233903D01*
X145764592Y-96295063D01*
X145952918Y-96311539D01*
X145999999Y-96315659D01*
X146000000Y-96315659D01*
X146000001Y-96315659D01*
X146039234Y-96312226D01*
X146235408Y-96295063D01*
X146463663Y-96233903D01*
X146677830Y-96134035D01*
X146871401Y-95998495D01*
X147038495Y-95831401D01*
X147168425Y-95645842D01*
X147223002Y-95602217D01*
X147292500Y-95595023D01*
X147354855Y-95626546D01*
X147371575Y-95645842D01*
X147501500Y-95831395D01*
X147501505Y-95831401D01*
X147668599Y-95998495D01*
X147765384Y-96066265D01*
X147862165Y-96134032D01*
X147862167Y-96134033D01*
X147862170Y-96134035D01*
X148076337Y-96233903D01*
X148304592Y-96295063D01*
X148492918Y-96311539D01*
X148539999Y-96315659D01*
X148540000Y-96315659D01*
X148540001Y-96315659D01*
X148579234Y-96312226D01*
X148775408Y-96295063D01*
X149003663Y-96233903D01*
X149217830Y-96134035D01*
X149411401Y-95998495D01*
X149578495Y-95831401D01*
X149714035Y-95637830D01*
X149813903Y-95423663D01*
X149875063Y-95195408D01*
X149895659Y-94960000D01*
X149875063Y-94724592D01*
X149813903Y-94496337D01*
X149714035Y-94282171D01*
X149708425Y-94274158D01*
X149578494Y-94088597D01*
X149411402Y-93921506D01*
X149411395Y-93921501D01*
X149411152Y-93921331D01*
X149328260Y-93863289D01*
X149217834Y-93785967D01*
X149217830Y-93785965D01*
X149144610Y-93751822D01*
X149003663Y-93686097D01*
X149003659Y-93686096D01*
X149003655Y-93686094D01*
X148775413Y-93624938D01*
X148775403Y-93624936D01*
X148540001Y-93604341D01*
X148539999Y-93604341D01*
X148304596Y-93624936D01*
X148304586Y-93624938D01*
X148076344Y-93686094D01*
X148076335Y-93686098D01*
X147862171Y-93785964D01*
X147862169Y-93785965D01*
X147668597Y-93921505D01*
X147501505Y-94088597D01*
X147371575Y-94274158D01*
X147316998Y-94317783D01*
X147247500Y-94324977D01*
X147185145Y-94293454D01*
X147168425Y-94274158D01*
X147038494Y-94088597D01*
X146871402Y-93921506D01*
X146871395Y-93921501D01*
X146871152Y-93921331D01*
X146788260Y-93863289D01*
X146677834Y-93785967D01*
X146677830Y-93785965D01*
X146604610Y-93751822D01*
X146463663Y-93686097D01*
X146463660Y-93686096D01*
X146463658Y-93686095D01*
X146379946Y-93663665D01*
X146324359Y-93631571D01*
X135692788Y-82999999D01*
X142260554Y-82999999D01*
X142260554Y-83000000D01*
X142280295Y-83213047D01*
X142280296Y-83213050D01*
X142338846Y-83418835D01*
X142338849Y-83418841D01*
X142434219Y-83610370D01*
X142563160Y-83781116D01*
X142702744Y-83908363D01*
X142739026Y-83968074D01*
X142737265Y-84037922D01*
X142702744Y-84091637D01*
X142563160Y-84218883D01*
X142434219Y-84389629D01*
X142338849Y-84581158D01*
X142338846Y-84581164D01*
X142280296Y-84786949D01*
X142280295Y-84786952D01*
X142260554Y-84999999D01*
X142260554Y-85000000D01*
X142280295Y-85213047D01*
X142280296Y-85213050D01*
X142338846Y-85418835D01*
X142338849Y-85418841D01*
X142434219Y-85610370D01*
X142563160Y-85781116D01*
X142702744Y-85908363D01*
X142739026Y-85968074D01*
X142737265Y-86037922D01*
X142702744Y-86091637D01*
X142563160Y-86218883D01*
X142434219Y-86389629D01*
X142338849Y-86581158D01*
X142338846Y-86581164D01*
X142280296Y-86786949D01*
X142280295Y-86786952D01*
X142260554Y-86999999D01*
X142260554Y-87000000D01*
X142280295Y-87213047D01*
X142280296Y-87213050D01*
X142338846Y-87418835D01*
X142338849Y-87418841D01*
X142393372Y-87528338D01*
X142434219Y-87610370D01*
X142563159Y-87781114D01*
X142721278Y-87925258D01*
X142721283Y-87925261D01*
X142721286Y-87925263D01*
X142903186Y-88037891D01*
X142903187Y-88037891D01*
X142903190Y-88037893D01*
X143102703Y-88115185D01*
X143313020Y-88154500D01*
X143313022Y-88154500D01*
X143526978Y-88154500D01*
X143526980Y-88154500D01*
X143737297Y-88115185D01*
X143936810Y-88037893D01*
X144118722Y-87925258D01*
X144276841Y-87781114D01*
X144405781Y-87610370D01*
X144501151Y-87418840D01*
X144501151Y-87418837D01*
X144501153Y-87418835D01*
X144550548Y-87245227D01*
X144559704Y-87213048D01*
X144579446Y-87000000D01*
X144563722Y-86830318D01*
X144559704Y-86786952D01*
X144559703Y-86786949D01*
X144501153Y-86581164D01*
X144501150Y-86581158D01*
X144483036Y-86544780D01*
X144405781Y-86389630D01*
X144276841Y-86218886D01*
X144137251Y-86091633D01*
X144100973Y-86031927D01*
X144102733Y-85962079D01*
X144137251Y-85908366D01*
X144276841Y-85781114D01*
X144405781Y-85610370D01*
X144501151Y-85418840D01*
X144501151Y-85418837D01*
X144501153Y-85418835D01*
X144559703Y-85213050D01*
X144559704Y-85213047D01*
X144579446Y-85000000D01*
X144579446Y-84999999D01*
X144559704Y-84786952D01*
X144559703Y-84786949D01*
X144501153Y-84581164D01*
X144501150Y-84581158D01*
X144499455Y-84577754D01*
X144405781Y-84389630D01*
X144276841Y-84218886D01*
X144137251Y-84091633D01*
X144100973Y-84031927D01*
X144102733Y-83962079D01*
X144137251Y-83908366D01*
X144276841Y-83781114D01*
X144405781Y-83610370D01*
X144501151Y-83418840D01*
X144501151Y-83418837D01*
X144501153Y-83418835D01*
X144535178Y-83299247D01*
X144559704Y-83213048D01*
X144579446Y-83000000D01*
X144570179Y-82899999D01*
X144559704Y-82786952D01*
X144559703Y-82786949D01*
X144501153Y-82581164D01*
X144501150Y-82581158D01*
X144461106Y-82500739D01*
X144405781Y-82389630D01*
X144276841Y-82218886D01*
X144118722Y-82074742D01*
X144118716Y-82074738D01*
X144118713Y-82074736D01*
X143936813Y-81962108D01*
X143936807Y-81962106D01*
X143737297Y-81884815D01*
X143526980Y-81845500D01*
X143313020Y-81845500D01*
X143102703Y-81884815D01*
X142976533Y-81933693D01*
X142903192Y-81962106D01*
X142903186Y-81962108D01*
X142721286Y-82074736D01*
X142721283Y-82074738D01*
X142721279Y-82074740D01*
X142721278Y-82074742D01*
X142589564Y-82194815D01*
X142563158Y-82218887D01*
X142434219Y-82389629D01*
X142338849Y-82581158D01*
X142338846Y-82581164D01*
X142280296Y-82786949D01*
X142280295Y-82786952D01*
X142260554Y-82999999D01*
X135692788Y-82999999D01*
X135636819Y-82944030D01*
X135603334Y-82882707D01*
X135600500Y-82856349D01*
X135600500Y-82809778D01*
X135596884Y-82786949D01*
X135566015Y-82592049D01*
X135497895Y-82382394D01*
X135497895Y-82382393D01*
X135463237Y-82314375D01*
X135397815Y-82185978D01*
X135316995Y-82074738D01*
X135268247Y-82007641D01*
X135268243Y-82007636D01*
X135112363Y-81851756D01*
X135112358Y-81851752D01*
X134934025Y-81722187D01*
X134934024Y-81722186D01*
X134934022Y-81722185D01*
X134871096Y-81690122D01*
X134737606Y-81622104D01*
X134737603Y-81622103D01*
X134527952Y-81553985D01*
X134419086Y-81536742D01*
X134310222Y-81519500D01*
X133689778Y-81519500D01*
X133617201Y-81530995D01*
X133472047Y-81553985D01*
X133262396Y-81622103D01*
X133262393Y-81622104D01*
X133065974Y-81722187D01*
X132887641Y-81851752D01*
X132887636Y-81851756D01*
X132772181Y-81967212D01*
X132710858Y-82000697D01*
X132641166Y-81995713D01*
X132585233Y-81953841D01*
X132560816Y-81888377D01*
X132560500Y-81879531D01*
X132560500Y-72088602D01*
X132560499Y-72088598D01*
X132541358Y-71992366D01*
X132547585Y-71922774D01*
X132590448Y-71867597D01*
X132656338Y-71844353D01*
X132724335Y-71860421D01*
G37*
G04 #@! TD.AperFunction*
G04 #@! TA.AperFunction,Conductor*
G36*
X114207585Y-64945185D02*
G01*
X114253340Y-64997989D01*
X114263284Y-65067147D01*
X114234259Y-65130703D01*
X114228227Y-65137181D01*
X113017229Y-66348181D01*
X112955906Y-66381666D01*
X112929548Y-66384500D01*
X109328389Y-66384500D01*
X109207553Y-66408535D01*
X109207541Y-66408539D01*
X109175262Y-66421909D01*
X109160397Y-66428067D01*
X109093718Y-66455685D01*
X109074571Y-66468479D01*
X109068190Y-66472743D01*
X109068189Y-66472744D01*
X109068188Y-66472743D01*
X108991266Y-66524142D01*
X108991265Y-66524143D01*
X108947704Y-66567705D01*
X108904142Y-66611267D01*
X105974144Y-69541264D01*
X105974138Y-69541272D01*
X105905690Y-69643708D01*
X105905688Y-69643713D01*
X105882088Y-69700690D01*
X105838248Y-69755094D01*
X105829529Y-69760624D01*
X105826337Y-69762466D01*
X105645377Y-69889175D01*
X105489175Y-70045377D01*
X105362466Y-70226338D01*
X105362465Y-70226340D01*
X105269107Y-70426548D01*
X105269104Y-70426554D01*
X105211930Y-70639929D01*
X105211929Y-70639937D01*
X105192677Y-70859997D01*
X105192677Y-70860002D01*
X105211929Y-71080062D01*
X105211930Y-71080070D01*
X105269104Y-71293445D01*
X105269105Y-71293449D01*
X105269106Y-71293450D01*
X105269107Y-71293452D01*
X105271273Y-71298097D01*
X105281764Y-71367175D01*
X105253243Y-71430958D01*
X105194766Y-71469197D01*
X105158890Y-71474500D01*
X102438389Y-71474500D01*
X102377971Y-71486518D01*
X102334743Y-71495116D01*
X102317546Y-71498537D01*
X102285664Y-71511744D01*
X102285663Y-71511744D01*
X102203715Y-71545686D01*
X102193627Y-71552428D01*
X102193626Y-71552429D01*
X102101268Y-71614140D01*
X102057705Y-71657703D01*
X102014142Y-71701267D01*
X98554144Y-75161264D01*
X98554138Y-75161272D01*
X98485692Y-75263705D01*
X98485684Y-75263719D01*
X98452347Y-75344207D01*
X98446823Y-75357543D01*
X98438537Y-75377545D01*
X98438535Y-75377553D01*
X98414500Y-75498389D01*
X98414500Y-76690932D01*
X98394815Y-76757971D01*
X98355778Y-76796358D01*
X98326152Y-76814701D01*
X98164604Y-76961972D01*
X98032874Y-77136410D01*
X98032869Y-77136418D01*
X97935441Y-77332079D01*
X97935435Y-77332094D01*
X97875616Y-77542337D01*
X97875615Y-77542339D01*
X97855447Y-77759999D01*
X97855447Y-77760000D01*
X97875615Y-77977660D01*
X97875616Y-77977662D01*
X97935435Y-78187905D01*
X97935441Y-78187920D01*
X98032869Y-78383581D01*
X98032874Y-78383589D01*
X98154449Y-78544579D01*
X98164605Y-78558028D01*
X98326147Y-78705294D01*
X98326149Y-78705295D01*
X98326150Y-78705296D01*
X98511995Y-78820366D01*
X98512001Y-78820369D01*
X98579943Y-78846689D01*
X98715832Y-78899333D01*
X98762795Y-78908112D01*
X98825073Y-78939780D01*
X98860346Y-79000092D01*
X98857412Y-79069900D01*
X98817203Y-79127040D01*
X98762795Y-79151887D01*
X98715832Y-79160667D01*
X98715830Y-79160667D01*
X98715828Y-79160668D01*
X98512001Y-79239630D01*
X98511995Y-79239633D01*
X98326148Y-79354704D01*
X98326145Y-79354706D01*
X98232201Y-79440348D01*
X98169397Y-79470965D01*
X98100010Y-79462767D01*
X98060982Y-79436392D01*
X97361819Y-78737229D01*
X97328334Y-78675906D01*
X97325500Y-78649548D01*
X97325500Y-69810452D01*
X97345185Y-69743413D01*
X97361819Y-69722771D01*
X102122772Y-64961819D01*
X102184095Y-64928334D01*
X102210453Y-64925500D01*
X114140546Y-64925500D01*
X114207585Y-64945185D01*
G37*
G04 #@! TD.AperFunction*
G04 #@! TA.AperFunction,Conductor*
G36*
X126099524Y-66150185D02*
G01*
X126145279Y-66202989D01*
X126155223Y-66272147D01*
X126126198Y-66335703D01*
X126116023Y-66346137D01*
X125963237Y-66485418D01*
X125840327Y-66648178D01*
X125749422Y-66830739D01*
X125749417Y-66830752D01*
X125693602Y-67026917D01*
X125674785Y-67229999D01*
X125674785Y-67230000D01*
X125693602Y-67433082D01*
X125749417Y-67629247D01*
X125749422Y-67629260D01*
X125840327Y-67811821D01*
X125954454Y-67962950D01*
X125979146Y-68028310D01*
X125979500Y-68037676D01*
X125979500Y-69823691D01*
X125959815Y-69890730D01*
X125943181Y-69911372D01*
X125809175Y-70045377D01*
X125682466Y-70226338D01*
X125682465Y-70226340D01*
X125589107Y-70426548D01*
X125589104Y-70426554D01*
X125531930Y-70639929D01*
X125531929Y-70639937D01*
X125512677Y-70859997D01*
X125512677Y-70860002D01*
X125531929Y-71080062D01*
X125531930Y-71080070D01*
X125589104Y-71293445D01*
X125589105Y-71293447D01*
X125589106Y-71293450D01*
X125671058Y-71469197D01*
X125682466Y-71493662D01*
X125682468Y-71493666D01*
X125809170Y-71674615D01*
X125809175Y-71674621D01*
X125965378Y-71830824D01*
X125965384Y-71830829D01*
X126146333Y-71957531D01*
X126146335Y-71957532D01*
X126146338Y-71957534D01*
X126346550Y-72050894D01*
X126559932Y-72108070D01*
X126686458Y-72119139D01*
X126724550Y-72122472D01*
X126782892Y-72145293D01*
X126811322Y-72127023D01*
X126835450Y-72122472D01*
X126868465Y-72119583D01*
X127000068Y-72108070D01*
X127213450Y-72050894D01*
X127413662Y-71957534D01*
X127594620Y-71830826D01*
X127750826Y-71674620D01*
X127877534Y-71493662D01*
X127937618Y-71364811D01*
X127983790Y-71312371D01*
X128050983Y-71293219D01*
X128117865Y-71313435D01*
X128162382Y-71364811D01*
X128222464Y-71493658D01*
X128222468Y-71493666D01*
X128349170Y-71674615D01*
X128349175Y-71674621D01*
X128505378Y-71830824D01*
X128505384Y-71830829D01*
X128686333Y-71957531D01*
X128686335Y-71957532D01*
X128686338Y-71957534D01*
X128886550Y-72050894D01*
X129099932Y-72108070D01*
X129226458Y-72119139D01*
X129264550Y-72122472D01*
X129322892Y-72145293D01*
X129351322Y-72127023D01*
X129375450Y-72122472D01*
X129408465Y-72119583D01*
X129540068Y-72108070D01*
X129753450Y-72050894D01*
X129953662Y-71957534D01*
X130067650Y-71877718D01*
X130133855Y-71855391D01*
X130201622Y-71872401D01*
X130226450Y-71891608D01*
X130493161Y-72158320D01*
X130526646Y-72219642D01*
X130521662Y-72289334D01*
X130479790Y-72345267D01*
X130414326Y-72369684D01*
X130405480Y-72370000D01*
X129386257Y-72370000D01*
X129319218Y-72350315D01*
X129316646Y-72347347D01*
X129278175Y-72367569D01*
X129253743Y-72370000D01*
X126846257Y-72370000D01*
X126779218Y-72350315D01*
X126776646Y-72347347D01*
X126738175Y-72367569D01*
X126713743Y-72370000D01*
X121766257Y-72370000D01*
X121699218Y-72350315D01*
X121696646Y-72347347D01*
X121658175Y-72367569D01*
X121633743Y-72370000D01*
X119226257Y-72370000D01*
X119159218Y-72350315D01*
X119156646Y-72347347D01*
X119118175Y-72367569D01*
X119093743Y-72370000D01*
X116686257Y-72370000D01*
X116619218Y-72350315D01*
X116616646Y-72347347D01*
X116578175Y-72367569D01*
X116553743Y-72370000D01*
X114146257Y-72370000D01*
X114079218Y-72350315D01*
X114076646Y-72347347D01*
X114038175Y-72367569D01*
X114013743Y-72370000D01*
X112232788Y-72370000D01*
X112165749Y-72350315D01*
X112119994Y-72297511D01*
X112110050Y-72228353D01*
X112118224Y-72198555D01*
X112121929Y-72189608D01*
X112121932Y-72189605D01*
X112141461Y-72142456D01*
X112141463Y-72142452D01*
X112152175Y-72088598D01*
X112158559Y-72056505D01*
X112158559Y-72056502D01*
X112165500Y-72021607D01*
X112165500Y-72021601D01*
X112166086Y-72015658D01*
X112192243Y-71950869D01*
X112218362Y-71926234D01*
X112354620Y-71830826D01*
X112510826Y-71674620D01*
X112637534Y-71493662D01*
X112697618Y-71364811D01*
X112743790Y-71312371D01*
X112810983Y-71293219D01*
X112877865Y-71313435D01*
X112922382Y-71364811D01*
X112982464Y-71493658D01*
X112982468Y-71493666D01*
X113109170Y-71674615D01*
X113109175Y-71674621D01*
X113265378Y-71830824D01*
X113265384Y-71830829D01*
X113446333Y-71957531D01*
X113446335Y-71957532D01*
X113446338Y-71957534D01*
X113646550Y-72050894D01*
X113859932Y-72108070D01*
X113986458Y-72119139D01*
X114024550Y-72122472D01*
X114082892Y-72145293D01*
X114111322Y-72127023D01*
X114135450Y-72122472D01*
X114168465Y-72119583D01*
X114300068Y-72108070D01*
X114513450Y-72050894D01*
X114713662Y-71957534D01*
X114894620Y-71830826D01*
X115050826Y-71674620D01*
X115177534Y-71493662D01*
X115237618Y-71364811D01*
X115283790Y-71312371D01*
X115350983Y-71293219D01*
X115417865Y-71313435D01*
X115462382Y-71364811D01*
X115522464Y-71493658D01*
X115522468Y-71493666D01*
X115649170Y-71674615D01*
X115649175Y-71674621D01*
X115805378Y-71830824D01*
X115805384Y-71830829D01*
X115986333Y-71957531D01*
X115986335Y-71957532D01*
X115986338Y-71957534D01*
X116186550Y-72050894D01*
X116399932Y-72108070D01*
X116526458Y-72119139D01*
X116564550Y-72122472D01*
X116622892Y-72145293D01*
X116651322Y-72127023D01*
X116675450Y-72122472D01*
X116708465Y-72119583D01*
X116840068Y-72108070D01*
X117053450Y-72050894D01*
X117253662Y-71957534D01*
X117434620Y-71830826D01*
X117590826Y-71674620D01*
X117717534Y-71493662D01*
X117777618Y-71364811D01*
X117823790Y-71312371D01*
X117890983Y-71293219D01*
X117957865Y-71313435D01*
X118002382Y-71364811D01*
X118062464Y-71493658D01*
X118062468Y-71493666D01*
X118189170Y-71674615D01*
X118189175Y-71674621D01*
X118345378Y-71830824D01*
X118345384Y-71830829D01*
X118526333Y-71957531D01*
X118526335Y-71957532D01*
X118526338Y-71957534D01*
X118726550Y-72050894D01*
X118939932Y-72108070D01*
X119066458Y-72119139D01*
X119104550Y-72122472D01*
X119162892Y-72145293D01*
X119191322Y-72127023D01*
X119215450Y-72122472D01*
X119248465Y-72119583D01*
X119380068Y-72108070D01*
X119593450Y-72050894D01*
X119793662Y-71957534D01*
X119974620Y-71830826D01*
X120130826Y-71674620D01*
X120257534Y-71493662D01*
X120317618Y-71364811D01*
X120363790Y-71312371D01*
X120430983Y-71293219D01*
X120497865Y-71313435D01*
X120542382Y-71364811D01*
X120602464Y-71493658D01*
X120602468Y-71493666D01*
X120729170Y-71674615D01*
X120729175Y-71674621D01*
X120885378Y-71830824D01*
X120885384Y-71830829D01*
X121066333Y-71957531D01*
X121066335Y-71957532D01*
X121066338Y-71957534D01*
X121266550Y-72050894D01*
X121479932Y-72108070D01*
X121606458Y-72119139D01*
X121644550Y-72122472D01*
X121702892Y-72145293D01*
X121731322Y-72127023D01*
X121755450Y-72122472D01*
X121788465Y-72119583D01*
X121920068Y-72108070D01*
X122133450Y-72050894D01*
X122333662Y-71957534D01*
X122514620Y-71830826D01*
X122670826Y-71674620D01*
X122797534Y-71493662D01*
X122890894Y-71293450D01*
X122948070Y-71080068D01*
X122967323Y-70860000D01*
X122948070Y-70639932D01*
X122890894Y-70426550D01*
X122797534Y-70226339D01*
X122670826Y-70045380D01*
X122514620Y-69889174D01*
X122514616Y-69889171D01*
X122514615Y-69889170D01*
X122333666Y-69762468D01*
X122333662Y-69762466D01*
X122296279Y-69745034D01*
X122133450Y-69669106D01*
X122133447Y-69669105D01*
X122133445Y-69669104D01*
X121920070Y-69611930D01*
X121920062Y-69611929D01*
X121700002Y-69592677D01*
X121699998Y-69592677D01*
X121479937Y-69611929D01*
X121479929Y-69611930D01*
X121266554Y-69669104D01*
X121266548Y-69669107D01*
X121066340Y-69762465D01*
X121066338Y-69762466D01*
X120885377Y-69889175D01*
X120729175Y-70045377D01*
X120602466Y-70226338D01*
X120602465Y-70226340D01*
X120542382Y-70355189D01*
X120496209Y-70407628D01*
X120429016Y-70426780D01*
X120362135Y-70406564D01*
X120317618Y-70355189D01*
X120257534Y-70226340D01*
X120257533Y-70226338D01*
X120130827Y-70045381D01*
X120060500Y-69975054D01*
X119974620Y-69889174D01*
X119974616Y-69889171D01*
X119974615Y-69889170D01*
X119793666Y-69762468D01*
X119793662Y-69762466D01*
X119756279Y-69745034D01*
X119593450Y-69669106D01*
X119593447Y-69669105D01*
X119593445Y-69669104D01*
X119380070Y-69611930D01*
X119380062Y-69611929D01*
X119160002Y-69592677D01*
X119159998Y-69592677D01*
X118939937Y-69611929D01*
X118939929Y-69611930D01*
X118726554Y-69669104D01*
X118726548Y-69669107D01*
X118526340Y-69762465D01*
X118526338Y-69762466D01*
X118345377Y-69889175D01*
X118189175Y-70045377D01*
X118062466Y-70226338D01*
X118062465Y-70226340D01*
X118002382Y-70355189D01*
X117956209Y-70407628D01*
X117889016Y-70426780D01*
X117822135Y-70406564D01*
X117777618Y-70355189D01*
X117717534Y-70226340D01*
X117717533Y-70226338D01*
X117590827Y-70045381D01*
X117520500Y-69975054D01*
X117434620Y-69889174D01*
X117434616Y-69889171D01*
X117434615Y-69889170D01*
X117253666Y-69762468D01*
X117253662Y-69762466D01*
X117216279Y-69745034D01*
X117053450Y-69669106D01*
X117053447Y-69669105D01*
X117053445Y-69669104D01*
X116840070Y-69611930D01*
X116840062Y-69611929D01*
X116620002Y-69592677D01*
X116619998Y-69592677D01*
X116399937Y-69611929D01*
X116399929Y-69611930D01*
X116186554Y-69669104D01*
X116186548Y-69669107D01*
X115986340Y-69762465D01*
X115986338Y-69762466D01*
X115805377Y-69889175D01*
X115649175Y-70045377D01*
X115522466Y-70226338D01*
X115522465Y-70226340D01*
X115462382Y-70355189D01*
X115416209Y-70407628D01*
X115349016Y-70426780D01*
X115282135Y-70406564D01*
X115237618Y-70355189D01*
X115177534Y-70226340D01*
X115177533Y-70226338D01*
X115050824Y-70045377D01*
X114916819Y-69911372D01*
X114883334Y-69850049D01*
X114880500Y-69823691D01*
X114880500Y-69382940D01*
X114900185Y-69315901D01*
X114916819Y-69295259D01*
X118045259Y-66166819D01*
X118106582Y-66133334D01*
X118132940Y-66130500D01*
X126032485Y-66130500D01*
X126099524Y-66150185D01*
G37*
G04 #@! TD.AperFunction*
G04 #@! TA.AperFunction,Conductor*
G36*
X116972127Y-57430000D02*
G01*
X117145500Y-57429999D01*
X117212539Y-57449683D01*
X117258294Y-57502487D01*
X117269500Y-57553999D01*
X117269500Y-57786610D01*
X117270492Y-57791592D01*
X117270493Y-57791606D01*
X117270495Y-57791606D01*
X117270495Y-57791607D01*
X117283846Y-57858733D01*
X117283846Y-57858734D01*
X117293534Y-57907443D01*
X117293536Y-57907447D01*
X117293537Y-57907451D01*
X117309444Y-57945855D01*
X117340686Y-58021283D01*
X117340687Y-58021285D01*
X117340688Y-58021286D01*
X117363676Y-58055689D01*
X117409141Y-58123732D01*
X117409144Y-58123736D01*
X117500586Y-58215178D01*
X117500608Y-58215198D01*
X118291016Y-59005606D01*
X118291045Y-59005637D01*
X118381264Y-59095856D01*
X118381267Y-59095858D01*
X118432490Y-59130084D01*
X118483714Y-59164312D01*
X118483715Y-59164312D01*
X118483716Y-59164313D01*
X118499713Y-59170939D01*
X118554117Y-59214779D01*
X118576182Y-59281073D01*
X118558903Y-59348773D01*
X118507766Y-59396384D01*
X118452261Y-59409500D01*
X102111155Y-59409500D01*
X101956508Y-59440261D01*
X101956498Y-59440264D01*
X101810827Y-59500602D01*
X101810814Y-59500609D01*
X101679711Y-59588210D01*
X101679707Y-59588213D01*
X101649740Y-59618181D01*
X101588417Y-59651666D01*
X101562059Y-59654500D01*
X95636574Y-59654500D01*
X95569535Y-59634815D01*
X95523780Y-59582011D01*
X95513836Y-59512853D01*
X95525574Y-59475229D01*
X95553648Y-59418846D01*
X95553647Y-59418846D01*
X95553651Y-59418840D01*
X95553651Y-59418838D01*
X95553653Y-59418835D01*
X95612203Y-59213050D01*
X95612204Y-59213047D01*
X95631946Y-59000000D01*
X95631946Y-58999999D01*
X95612204Y-58786952D01*
X95612203Y-58786949D01*
X95553653Y-58581164D01*
X95553650Y-58581158D01*
X95530553Y-58534772D01*
X95518292Y-58465986D01*
X95545165Y-58401491D01*
X95602641Y-58361764D01*
X95641553Y-58355500D01*
X115641607Y-58355500D01*
X115702029Y-58343481D01*
X115762452Y-58331463D01*
X115805302Y-58313714D01*
X115876286Y-58284312D01*
X115939890Y-58241812D01*
X115978733Y-58215858D01*
X116065858Y-58128733D01*
X116065859Y-58128731D01*
X116072925Y-58121665D01*
X116072928Y-58121661D01*
X116343729Y-57850860D01*
X116343733Y-57850858D01*
X116430858Y-57763733D01*
X116461584Y-57717746D01*
X116482254Y-57686813D01*
X116482256Y-57686810D01*
X116499310Y-57661288D01*
X116499310Y-57661287D01*
X116499312Y-57661285D01*
X116544724Y-57551649D01*
X116544732Y-57551639D01*
X116544729Y-57551638D01*
X116545368Y-57550093D01*
X116546463Y-57547452D01*
X116549972Y-57529809D01*
X116582356Y-57467899D01*
X116643071Y-57433323D01*
X116671590Y-57429999D01*
X116867872Y-57429999D01*
X116867885Y-57429998D01*
X116906744Y-57425820D01*
X116933252Y-57425820D01*
X116972127Y-57430000D01*
G37*
G04 #@! TD.AperFunction*
G04 #@! TA.AperFunction,Conductor*
G36*
X113930720Y-55055185D02*
G01*
X113976475Y-55107989D01*
X113986419Y-55177147D01*
X113977726Y-55203271D01*
X113979303Y-55203859D01*
X113925908Y-55347017D01*
X113919501Y-55406616D01*
X113919501Y-55406623D01*
X113919500Y-55406635D01*
X113919501Y-56980500D01*
X113899816Y-57047539D01*
X113847013Y-57093294D01*
X113795501Y-57104500D01*
X92748389Y-57104500D01*
X92687971Y-57116518D01*
X92650259Y-57124019D01*
X92627550Y-57128536D01*
X92627548Y-57128537D01*
X92594207Y-57142347D01*
X92513719Y-57175684D01*
X92513705Y-57175692D01*
X92411272Y-57244138D01*
X92411264Y-57244144D01*
X91986644Y-57668764D01*
X91986638Y-57668772D01*
X91952414Y-57719989D01*
X91952415Y-57719990D01*
X91918191Y-57771208D01*
X91918184Y-57771220D01*
X91904194Y-57804999D01*
X91904194Y-57805000D01*
X91871038Y-57885045D01*
X91871035Y-57885054D01*
X91852180Y-57979845D01*
X91819795Y-58041756D01*
X91795844Y-58061078D01*
X91773777Y-58074741D01*
X91773777Y-58074742D01*
X91615660Y-58218884D01*
X91571454Y-58277422D01*
X91515344Y-58319058D01*
X91445632Y-58323749D01*
X91384451Y-58290007D01*
X91373546Y-58277422D01*
X91335579Y-58227147D01*
X91329341Y-58218886D01*
X91329339Y-58218884D01*
X91171219Y-58074739D01*
X91170193Y-58073964D01*
X91169825Y-58073468D01*
X91166986Y-58070880D01*
X91167492Y-58070324D01*
X91128564Y-58017849D01*
X91123881Y-57948137D01*
X91157249Y-57887340D01*
X93972771Y-55071819D01*
X94034094Y-55038334D01*
X94060452Y-55035500D01*
X113863681Y-55035500D01*
X113930720Y-55055185D01*
G37*
G04 #@! TD.AperFunction*
G04 #@! TA.AperFunction,Conductor*
G36*
X146863039Y-45919685D02*
G01*
X146908794Y-45972489D01*
X146920000Y-46024000D01*
X146920000Y-61900000D01*
X154296000Y-61900000D01*
X154363039Y-61919685D01*
X154408794Y-61972489D01*
X154420000Y-62024000D01*
X154420000Y-84390000D01*
X154418855Y-86968377D01*
X154410055Y-106776055D01*
X154390341Y-106843086D01*
X154337516Y-106888817D01*
X154286055Y-106900000D01*
X79544000Y-106900000D01*
X79476961Y-106880315D01*
X79431206Y-106827511D01*
X79420000Y-106776000D01*
X79420000Y-96911111D01*
X79425471Y-94178493D01*
X79429232Y-92299999D01*
X79794785Y-92299999D01*
X79794785Y-92300000D01*
X79813602Y-92503082D01*
X79869417Y-92699247D01*
X79869422Y-92699260D01*
X79960327Y-92881821D01*
X80083237Y-93044581D01*
X80233958Y-93181980D01*
X80233960Y-93181982D01*
X80291584Y-93217661D01*
X80407363Y-93289348D01*
X80597544Y-93363024D01*
X80759894Y-93393372D01*
X80822175Y-93425040D01*
X80824790Y-93427579D01*
X80939374Y-93542162D01*
X81057838Y-93660626D01*
X81197137Y-93753703D01*
X81351918Y-93817816D01*
X81516223Y-93850498D01*
X81516228Y-93850499D01*
X81516232Y-93850500D01*
X81516233Y-93850500D01*
X82934125Y-93850500D01*
X83001164Y-93870185D01*
X83017663Y-93882863D01*
X83086146Y-93945293D01*
X83086148Y-93945295D01*
X83271995Y-94060366D01*
X83272001Y-94060369D01*
X83315182Y-94077097D01*
X83475832Y-94139333D01*
X83690703Y-94179500D01*
X83690705Y-94179500D01*
X83909295Y-94179500D01*
X83909297Y-94179500D01*
X84124168Y-94139333D01*
X84328001Y-94060368D01*
X84513853Y-93945294D01*
X84675395Y-93798028D01*
X84807127Y-93623587D01*
X84904563Y-93427910D01*
X84964384Y-93217661D01*
X84984553Y-93000000D01*
X84964384Y-92782339D01*
X84904563Y-92572090D01*
X84904558Y-92572079D01*
X84807130Y-92376418D01*
X84807125Y-92376410D01*
X84675395Y-92201972D01*
X84582336Y-92117137D01*
X84513853Y-92054706D01*
X84513850Y-92054704D01*
X84513849Y-92054703D01*
X84328004Y-91939633D01*
X84327998Y-91939630D01*
X84166850Y-91877202D01*
X84124168Y-91860667D01*
X83909297Y-91820500D01*
X83690703Y-91820500D01*
X83475832Y-91860667D01*
X83475829Y-91860667D01*
X83475829Y-91860668D01*
X83272001Y-91939630D01*
X83271995Y-91939633D01*
X83086148Y-92054704D01*
X83086146Y-92054706D01*
X83017663Y-92117137D01*
X82954859Y-92147754D01*
X82934125Y-92149500D01*
X82094998Y-92149500D01*
X82027959Y-92129815D01*
X81982204Y-92077011D01*
X81975732Y-92059435D01*
X81975649Y-92059142D01*
X81930582Y-91900750D01*
X81890622Y-91820500D01*
X81880821Y-91800815D01*
X81839673Y-91718179D01*
X81749925Y-91599333D01*
X81716762Y-91555418D01*
X81566041Y-91418019D01*
X81566039Y-91418017D01*
X81392642Y-91310655D01*
X81392635Y-91310651D01*
X81297546Y-91273814D01*
X81202456Y-91236976D01*
X81001976Y-91199500D01*
X80798024Y-91199500D01*
X80597544Y-91236976D01*
X80597541Y-91236976D01*
X80597541Y-91236977D01*
X80407364Y-91310651D01*
X80407357Y-91310655D01*
X80233960Y-91418017D01*
X80233958Y-91418019D01*
X80083237Y-91555418D01*
X79960327Y-91718178D01*
X79869422Y-91900739D01*
X79869417Y-91900752D01*
X79813602Y-92096917D01*
X79794785Y-92299999D01*
X79429232Y-92299999D01*
X79458344Y-77759999D01*
X82615447Y-77759999D01*
X82615447Y-77760000D01*
X82635615Y-77977660D01*
X82635616Y-77977662D01*
X82695435Y-78187905D01*
X82695441Y-78187920D01*
X82792869Y-78383581D01*
X82792874Y-78383589D01*
X82914449Y-78544579D01*
X82924605Y-78558028D01*
X83086147Y-78705294D01*
X83086149Y-78705295D01*
X83086150Y-78705296D01*
X83271995Y-78820366D01*
X83272001Y-78820369D01*
X83339943Y-78846689D01*
X83475832Y-78899333D01*
X83522795Y-78908112D01*
X83585073Y-78939780D01*
X83620346Y-79000092D01*
X83617412Y-79069900D01*
X83577203Y-79127040D01*
X83522795Y-79151887D01*
X83475832Y-79160667D01*
X83475830Y-79160667D01*
X83475828Y-79160668D01*
X83272001Y-79239630D01*
X83271995Y-79239633D01*
X83086150Y-79354703D01*
X82924604Y-79501972D01*
X82792874Y-79676410D01*
X82792869Y-79676418D01*
X82695441Y-79872079D01*
X82695435Y-79872094D01*
X82635616Y-80082337D01*
X82635615Y-80082339D01*
X82615447Y-80299999D01*
X82615447Y-80300000D01*
X82635615Y-80517660D01*
X82635616Y-80517662D01*
X82695435Y-80727905D01*
X82695441Y-80727920D01*
X82792869Y-80923581D01*
X82792874Y-80923589D01*
X82924604Y-81098027D01*
X82924605Y-81098028D01*
X83086147Y-81245294D01*
X83086149Y-81245295D01*
X83086150Y-81245296D01*
X83271995Y-81360366D01*
X83272001Y-81360369D01*
X83339943Y-81386689D01*
X83475832Y-81439333D01*
X83522795Y-81448112D01*
X83585073Y-81479780D01*
X83620346Y-81540092D01*
X83617412Y-81609900D01*
X83577203Y-81667040D01*
X83522795Y-81691887D01*
X83475832Y-81700667D01*
X83475830Y-81700667D01*
X83475828Y-81700668D01*
X83272001Y-81779630D01*
X83271995Y-81779633D01*
X83086150Y-81894703D01*
X82924604Y-82041972D01*
X82792874Y-82216410D01*
X82792869Y-82216418D01*
X82695441Y-82412079D01*
X82695435Y-82412094D01*
X82635616Y-82622337D01*
X82635615Y-82622339D01*
X82615447Y-82839999D01*
X82615447Y-82840000D01*
X82635615Y-83057660D01*
X82635616Y-83057662D01*
X82695435Y-83267905D01*
X82695441Y-83267920D01*
X82792869Y-83463581D01*
X82792874Y-83463589D01*
X82924604Y-83638027D01*
X82924605Y-83638028D01*
X83086147Y-83785294D01*
X83086149Y-83785295D01*
X83086150Y-83785296D01*
X83271995Y-83900366D01*
X83272001Y-83900369D01*
X83336248Y-83925258D01*
X83475832Y-83979333D01*
X83522795Y-83988112D01*
X83585073Y-84019780D01*
X83620346Y-84080092D01*
X83617412Y-84149900D01*
X83577203Y-84207040D01*
X83522795Y-84231887D01*
X83475832Y-84240667D01*
X83475830Y-84240667D01*
X83475828Y-84240668D01*
X83272001Y-84319630D01*
X83271995Y-84319633D01*
X83086150Y-84434703D01*
X82924604Y-84581972D01*
X82792874Y-84756410D01*
X82792869Y-84756418D01*
X82695441Y-84952079D01*
X82695435Y-84952094D01*
X82635616Y-85162337D01*
X82635615Y-85162339D01*
X82615447Y-85379999D01*
X82615447Y-85380000D01*
X82635615Y-85597660D01*
X82635616Y-85597662D01*
X82695435Y-85807905D01*
X82695441Y-85807920D01*
X82792869Y-86003581D01*
X82792874Y-86003589D01*
X82859365Y-86091637D01*
X82924605Y-86178028D01*
X83086147Y-86325294D01*
X83086149Y-86325295D01*
X83086150Y-86325296D01*
X83271995Y-86440366D01*
X83272001Y-86440369D01*
X83325938Y-86461264D01*
X83475832Y-86519333D01*
X83522795Y-86528112D01*
X83585073Y-86559780D01*
X83620346Y-86620092D01*
X83617412Y-86689900D01*
X83577203Y-86747040D01*
X83522795Y-86771887D01*
X83475832Y-86780667D01*
X83475830Y-86780667D01*
X83475828Y-86780668D01*
X83272001Y-86859630D01*
X83271995Y-86859633D01*
X83086150Y-86974703D01*
X82924604Y-87121972D01*
X82792874Y-87296410D01*
X82792869Y-87296418D01*
X82695441Y-87492079D01*
X82695435Y-87492094D01*
X82635616Y-87702337D01*
X82635615Y-87702339D01*
X82615447Y-87919999D01*
X82615447Y-87920000D01*
X82635615Y-88137660D01*
X82635616Y-88137662D01*
X82695435Y-88347905D01*
X82695441Y-88347920D01*
X82792869Y-88543581D01*
X82792874Y-88543589D01*
X82903241Y-88689738D01*
X82924605Y-88718028D01*
X83086147Y-88865294D01*
X83086149Y-88865295D01*
X83086150Y-88865296D01*
X83271995Y-88980366D01*
X83272001Y-88980369D01*
X83315182Y-88997097D01*
X83475832Y-89059333D01*
X83690703Y-89099500D01*
X83690705Y-89099500D01*
X83909295Y-89099500D01*
X83909297Y-89099500D01*
X84124168Y-89059333D01*
X84328001Y-88980368D01*
X84513853Y-88865294D01*
X84572870Y-88811492D01*
X84637184Y-88752863D01*
X84699988Y-88722246D01*
X84720722Y-88720500D01*
X89158844Y-88720500D01*
X89158845Y-88720499D01*
X89313497Y-88689737D01*
X89459179Y-88629394D01*
X89590289Y-88541789D01*
X90621788Y-87510290D01*
X90653791Y-87462394D01*
X90699708Y-87393673D01*
X90753317Y-87348872D01*
X90822642Y-87340163D01*
X90885670Y-87370318D01*
X90915799Y-87413953D01*
X90916293Y-87413708D01*
X90918006Y-87417149D01*
X90918431Y-87417764D01*
X90918846Y-87418835D01*
X91014219Y-87610370D01*
X91143160Y-87781116D01*
X91282744Y-87908363D01*
X91319026Y-87968074D01*
X91317265Y-88037922D01*
X91282744Y-88091637D01*
X91143160Y-88218883D01*
X91014219Y-88389629D01*
X90918849Y-88581158D01*
X90918846Y-88581164D01*
X90860296Y-88786949D01*
X90860295Y-88786952D01*
X90840554Y-88999999D01*
X90840554Y-89000000D01*
X90860295Y-89213047D01*
X90860296Y-89213050D01*
X90918846Y-89418835D01*
X90918849Y-89418840D01*
X91014219Y-89610370D01*
X91143159Y-89781114D01*
X91301278Y-89925258D01*
X91301283Y-89925261D01*
X91301286Y-89925263D01*
X91483186Y-90037891D01*
X91483187Y-90037891D01*
X91483190Y-90037893D01*
X91682703Y-90115185D01*
X91893020Y-90154500D01*
X91893022Y-90154500D01*
X92106978Y-90154500D01*
X92106980Y-90154500D01*
X92317297Y-90115185D01*
X92516810Y-90037893D01*
X92698722Y-89925258D01*
X92856841Y-89781114D01*
X92985781Y-89610370D01*
X93081151Y-89418840D01*
X93081151Y-89418837D01*
X93081153Y-89418835D01*
X93120512Y-89280500D01*
X93139704Y-89213048D01*
X93159446Y-89000000D01*
X93157849Y-88982771D01*
X93139704Y-88786952D01*
X93139703Y-88786949D01*
X93081153Y-88581164D01*
X93081150Y-88581158D01*
X93067197Y-88553137D01*
X92985781Y-88389630D01*
X92856841Y-88218886D01*
X92717251Y-88091633D01*
X92680973Y-88031927D01*
X92682733Y-87962079D01*
X92717251Y-87908366D01*
X92856841Y-87781114D01*
X92985781Y-87610370D01*
X93081151Y-87418840D01*
X93081151Y-87418837D01*
X93081153Y-87418835D01*
X93130548Y-87245227D01*
X93139704Y-87213048D01*
X93159446Y-87000000D01*
X93143722Y-86830318D01*
X93139704Y-86786952D01*
X93139703Y-86786949D01*
X93081153Y-86581164D01*
X93081150Y-86581158D01*
X93063036Y-86544780D01*
X92985781Y-86389630D01*
X92856841Y-86218886D01*
X92717251Y-86091633D01*
X92680973Y-86031927D01*
X92682733Y-85962079D01*
X92717251Y-85908366D01*
X92856841Y-85781114D01*
X92985781Y-85610370D01*
X93081151Y-85418840D01*
X93081151Y-85418837D01*
X93081153Y-85418835D01*
X93139703Y-85213050D01*
X93139704Y-85213047D01*
X93159446Y-85000000D01*
X93159446Y-84999999D01*
X93139704Y-84786952D01*
X93139703Y-84786949D01*
X93081153Y-84581164D01*
X93081150Y-84581158D01*
X93079455Y-84577754D01*
X92985781Y-84389630D01*
X92856841Y-84218886D01*
X92698722Y-84074742D01*
X92698716Y-84074738D01*
X92698713Y-84074736D01*
X92516813Y-83962108D01*
X92516807Y-83962106D01*
X92317297Y-83884815D01*
X92106980Y-83845500D01*
X91893020Y-83845500D01*
X91682703Y-83884815D01*
X91621919Y-83908363D01*
X91483192Y-83962106D01*
X91483186Y-83962108D01*
X91301286Y-84074736D01*
X91301283Y-84074738D01*
X91301279Y-84074740D01*
X91301278Y-84074742D01*
X91147833Y-84214625D01*
X91143158Y-84218887D01*
X91023454Y-84377400D01*
X90967345Y-84419036D01*
X90897633Y-84423727D01*
X90836451Y-84389985D01*
X90803224Y-84328522D01*
X90800500Y-84302673D01*
X90800500Y-72782939D01*
X90820185Y-72715900D01*
X90836819Y-72695258D01*
X102485258Y-61046819D01*
X102546581Y-61013334D01*
X102572939Y-61010500D01*
X107041158Y-61010500D01*
X112526579Y-61010500D01*
X112593618Y-61030185D01*
X112639373Y-61082989D01*
X112649317Y-61152147D01*
X112642761Y-61177832D01*
X112625909Y-61223014D01*
X112625908Y-61223016D01*
X112619501Y-61282616D01*
X112619501Y-61282623D01*
X112619500Y-61282635D01*
X112619501Y-62850500D01*
X112599816Y-62917539D01*
X112547013Y-62963294D01*
X112495501Y-62974500D01*
X101138389Y-62974500D01*
X101077971Y-62986518D01*
X101017548Y-62998537D01*
X101017543Y-62998538D01*
X100983546Y-63012620D01*
X100970397Y-63018067D01*
X100948169Y-63027274D01*
X100903713Y-63045688D01*
X100893557Y-63052475D01*
X100893449Y-63052547D01*
X100801268Y-63114140D01*
X100757705Y-63157703D01*
X100714142Y-63201267D01*
X95114144Y-68801264D01*
X95114138Y-68801272D01*
X95079914Y-68852489D01*
X95079915Y-68852490D01*
X95045688Y-68903713D01*
X95038465Y-68921154D01*
X95038463Y-68921158D01*
X94998538Y-69017545D01*
X94998535Y-69017555D01*
X94974500Y-69138389D01*
X94974500Y-81121610D01*
X94998535Y-81242444D01*
X94998538Y-81242454D01*
X95012347Y-81275792D01*
X95012347Y-81275793D01*
X95045685Y-81356281D01*
X95045690Y-81356290D01*
X95075232Y-81400501D01*
X95075233Y-81400502D01*
X95114141Y-81458732D01*
X95114144Y-81458736D01*
X95205586Y-81550178D01*
X95205608Y-81550198D01*
X96891016Y-83235606D01*
X96891045Y-83235637D01*
X96981264Y-83325856D01*
X97017829Y-83350288D01*
X97017830Y-83350288D01*
X97017831Y-83350289D01*
X97083714Y-83394312D01*
X97161538Y-83426547D01*
X97197548Y-83441463D01*
X97257971Y-83453481D01*
X97318393Y-83465500D01*
X97318394Y-83465500D01*
X97972573Y-83465500D01*
X98039612Y-83485185D01*
X98071527Y-83514773D01*
X98143718Y-83610370D01*
X98164605Y-83638028D01*
X98326147Y-83785294D01*
X98326149Y-83785295D01*
X98326150Y-83785296D01*
X98511995Y-83900366D01*
X98512001Y-83900369D01*
X98576248Y-83925258D01*
X98715832Y-83979333D01*
X98762795Y-83988112D01*
X98825073Y-84019780D01*
X98860346Y-84080092D01*
X98857412Y-84149900D01*
X98817203Y-84207040D01*
X98762795Y-84231887D01*
X98715832Y-84240667D01*
X98715830Y-84240667D01*
X98715828Y-84240668D01*
X98512001Y-84319630D01*
X98511995Y-84319633D01*
X98326150Y-84434703D01*
X98164604Y-84581972D01*
X98032874Y-84756410D01*
X98032869Y-84756418D01*
X97935441Y-84952079D01*
X97935435Y-84952094D01*
X97875616Y-85162337D01*
X97875615Y-85162339D01*
X97855447Y-85379999D01*
X97855447Y-85380000D01*
X97875615Y-85597660D01*
X97875616Y-85597662D01*
X97935435Y-85807905D01*
X97935441Y-85807920D01*
X98032869Y-86003581D01*
X98032874Y-86003589D01*
X98099365Y-86091637D01*
X98164605Y-86178028D01*
X98326147Y-86325294D01*
X98326149Y-86325295D01*
X98326150Y-86325296D01*
X98511995Y-86440366D01*
X98512001Y-86440369D01*
X98565938Y-86461264D01*
X98715832Y-86519333D01*
X98762795Y-86528112D01*
X98825073Y-86559780D01*
X98860346Y-86620092D01*
X98857412Y-86689900D01*
X98817203Y-86747040D01*
X98762795Y-86771887D01*
X98715832Y-86780667D01*
X98715830Y-86780667D01*
X98715828Y-86780668D01*
X98512001Y-86859630D01*
X98511995Y-86859633D01*
X98326150Y-86974703D01*
X98164604Y-87121972D01*
X98032874Y-87296410D01*
X98032869Y-87296418D01*
X97935441Y-87492079D01*
X97935435Y-87492094D01*
X97875616Y-87702337D01*
X97875615Y-87702339D01*
X97855447Y-87919999D01*
X97855447Y-87920000D01*
X97875615Y-88137660D01*
X97875616Y-88137662D01*
X97935435Y-88347905D01*
X97935441Y-88347920D01*
X98032869Y-88543581D01*
X98032874Y-88543589D01*
X98143241Y-88689738D01*
X98164605Y-88718028D01*
X98326147Y-88865294D01*
X98326149Y-88865295D01*
X98326150Y-88865296D01*
X98511995Y-88980366D01*
X98512001Y-88980369D01*
X98562673Y-88999999D01*
X98715832Y-89059333D01*
X98762795Y-89068112D01*
X98825073Y-89099780D01*
X98860346Y-89160092D01*
X98857412Y-89229900D01*
X98817203Y-89287040D01*
X98762795Y-89311887D01*
X98715832Y-89320667D01*
X98715830Y-89320667D01*
X98715828Y-89320668D01*
X98512001Y-89399630D01*
X98511995Y-89399633D01*
X98326150Y-89514703D01*
X98164604Y-89661972D01*
X98032874Y-89836410D01*
X98032869Y-89836418D01*
X97935441Y-90032079D01*
X97935435Y-90032094D01*
X97875616Y-90242337D01*
X97875615Y-90242339D01*
X97855447Y-90459999D01*
X97855447Y-90460000D01*
X97875615Y-90677660D01*
X97875616Y-90677662D01*
X97935435Y-90887905D01*
X97935441Y-90887920D01*
X98032869Y-91083581D01*
X98032874Y-91083589D01*
X98148707Y-91236976D01*
X98164605Y-91258028D01*
X98326147Y-91405294D01*
X98326149Y-91405295D01*
X98326150Y-91405296D01*
X98511995Y-91520366D01*
X98511997Y-91520367D01*
X98511999Y-91520368D01*
X98668182Y-91580873D01*
X98723584Y-91623446D01*
X98747175Y-91689212D01*
X98731464Y-91757293D01*
X98681441Y-91806072D01*
X98623389Y-91820500D01*
X98313130Y-91820500D01*
X98313123Y-91820501D01*
X98253516Y-91826908D01*
X98118671Y-91877202D01*
X98118664Y-91877206D01*
X98003455Y-91963452D01*
X98003452Y-91963455D01*
X97917206Y-92078664D01*
X97917202Y-92078671D01*
X97866908Y-92213517D01*
X97860501Y-92273116D01*
X97860500Y-92273135D01*
X97860500Y-93726870D01*
X97860501Y-93726876D01*
X97866908Y-93786483D01*
X97917202Y-93921328D01*
X97917206Y-93921335D01*
X98003452Y-94036544D01*
X98003455Y-94036547D01*
X98118664Y-94122793D01*
X98118671Y-94122797D01*
X98253517Y-94173091D01*
X98253516Y-94173091D01*
X98303756Y-94178493D01*
X98368307Y-94205231D01*
X98408155Y-94262624D01*
X98414500Y-94301782D01*
X98414500Y-97991611D01*
X98438535Y-98112444D01*
X98438540Y-98112461D01*
X98485685Y-98226281D01*
X98485691Y-98226292D01*
X98514049Y-98268730D01*
X98514050Y-98268733D01*
X98514051Y-98268733D01*
X98554140Y-98328731D01*
X98554141Y-98328732D01*
X98554142Y-98328733D01*
X98641267Y-98415858D01*
X98641268Y-98415858D01*
X98648335Y-98422925D01*
X98648334Y-98422925D01*
X98648338Y-98422928D01*
X101771262Y-101545854D01*
X101771265Y-101545857D01*
X101817958Y-101577056D01*
X101873714Y-101614311D01*
X101987548Y-101661463D01*
X102108388Y-101685499D01*
X102108392Y-101685500D01*
X102108393Y-101685500D01*
X102108394Y-101685500D01*
X106935691Y-101685500D01*
X107002730Y-101705185D01*
X107048485Y-101757989D01*
X107059691Y-101809500D01*
X107059691Y-104359155D01*
X125875121Y-104359155D01*
X125875121Y-101809500D01*
X125894806Y-101742461D01*
X125947610Y-101696706D01*
X125999121Y-101685500D01*
X134830441Y-101685500D01*
X134897480Y-101705185D01*
X134943235Y-101757989D01*
X134953179Y-101827147D01*
X134924154Y-101890703D01*
X134918122Y-101897181D01*
X134801505Y-102013797D01*
X134665965Y-102207369D01*
X134665964Y-102207371D01*
X134566098Y-102421535D01*
X134566094Y-102421544D01*
X134504938Y-102649786D01*
X134504936Y-102649796D01*
X134484341Y-102885199D01*
X134484341Y-102885200D01*
X134504936Y-103120603D01*
X134504938Y-103120613D01*
X134566094Y-103348855D01*
X134566096Y-103348859D01*
X134566097Y-103348863D01*
X134570000Y-103357232D01*
X134665965Y-103563030D01*
X134665967Y-103563034D01*
X134774281Y-103717721D01*
X134801505Y-103756601D01*
X134968599Y-103923695D01*
X135065384Y-103991465D01*
X135162165Y-104059232D01*
X135166856Y-104061940D01*
X135165643Y-104064040D01*
X135210396Y-104103402D01*
X135227204Y-104145477D01*
X135238535Y-104202445D01*
X135238540Y-104202461D01*
X135285685Y-104316281D01*
X135285691Y-104316292D01*
X135314331Y-104359152D01*
X135314332Y-104359155D01*
X135314333Y-104359155D01*
X135354141Y-104418733D01*
X135445586Y-104510178D01*
X135445608Y-104510198D01*
X135801016Y-104865606D01*
X135801045Y-104865637D01*
X135891264Y-104955856D01*
X135891267Y-104955858D01*
X135942490Y-104990084D01*
X135993714Y-105024312D01*
X136074207Y-105057652D01*
X136107548Y-105071463D01*
X136167971Y-105083481D01*
X136228393Y-105095500D01*
X148211607Y-105095500D01*
X148272029Y-105083481D01*
X148332452Y-105071463D01*
X148332455Y-105071461D01*
X148332458Y-105071461D01*
X148365787Y-105057654D01*
X148365786Y-105057654D01*
X148365792Y-105057652D01*
X148446286Y-105024312D01*
X148497509Y-104990084D01*
X148497511Y-104990083D01*
X148510271Y-104981556D01*
X148548733Y-104955858D01*
X148635858Y-104868733D01*
X148635859Y-104868731D01*
X148642925Y-104861665D01*
X148642928Y-104861661D01*
X148938729Y-104565860D01*
X148938733Y-104565858D01*
X149025858Y-104478733D01*
X149094311Y-104376286D01*
X149141463Y-104262452D01*
X149165500Y-104141606D01*
X149165500Y-104141603D01*
X149166355Y-104137305D01*
X149198740Y-104075393D01*
X149216850Y-104059920D01*
X149217824Y-104059237D01*
X149217830Y-104059235D01*
X149411401Y-103923695D01*
X149578495Y-103756601D01*
X149714035Y-103563030D01*
X149813903Y-103348863D01*
X149875063Y-103120608D01*
X149895659Y-102885200D01*
X149875063Y-102649792D01*
X149848143Y-102549325D01*
X149849806Y-102479476D01*
X149880235Y-102429553D01*
X151898729Y-100411060D01*
X151898733Y-100411058D01*
X151985858Y-100323933D01*
X152039173Y-100244142D01*
X152054312Y-100221486D01*
X152101463Y-100107651D01*
X152125500Y-99986807D01*
X152125500Y-99863593D01*
X152125500Y-77724499D01*
X152145185Y-77657460D01*
X152197989Y-77611705D01*
X152249500Y-77600499D01*
X152447871Y-77600499D01*
X152447872Y-77600499D01*
X152507483Y-77594091D01*
X152642331Y-77543796D01*
X152757546Y-77457546D01*
X152843796Y-77342331D01*
X152894091Y-77207483D01*
X152900500Y-77147873D01*
X152900499Y-74852128D01*
X152894091Y-74792517D01*
X152885570Y-74769672D01*
X152843797Y-74657671D01*
X152843793Y-74657664D01*
X152757547Y-74542455D01*
X152757544Y-74542452D01*
X152642335Y-74456206D01*
X152642328Y-74456202D01*
X152507482Y-74405908D01*
X152507483Y-74405908D01*
X152447883Y-74399501D01*
X152447881Y-74399500D01*
X152447873Y-74399500D01*
X152447865Y-74399500D01*
X152424500Y-74399500D01*
X152357461Y-74379815D01*
X152311706Y-74327011D01*
X152300500Y-74275500D01*
X152300500Y-74021157D01*
X152300499Y-74021153D01*
X152298972Y-74013476D01*
X152269738Y-73866503D01*
X152209394Y-73720821D01*
X152209392Y-73720818D01*
X152209390Y-73720814D01*
X152121789Y-73589711D01*
X152121786Y-73589707D01*
X150200292Y-71668213D01*
X150200288Y-71668210D01*
X150069185Y-71580609D01*
X150069172Y-71580602D01*
X149923501Y-71520264D01*
X149923489Y-71520261D01*
X149768845Y-71489500D01*
X149768842Y-71489500D01*
X144532940Y-71489500D01*
X144465901Y-71469815D01*
X144445259Y-71453181D01*
X135539259Y-62547181D01*
X135505774Y-62485858D01*
X135510758Y-62416166D01*
X135552630Y-62360233D01*
X135618094Y-62335816D01*
X135626940Y-62335500D01*
X140471607Y-62335500D01*
X140532029Y-62323481D01*
X140592452Y-62311463D01*
X140639872Y-62291821D01*
X140706286Y-62264312D01*
X140772169Y-62220289D01*
X140808733Y-62195858D01*
X140895858Y-62108733D01*
X140895859Y-62108731D01*
X140902925Y-62101665D01*
X140902928Y-62101661D01*
X141762885Y-61241704D01*
X141762894Y-61241696D01*
X141768729Y-61235860D01*
X141768734Y-61235858D01*
X141855858Y-61148734D01*
X141924312Y-61046286D01*
X141971463Y-60932452D01*
X141990986Y-60834307D01*
X141995501Y-60811609D01*
X141995501Y-60688392D01*
X141995500Y-60688390D01*
X141995382Y-60687793D01*
X141993000Y-60663606D01*
X141993000Y-60039662D01*
X142012685Y-59972623D01*
X142051724Y-59934234D01*
X142066222Y-59925258D01*
X142224341Y-59781114D01*
X142353281Y-59610370D01*
X142448651Y-59418840D01*
X142448651Y-59418837D01*
X142448653Y-59418835D01*
X142507203Y-59213050D01*
X142507204Y-59213047D01*
X142526946Y-59000000D01*
X142526946Y-58999999D01*
X142507204Y-58786952D01*
X142507203Y-58786949D01*
X142448653Y-58581164D01*
X142448650Y-58581158D01*
X142425553Y-58534772D01*
X142353281Y-58389630D01*
X142224341Y-58218886D01*
X142066222Y-58074742D01*
X142066216Y-58074738D01*
X142066213Y-58074736D01*
X141884313Y-57962108D01*
X141884307Y-57962106D01*
X141848249Y-57948137D01*
X141684797Y-57884815D01*
X141474480Y-57845500D01*
X141260520Y-57845500D01*
X141050203Y-57884815D01*
X140991773Y-57907451D01*
X140850692Y-57962106D01*
X140850686Y-57962108D01*
X140668786Y-58074736D01*
X140668783Y-58074738D01*
X140668779Y-58074740D01*
X140668778Y-58074742D01*
X140604896Y-58132977D01*
X140510657Y-58218887D01*
X140466454Y-58277422D01*
X140410344Y-58319058D01*
X140340632Y-58323749D01*
X140279451Y-58290007D01*
X140268546Y-58277422D01*
X140224342Y-58218887D01*
X140220295Y-58215198D01*
X140066222Y-58074742D01*
X140066216Y-58074738D01*
X140066213Y-58074736D01*
X139884313Y-57962108D01*
X139884307Y-57962106D01*
X139848249Y-57948137D01*
X139684797Y-57884815D01*
X139474480Y-57845500D01*
X139260520Y-57845500D01*
X139050203Y-57884815D01*
X138991773Y-57907451D01*
X138850692Y-57962106D01*
X138850686Y-57962108D01*
X138668786Y-58074736D01*
X138668783Y-58074738D01*
X138668779Y-58074740D01*
X138668778Y-58074742D01*
X138604896Y-58132977D01*
X138510657Y-58218887D01*
X138466454Y-58277422D01*
X138410344Y-58319058D01*
X138340632Y-58323749D01*
X138279451Y-58290007D01*
X138268546Y-58277422D01*
X138230579Y-58227147D01*
X138224341Y-58218886D01*
X138221019Y-58215858D01*
X138066222Y-58074742D01*
X138066221Y-58074741D01*
X138050728Y-58065148D01*
X138004093Y-58013120D01*
X137995329Y-57981645D01*
X137994189Y-57981872D01*
X137993000Y-57975894D01*
X137987025Y-57945857D01*
X137968963Y-57855049D01*
X137942684Y-57791607D01*
X137940614Y-57786610D01*
X137921814Y-57741221D01*
X137921813Y-57741220D01*
X137921811Y-57741214D01*
X137907629Y-57719989D01*
X137853359Y-57638768D01*
X137840480Y-57625889D01*
X137766233Y-57551642D01*
X137766232Y-57551641D01*
X137282927Y-57068337D01*
X137282925Y-57068334D01*
X137282925Y-57068335D01*
X137275858Y-57061268D01*
X137275858Y-57061267D01*
X137188733Y-56974142D01*
X137188732Y-56974141D01*
X137188731Y-56974140D01*
X137137509Y-56939915D01*
X137086287Y-56905689D01*
X137086286Y-56905688D01*
X137086283Y-56905686D01*
X137086280Y-56905685D01*
X137005792Y-56872347D01*
X136972453Y-56858537D01*
X136962427Y-56856543D01*
X136912029Y-56846518D01*
X136851610Y-56834500D01*
X136851607Y-56834500D01*
X136851606Y-56834500D01*
X119394500Y-56834500D01*
X119327461Y-56814815D01*
X119281706Y-56762011D01*
X119270500Y-56710500D01*
X119270499Y-55406629D01*
X119270498Y-55406623D01*
X119270497Y-55406616D01*
X119264091Y-55347017D01*
X119213796Y-55212169D01*
X119213795Y-55212168D01*
X119213793Y-55212164D01*
X119127547Y-55096955D01*
X119127544Y-55096952D01*
X119012335Y-55010706D01*
X119012328Y-55010702D01*
X118877486Y-54960410D01*
X118877485Y-54960409D01*
X118877483Y-54960409D01*
X118817873Y-54954000D01*
X118817863Y-54954000D01*
X118272130Y-54954000D01*
X118272119Y-54954001D01*
X118233253Y-54958179D01*
X118206748Y-54958179D01*
X118167874Y-54954000D01*
X117622130Y-54954000D01*
X117622119Y-54954001D01*
X117583253Y-54958179D01*
X117556748Y-54958179D01*
X117517875Y-54954000D01*
X117517873Y-54954000D01*
X117330342Y-54954000D01*
X117263303Y-54934315D01*
X117217548Y-54881511D01*
X117208725Y-54854191D01*
X117196464Y-54792555D01*
X117196463Y-54792548D01*
X117149311Y-54678714D01*
X117149310Y-54678713D01*
X117149307Y-54678707D01*
X117080858Y-54576267D01*
X117080855Y-54576263D01*
X116990637Y-54486045D01*
X116990606Y-54486016D01*
X116614907Y-54110317D01*
X116599486Y-54091526D01*
X116545861Y-54011271D01*
X116545855Y-54011263D01*
X116458736Y-53924144D01*
X116458732Y-53924141D01*
X116356292Y-53855692D01*
X116356283Y-53855687D01*
X116242454Y-53808538D01*
X116242455Y-53808538D01*
X116242452Y-53808537D01*
X116242448Y-53808536D01*
X116242444Y-53808535D01*
X116121610Y-53784500D01*
X116121606Y-53784500D01*
X93811607Y-53784500D01*
X93688393Y-53784500D01*
X93688389Y-53784500D01*
X93627971Y-53796518D01*
X93567558Y-53808535D01*
X93567543Y-53808538D01*
X93533546Y-53822620D01*
X93520397Y-53828067D01*
X93498169Y-53837274D01*
X93453713Y-53855688D01*
X93443557Y-53862475D01*
X93443449Y-53862547D01*
X93351268Y-53924140D01*
X93307705Y-53967703D01*
X93264142Y-54011267D01*
X89986644Y-57288764D01*
X89986638Y-57288772D01*
X89918190Y-57391208D01*
X89918188Y-57391213D01*
X89887196Y-57466036D01*
X89887196Y-57466037D01*
X89871038Y-57505045D01*
X89871035Y-57505055D01*
X89847000Y-57625889D01*
X89847000Y-57960337D01*
X89827315Y-58027376D01*
X89788278Y-58065764D01*
X89773776Y-58074743D01*
X89615660Y-58218884D01*
X89486719Y-58389629D01*
X89391349Y-58581158D01*
X89391346Y-58581164D01*
X89332796Y-58786949D01*
X89332795Y-58786952D01*
X89313054Y-58999999D01*
X89313054Y-59000000D01*
X89332795Y-59213047D01*
X89332796Y-59213050D01*
X89391346Y-59418835D01*
X89391349Y-59418841D01*
X89472500Y-59581814D01*
X89486719Y-59610370D01*
X89615659Y-59781114D01*
X89773778Y-59925258D01*
X89773783Y-59925261D01*
X89773786Y-59925263D01*
X89955686Y-60037891D01*
X89955687Y-60037891D01*
X89955690Y-60037893D01*
X90155203Y-60115185D01*
X90365520Y-60154500D01*
X90365522Y-60154500D01*
X90579478Y-60154500D01*
X90579480Y-60154500D01*
X90789797Y-60115185D01*
X90989310Y-60037893D01*
X91171222Y-59925258D01*
X91329341Y-59781114D01*
X91373546Y-59722576D01*
X91429655Y-59680941D01*
X91499367Y-59676250D01*
X91560549Y-59709992D01*
X91571452Y-59722575D01*
X91615659Y-59781114D01*
X91773778Y-59925258D01*
X91773783Y-59925261D01*
X91773786Y-59925263D01*
X91955686Y-60037891D01*
X91955687Y-60037891D01*
X91955690Y-60037893D01*
X92155203Y-60115185D01*
X92365520Y-60154500D01*
X92365522Y-60154500D01*
X92579478Y-60154500D01*
X92579480Y-60154500D01*
X92789797Y-60115185D01*
X92989310Y-60037893D01*
X93171222Y-59925258D01*
X93329341Y-59781114D01*
X93373546Y-59722576D01*
X93429655Y-59680941D01*
X93499367Y-59676250D01*
X93560549Y-59709992D01*
X93571452Y-59722575D01*
X93615659Y-59781114D01*
X93773778Y-59925258D01*
X93773783Y-59925261D01*
X93773786Y-59925263D01*
X93854054Y-59974963D01*
X93900690Y-60026991D01*
X93903337Y-60032936D01*
X93918184Y-60068778D01*
X93918190Y-60068790D01*
X93946574Y-60111268D01*
X93946575Y-60111269D01*
X93986640Y-60171231D01*
X93986641Y-60171232D01*
X93986642Y-60171233D01*
X94073767Y-60258358D01*
X94073768Y-60258358D01*
X94080835Y-60265425D01*
X94080834Y-60265425D01*
X94080837Y-60265427D01*
X94494141Y-60678732D01*
X94494142Y-60678733D01*
X94581267Y-60765858D01*
X94581268Y-60765859D01*
X94683707Y-60834307D01*
X94683713Y-60834310D01*
X94683714Y-60834311D01*
X94797548Y-60881463D01*
X94857971Y-60893481D01*
X94918393Y-60905500D01*
X94918394Y-60905500D01*
X100063061Y-60905500D01*
X100130100Y-60925185D01*
X100175855Y-60977989D01*
X100185799Y-61047147D01*
X100156774Y-61110703D01*
X100150742Y-61117180D01*
X97472376Y-63795546D01*
X89472270Y-71795651D01*
X89378213Y-71889707D01*
X89378210Y-71889711D01*
X89290609Y-72020814D01*
X89290602Y-72020827D01*
X89230264Y-72166498D01*
X89230261Y-72166510D01*
X89199500Y-72321153D01*
X89199500Y-86617060D01*
X89179815Y-86684099D01*
X89163181Y-86704741D01*
X88784741Y-87083181D01*
X88723418Y-87116666D01*
X88697060Y-87119500D01*
X84720722Y-87119500D01*
X84653683Y-87099815D01*
X84637184Y-87087137D01*
X84513853Y-86974706D01*
X84513851Y-86974704D01*
X84328004Y-86859633D01*
X84327998Y-86859630D01*
X84167351Y-86797396D01*
X84124168Y-86780667D01*
X84077204Y-86771887D01*
X84014926Y-86740221D01*
X83979653Y-86679908D01*
X83982587Y-86610100D01*
X84022796Y-86552960D01*
X84077204Y-86528112D01*
X84124168Y-86519333D01*
X84328001Y-86440368D01*
X84513853Y-86325294D01*
X84572870Y-86271492D01*
X84637184Y-86212863D01*
X84699988Y-86182246D01*
X84720722Y-86180500D01*
X86374602Y-86180500D01*
X86441641Y-86200185D01*
X86458140Y-86212863D01*
X86533958Y-86281980D01*
X86533960Y-86281982D01*
X86603915Y-86325296D01*
X86707363Y-86389348D01*
X86897544Y-86463024D01*
X87098024Y-86500500D01*
X87098026Y-86500500D01*
X87301974Y-86500500D01*
X87301976Y-86500500D01*
X87502456Y-86463024D01*
X87692637Y-86389348D01*
X87866041Y-86281981D01*
X88016764Y-86144579D01*
X88139673Y-85981821D01*
X88230582Y-85799250D01*
X88286397Y-85603083D01*
X88305215Y-85400000D01*
X88286397Y-85196917D01*
X88230582Y-85000750D01*
X88230208Y-84999999D01*
X88160455Y-84859915D01*
X88139673Y-84818179D01*
X88080704Y-84740091D01*
X88016762Y-84655418D01*
X87866041Y-84518019D01*
X87866039Y-84518017D01*
X87692642Y-84410655D01*
X87692635Y-84410651D01*
X87597546Y-84373814D01*
X87502456Y-84336976D01*
X87301976Y-84299500D01*
X87098024Y-84299500D01*
X86897544Y-84336976D01*
X86897541Y-84336976D01*
X86897541Y-84336977D01*
X86707364Y-84410651D01*
X86707357Y-84410655D01*
X86533962Y-84518016D01*
X86533959Y-84518019D01*
X86502016Y-84547138D01*
X86439215Y-84577754D01*
X86418480Y-84579500D01*
X84720722Y-84579500D01*
X84653683Y-84559815D01*
X84637184Y-84547137D01*
X84513853Y-84434706D01*
X84513851Y-84434704D01*
X84328004Y-84319633D01*
X84327998Y-84319630D01*
X84167351Y-84257396D01*
X84124168Y-84240667D01*
X84077204Y-84231887D01*
X84014926Y-84200221D01*
X83979653Y-84139908D01*
X83982587Y-84070100D01*
X84022796Y-84012960D01*
X84077204Y-83988112D01*
X84124168Y-83979333D01*
X84328001Y-83900368D01*
X84513853Y-83785294D01*
X84572870Y-83731492D01*
X84637184Y-83672863D01*
X84699988Y-83642246D01*
X84720722Y-83640500D01*
X86330724Y-83640500D01*
X86397763Y-83660185D01*
X86414262Y-83672863D01*
X86533958Y-83781980D01*
X86533960Y-83781982D01*
X86633141Y-83843392D01*
X86707363Y-83889348D01*
X86897544Y-83963024D01*
X87098024Y-84000500D01*
X87098026Y-84000500D01*
X87301974Y-84000500D01*
X87301976Y-84000500D01*
X87502456Y-83963024D01*
X87692637Y-83889348D01*
X87866041Y-83781981D01*
X88016764Y-83644579D01*
X88139673Y-83481821D01*
X88230582Y-83299250D01*
X88286397Y-83103083D01*
X88305215Y-82900000D01*
X88286397Y-82696917D01*
X88230582Y-82500750D01*
X88139673Y-82318179D01*
X88064691Y-82218887D01*
X88016762Y-82155418D01*
X87866041Y-82018019D01*
X87866039Y-82018017D01*
X87692642Y-81910655D01*
X87692635Y-81910651D01*
X87540613Y-81851758D01*
X87502456Y-81836976D01*
X87301976Y-81799500D01*
X87098024Y-81799500D01*
X86897544Y-81836976D01*
X86897541Y-81836976D01*
X86897541Y-81836977D01*
X86707364Y-81910651D01*
X86707362Y-81910652D01*
X86638611Y-81953221D01*
X86533959Y-82018019D01*
X86533955Y-82018021D01*
X86529264Y-82020927D01*
X86463986Y-82039500D01*
X84720722Y-82039500D01*
X84653683Y-82019815D01*
X84637184Y-82007137D01*
X84513853Y-81894706D01*
X84513851Y-81894704D01*
X84328004Y-81779633D01*
X84327998Y-81779630D01*
X84167351Y-81717396D01*
X84124168Y-81700667D01*
X84077204Y-81691887D01*
X84014926Y-81660221D01*
X83979653Y-81599908D01*
X83982587Y-81530100D01*
X84022796Y-81472960D01*
X84077204Y-81448112D01*
X84124168Y-81439333D01*
X84328001Y-81360368D01*
X84513853Y-81245294D01*
X84583301Y-81181983D01*
X84637184Y-81132863D01*
X84699988Y-81102246D01*
X84720722Y-81100500D01*
X86396541Y-81100500D01*
X86463580Y-81120185D01*
X86480072Y-81132856D01*
X86533959Y-81181981D01*
X86707363Y-81289348D01*
X86897544Y-81363024D01*
X87098024Y-81400500D01*
X87098026Y-81400500D01*
X87301974Y-81400500D01*
X87301976Y-81400500D01*
X87502456Y-81363024D01*
X87692637Y-81289348D01*
X87866041Y-81181981D01*
X88016764Y-81044579D01*
X88139673Y-80881821D01*
X88230582Y-80699250D01*
X88286397Y-80503083D01*
X88305215Y-80300000D01*
X88286397Y-80096917D01*
X88230582Y-79900750D01*
X88139673Y-79718179D01*
X88036663Y-79581771D01*
X88016762Y-79555418D01*
X87866041Y-79418019D01*
X87866039Y-79418017D01*
X87692642Y-79310655D01*
X87692635Y-79310651D01*
X87597546Y-79273814D01*
X87502456Y-79236976D01*
X87301976Y-79199500D01*
X87098024Y-79199500D01*
X86897544Y-79236976D01*
X86897541Y-79236976D01*
X86897541Y-79236977D01*
X86707364Y-79310651D01*
X86707357Y-79310655D01*
X86533962Y-79418016D01*
X86533959Y-79418019D01*
X86480077Y-79467138D01*
X86417276Y-79497754D01*
X86396541Y-79499500D01*
X84720722Y-79499500D01*
X84653683Y-79479815D01*
X84637184Y-79467137D01*
X84513853Y-79354706D01*
X84513851Y-79354704D01*
X84328004Y-79239633D01*
X84327998Y-79239630D01*
X84167351Y-79177396D01*
X84124168Y-79160667D01*
X84077204Y-79151887D01*
X84014926Y-79120221D01*
X83979653Y-79059908D01*
X83982587Y-78990100D01*
X84022796Y-78932960D01*
X84077204Y-78908112D01*
X84124168Y-78899333D01*
X84328001Y-78820368D01*
X84513853Y-78705294D01*
X84575003Y-78649548D01*
X84637184Y-78592863D01*
X84699988Y-78562246D01*
X84720722Y-78560500D01*
X86352663Y-78560500D01*
X86419702Y-78580185D01*
X86436201Y-78592863D01*
X86533958Y-78681980D01*
X86533960Y-78681982D01*
X86571612Y-78705295D01*
X86707363Y-78789348D01*
X86897544Y-78863024D01*
X87098024Y-78900500D01*
X87098026Y-78900500D01*
X87301974Y-78900500D01*
X87301976Y-78900500D01*
X87502456Y-78863024D01*
X87692637Y-78789348D01*
X87866041Y-78681981D01*
X87997384Y-78562246D01*
X88016762Y-78544581D01*
X88016764Y-78544579D01*
X88139673Y-78381821D01*
X88230582Y-78199250D01*
X88286397Y-78003083D01*
X88305215Y-77800000D01*
X88301508Y-77759999D01*
X88286397Y-77596917D01*
X88285592Y-77594089D01*
X88230582Y-77400750D01*
X88229119Y-77397812D01*
X88161702Y-77262419D01*
X88139673Y-77218179D01*
X88016764Y-77055421D01*
X88016762Y-77055418D01*
X87866041Y-76918019D01*
X87866039Y-76918017D01*
X87692642Y-76810655D01*
X87692635Y-76810651D01*
X87561888Y-76760000D01*
X87502456Y-76736976D01*
X87301976Y-76699500D01*
X87098024Y-76699500D01*
X86897544Y-76736976D01*
X86897541Y-76736976D01*
X86897541Y-76736977D01*
X86707364Y-76810651D01*
X86707357Y-76810655D01*
X86533962Y-76918016D01*
X86523955Y-76927139D01*
X86461150Y-76957755D01*
X86440418Y-76959500D01*
X84720722Y-76959500D01*
X84653683Y-76939815D01*
X84637184Y-76927137D01*
X84513853Y-76814706D01*
X84513851Y-76814704D01*
X84328004Y-76699633D01*
X84327998Y-76699630D01*
X84167351Y-76637396D01*
X84124168Y-76620667D01*
X83909297Y-76580500D01*
X83690703Y-76580500D01*
X83475832Y-76620667D01*
X83475829Y-76620667D01*
X83475829Y-76620668D01*
X83272001Y-76699630D01*
X83271995Y-76699633D01*
X83086150Y-76814703D01*
X82924604Y-76961972D01*
X82792874Y-77136410D01*
X82792869Y-77136418D01*
X82695441Y-77332079D01*
X82695435Y-77332094D01*
X82635616Y-77542337D01*
X82635615Y-77542339D01*
X82615447Y-77759999D01*
X79458344Y-77759999D01*
X79489753Y-62073085D01*
X79509572Y-62006087D01*
X79562467Y-61960438D01*
X79613083Y-61949337D01*
X86920000Y-61910000D01*
X86928672Y-47999997D01*
X105192677Y-47999997D01*
X105192677Y-48000002D01*
X105211929Y-48220062D01*
X105211930Y-48220070D01*
X105269104Y-48433445D01*
X105269105Y-48433447D01*
X105269106Y-48433450D01*
X105302382Y-48504811D01*
X105362466Y-48633662D01*
X105362468Y-48633666D01*
X105489170Y-48814615D01*
X105489175Y-48814621D01*
X105645378Y-48970824D01*
X105645384Y-48970829D01*
X105826333Y-49097531D01*
X105826335Y-49097532D01*
X105826338Y-49097534D01*
X106026550Y-49190894D01*
X106239932Y-49248070D01*
X106397123Y-49261822D01*
X106459998Y-49267323D01*
X106460000Y-49267323D01*
X106460002Y-49267323D01*
X106515017Y-49262509D01*
X106680068Y-49248070D01*
X106893450Y-49190894D01*
X107093662Y-49097534D01*
X107274620Y-48970826D01*
X107430826Y-48814620D01*
X107557534Y-48633662D01*
X107617618Y-48504811D01*
X107663790Y-48452371D01*
X107730983Y-48433219D01*
X107797865Y-48453435D01*
X107842382Y-48504811D01*
X107902464Y-48633658D01*
X107902468Y-48633666D01*
X108029170Y-48814615D01*
X108029175Y-48814621D01*
X108185378Y-48970824D01*
X108185384Y-48970829D01*
X108366333Y-49097531D01*
X108366335Y-49097532D01*
X108366338Y-49097534D01*
X108566550Y-49190894D01*
X108779932Y-49248070D01*
X108937123Y-49261822D01*
X108999998Y-49267323D01*
X109000000Y-49267323D01*
X109000002Y-49267323D01*
X109055017Y-49262509D01*
X109220068Y-49248070D01*
X109433450Y-49190894D01*
X109633662Y-49097534D01*
X109814620Y-48970826D01*
X109970826Y-48814620D01*
X110097534Y-48633662D01*
X110157618Y-48504811D01*
X110203790Y-48452371D01*
X110270983Y-48433219D01*
X110337865Y-48453435D01*
X110382382Y-48504811D01*
X110442464Y-48633658D01*
X110442468Y-48633666D01*
X110569170Y-48814615D01*
X110569175Y-48814621D01*
X110725378Y-48970824D01*
X110725384Y-48970829D01*
X110906333Y-49097531D01*
X110906335Y-49097532D01*
X110906338Y-49097534D01*
X111106550Y-49190894D01*
X111319932Y-49248070D01*
X111477123Y-49261822D01*
X111539998Y-49267323D01*
X111540000Y-49267323D01*
X111540002Y-49267323D01*
X111595017Y-49262509D01*
X111760068Y-49248070D01*
X111973450Y-49190894D01*
X112173662Y-49097534D01*
X112354620Y-48970826D01*
X112510826Y-48814620D01*
X112637534Y-48633662D01*
X112697618Y-48504811D01*
X112743790Y-48452371D01*
X112810983Y-48433219D01*
X112877865Y-48453435D01*
X112922382Y-48504811D01*
X112982464Y-48633658D01*
X112982468Y-48633666D01*
X113109170Y-48814615D01*
X113109175Y-48814621D01*
X113265378Y-48970824D01*
X113265384Y-48970829D01*
X113446333Y-49097531D01*
X113446335Y-49097532D01*
X113446338Y-49097534D01*
X113646550Y-49190894D01*
X113859932Y-49248070D01*
X114017123Y-49261822D01*
X114079998Y-49267323D01*
X114080000Y-49267323D01*
X114080002Y-49267323D01*
X114135017Y-49262509D01*
X114300068Y-49248070D01*
X114513450Y-49190894D01*
X114713662Y-49097534D01*
X114894620Y-48970826D01*
X115050826Y-48814620D01*
X115177534Y-48633662D01*
X115237618Y-48504811D01*
X115283790Y-48452371D01*
X115350983Y-48433219D01*
X115417865Y-48453435D01*
X115462382Y-48504811D01*
X115522464Y-48633658D01*
X115522468Y-48633666D01*
X115649170Y-48814615D01*
X115649175Y-48814621D01*
X115805378Y-48970824D01*
X115805384Y-48970829D01*
X115986333Y-49097531D01*
X115986335Y-49097532D01*
X115986338Y-49097534D01*
X116186550Y-49190894D01*
X116399932Y-49248070D01*
X116557123Y-49261822D01*
X116619998Y-49267323D01*
X116620000Y-49267323D01*
X116620002Y-49267323D01*
X116675017Y-49262509D01*
X116840068Y-49248070D01*
X117053450Y-49190894D01*
X117253662Y-49097534D01*
X117434620Y-48970826D01*
X117590826Y-48814620D01*
X117717534Y-48633662D01*
X117777618Y-48504811D01*
X117823790Y-48452371D01*
X117890983Y-48433219D01*
X117957865Y-48453435D01*
X118002382Y-48504811D01*
X118062464Y-48633658D01*
X118062468Y-48633666D01*
X118189170Y-48814615D01*
X118189175Y-48814621D01*
X118345378Y-48970824D01*
X118345384Y-48970829D01*
X118526333Y-49097531D01*
X118526335Y-49097532D01*
X118526338Y-49097534D01*
X118726550Y-49190894D01*
X118939932Y-49248070D01*
X119097123Y-49261822D01*
X119159998Y-49267323D01*
X119160000Y-49267323D01*
X119160002Y-49267323D01*
X119215017Y-49262509D01*
X119380068Y-49248070D01*
X119593450Y-49190894D01*
X119793662Y-49097534D01*
X119974620Y-48970826D01*
X120130826Y-48814620D01*
X120257534Y-48633662D01*
X120317618Y-48504811D01*
X120363790Y-48452371D01*
X120430983Y-48433219D01*
X120497865Y-48453435D01*
X120542382Y-48504811D01*
X120602464Y-48633658D01*
X120602468Y-48633666D01*
X120729170Y-48814615D01*
X120729175Y-48814621D01*
X120885378Y-48970824D01*
X120885384Y-48970829D01*
X121066333Y-49097531D01*
X121066335Y-49097532D01*
X121066338Y-49097534D01*
X121266550Y-49190894D01*
X121479932Y-49248070D01*
X121637123Y-49261822D01*
X121699998Y-49267323D01*
X121700000Y-49267323D01*
X121700002Y-49267323D01*
X121755017Y-49262509D01*
X121920068Y-49248070D01*
X122133450Y-49190894D01*
X122333662Y-49097534D01*
X122514620Y-48970826D01*
X122670826Y-48814620D01*
X122797534Y-48633662D01*
X122890894Y-48433450D01*
X122948070Y-48220068D01*
X122967323Y-48000000D01*
X122967323Y-47999997D01*
X125512677Y-47999997D01*
X125512677Y-48000002D01*
X125531929Y-48220062D01*
X125531930Y-48220070D01*
X125589104Y-48433445D01*
X125589105Y-48433447D01*
X125589106Y-48433450D01*
X125622382Y-48504811D01*
X125682466Y-48633662D01*
X125682468Y-48633666D01*
X125809170Y-48814615D01*
X125809175Y-48814621D01*
X125943181Y-48948627D01*
X125976666Y-49009950D01*
X125979500Y-49036308D01*
X125979500Y-50982323D01*
X125959815Y-51049362D01*
X125954454Y-51057050D01*
X125840327Y-51208178D01*
X125749422Y-51390739D01*
X125749417Y-51390752D01*
X125693602Y-51586917D01*
X125674785Y-51789999D01*
X125674785Y-51790000D01*
X125693602Y-51993082D01*
X125749417Y-52189247D01*
X125749422Y-52189260D01*
X125840327Y-52371821D01*
X125963237Y-52534581D01*
X126113958Y-52671980D01*
X126113960Y-52671982D01*
X126210861Y-52731980D01*
X126287363Y-52779348D01*
X126477544Y-52853024D01*
X126678024Y-52890500D01*
X126678026Y-52890500D01*
X126881974Y-52890500D01*
X126881976Y-52890500D01*
X127082456Y-52853024D01*
X127272637Y-52779348D01*
X127446041Y-52671981D01*
X127596764Y-52534579D01*
X127719673Y-52371821D01*
X127810582Y-52189250D01*
X127866397Y-51993083D01*
X127885215Y-51790000D01*
X127866397Y-51586917D01*
X127810582Y-51390750D01*
X127719673Y-51208179D01*
X127605546Y-51057050D01*
X127580854Y-50991688D01*
X127580500Y-50982323D01*
X127580500Y-49036308D01*
X127600185Y-48969269D01*
X127616819Y-48948627D01*
X127666819Y-48898627D01*
X127750826Y-48814620D01*
X127877534Y-48633662D01*
X127937618Y-48504811D01*
X127983790Y-48452371D01*
X128050983Y-48433219D01*
X128117865Y-48453435D01*
X128162382Y-48504811D01*
X128222464Y-48633658D01*
X128222468Y-48633666D01*
X128349170Y-48814615D01*
X128349175Y-48814621D01*
X128433181Y-48898627D01*
X128466666Y-48959950D01*
X128469500Y-48986308D01*
X128469500Y-51135018D01*
X128449815Y-51202057D01*
X128444454Y-51209745D01*
X128400327Y-51268178D01*
X128309422Y-51450739D01*
X128309417Y-51450752D01*
X128253602Y-51646917D01*
X128234785Y-51849999D01*
X128234785Y-51850000D01*
X128253602Y-52053082D01*
X128309417Y-52249247D01*
X128309422Y-52249260D01*
X128400327Y-52431821D01*
X128523237Y-52594581D01*
X128673958Y-52731980D01*
X128673960Y-52731982D01*
X128750453Y-52779344D01*
X128847363Y-52839348D01*
X129037544Y-52913024D01*
X129238024Y-52950500D01*
X129238026Y-52950500D01*
X129441974Y-52950500D01*
X129441976Y-52950500D01*
X129642456Y-52913024D01*
X129832637Y-52839348D01*
X130006041Y-52731981D01*
X130156764Y-52594579D01*
X130279673Y-52431821D01*
X130370582Y-52249250D01*
X130426397Y-52053083D01*
X130445215Y-51850000D01*
X130426397Y-51646917D01*
X130370582Y-51450750D01*
X130340700Y-51390739D01*
X130279671Y-51268175D01*
X130195546Y-51156775D01*
X130170854Y-51091414D01*
X130170500Y-51082049D01*
X130170500Y-48986308D01*
X130190185Y-48919269D01*
X130206819Y-48898627D01*
X130290826Y-48814620D01*
X130417534Y-48633662D01*
X130510894Y-48433450D01*
X130568070Y-48220068D01*
X130587323Y-48000000D01*
X130568070Y-47779932D01*
X130510894Y-47566550D01*
X130417534Y-47366339D01*
X130290826Y-47185380D01*
X130134620Y-47029174D01*
X130134616Y-47029171D01*
X130134615Y-47029170D01*
X129953666Y-46902468D01*
X129953662Y-46902466D01*
X129953660Y-46902465D01*
X129753450Y-46809106D01*
X129753447Y-46809105D01*
X129753445Y-46809104D01*
X129540070Y-46751930D01*
X129540062Y-46751929D01*
X129320002Y-46732677D01*
X129319998Y-46732677D01*
X129099937Y-46751929D01*
X129099929Y-46751930D01*
X128886554Y-46809104D01*
X128886548Y-46809107D01*
X128686340Y-46902465D01*
X128686338Y-46902466D01*
X128505377Y-47029175D01*
X128349175Y-47185377D01*
X128222466Y-47366338D01*
X128222465Y-47366340D01*
X128162382Y-47495189D01*
X128116209Y-47547628D01*
X128049016Y-47566780D01*
X127982135Y-47546564D01*
X127937618Y-47495189D01*
X127877534Y-47366340D01*
X127877533Y-47366338D01*
X127750827Y-47185381D01*
X127750823Y-47185377D01*
X127594620Y-47029174D01*
X127594616Y-47029171D01*
X127594615Y-47029170D01*
X127413666Y-46902468D01*
X127413662Y-46902466D01*
X127413660Y-46902465D01*
X127213450Y-46809106D01*
X127213447Y-46809105D01*
X127213445Y-46809104D01*
X127000070Y-46751930D01*
X127000062Y-46751929D01*
X126780002Y-46732677D01*
X126779998Y-46732677D01*
X126559937Y-46751929D01*
X126559929Y-46751930D01*
X126346554Y-46809104D01*
X126346548Y-46809107D01*
X126146340Y-46902465D01*
X126146338Y-46902466D01*
X125965377Y-47029175D01*
X125809175Y-47185377D01*
X125682466Y-47366338D01*
X125682465Y-47366340D01*
X125589107Y-47566548D01*
X125589104Y-47566554D01*
X125531930Y-47779929D01*
X125531929Y-47779937D01*
X125512677Y-47999997D01*
X122967323Y-47999997D01*
X122948070Y-47779932D01*
X122890894Y-47566550D01*
X122797534Y-47366339D01*
X122670826Y-47185380D01*
X122514620Y-47029174D01*
X122514616Y-47029171D01*
X122514615Y-47029170D01*
X122333666Y-46902468D01*
X122333662Y-46902466D01*
X122333660Y-46902465D01*
X122133450Y-46809106D01*
X122133447Y-46809105D01*
X122133445Y-46809104D01*
X121920070Y-46751930D01*
X121920062Y-46751929D01*
X121700002Y-46732677D01*
X121699998Y-46732677D01*
X121479937Y-46751929D01*
X121479929Y-46751930D01*
X121266554Y-46809104D01*
X121266548Y-46809107D01*
X121066340Y-46902465D01*
X121066338Y-46902466D01*
X120885377Y-47029175D01*
X120729175Y-47185377D01*
X120602466Y-47366338D01*
X120602465Y-47366340D01*
X120542382Y-47495189D01*
X120496209Y-47547628D01*
X120429016Y-47566780D01*
X120362135Y-47546564D01*
X120317618Y-47495189D01*
X120257534Y-47366340D01*
X120257533Y-47366338D01*
X120130827Y-47185381D01*
X120130823Y-47185377D01*
X119974620Y-47029174D01*
X119974616Y-47029171D01*
X119974615Y-47029170D01*
X119793666Y-46902468D01*
X119793662Y-46902466D01*
X119793660Y-46902465D01*
X119593450Y-46809106D01*
X119593447Y-46809105D01*
X119593445Y-46809104D01*
X119380070Y-46751930D01*
X119380062Y-46751929D01*
X119160002Y-46732677D01*
X119159998Y-46732677D01*
X118939937Y-46751929D01*
X118939929Y-46751930D01*
X118726554Y-46809104D01*
X118726548Y-46809107D01*
X118526340Y-46902465D01*
X118526338Y-46902466D01*
X118345377Y-47029175D01*
X118189175Y-47185377D01*
X118062466Y-47366338D01*
X118062465Y-47366340D01*
X118002382Y-47495189D01*
X117956209Y-47547628D01*
X117889016Y-47566780D01*
X117822135Y-47546564D01*
X117777618Y-47495189D01*
X117717534Y-47366340D01*
X117717533Y-47366338D01*
X117590827Y-47185381D01*
X117590823Y-47185377D01*
X117434620Y-47029174D01*
X117434616Y-47029171D01*
X117434615Y-47029170D01*
X117253666Y-46902468D01*
X117253662Y-46902466D01*
X117253660Y-46902465D01*
X117053450Y-46809106D01*
X117053447Y-46809105D01*
X117053445Y-46809104D01*
X116840070Y-46751930D01*
X116840062Y-46751929D01*
X116620002Y-46732677D01*
X116619998Y-46732677D01*
X116399937Y-46751929D01*
X116399929Y-46751930D01*
X116186554Y-46809104D01*
X116186548Y-46809107D01*
X115986340Y-46902465D01*
X115986338Y-46902466D01*
X115805377Y-47029175D01*
X115649175Y-47185377D01*
X115522466Y-47366338D01*
X115522465Y-47366340D01*
X115462382Y-47495189D01*
X115416209Y-47547628D01*
X115349016Y-47566780D01*
X115282135Y-47546564D01*
X115237618Y-47495189D01*
X115177534Y-47366340D01*
X115177533Y-47366338D01*
X115050827Y-47185381D01*
X115050823Y-47185377D01*
X114894620Y-47029174D01*
X114894616Y-47029171D01*
X114894615Y-47029170D01*
X114713666Y-46902468D01*
X114713662Y-46902466D01*
X114713660Y-46902465D01*
X114513450Y-46809106D01*
X114513447Y-46809105D01*
X114513445Y-46809104D01*
X114300070Y-46751930D01*
X114300062Y-46751929D01*
X114080002Y-46732677D01*
X114079998Y-46732677D01*
X113859937Y-46751929D01*
X113859929Y-46751930D01*
X113646554Y-46809104D01*
X113646548Y-46809107D01*
X113446340Y-46902465D01*
X113446338Y-46902466D01*
X113265377Y-47029175D01*
X113109175Y-47185377D01*
X112982466Y-47366338D01*
X112982465Y-47366340D01*
X112922382Y-47495189D01*
X112876209Y-47547628D01*
X112809016Y-47566780D01*
X112742135Y-47546564D01*
X112697618Y-47495189D01*
X112637534Y-47366340D01*
X112637533Y-47366338D01*
X112510827Y-47185381D01*
X112510823Y-47185377D01*
X112354620Y-47029174D01*
X112354616Y-47029171D01*
X112354615Y-47029170D01*
X112173666Y-46902468D01*
X112173662Y-46902466D01*
X112173660Y-46902465D01*
X111973450Y-46809106D01*
X111973447Y-46809105D01*
X111973445Y-46809104D01*
X111760070Y-46751930D01*
X111760062Y-46751929D01*
X111540002Y-46732677D01*
X111539998Y-46732677D01*
X111319937Y-46751929D01*
X111319929Y-46751930D01*
X111106554Y-46809104D01*
X111106548Y-46809107D01*
X110906340Y-46902465D01*
X110906338Y-46902466D01*
X110725377Y-47029175D01*
X110569175Y-47185377D01*
X110442466Y-47366338D01*
X110442465Y-47366340D01*
X110382382Y-47495189D01*
X110336209Y-47547628D01*
X110269016Y-47566780D01*
X110202135Y-47546564D01*
X110157618Y-47495189D01*
X110097534Y-47366340D01*
X110097533Y-47366338D01*
X109970827Y-47185381D01*
X109970823Y-47185377D01*
X109814620Y-47029174D01*
X109814616Y-47029171D01*
X109814615Y-47029170D01*
X109633666Y-46902468D01*
X109633662Y-46902466D01*
X109633660Y-46902465D01*
X109433450Y-46809106D01*
X109433447Y-46809105D01*
X109433445Y-46809104D01*
X109220070Y-46751930D01*
X109220062Y-46751929D01*
X109000002Y-46732677D01*
X108999998Y-46732677D01*
X108779937Y-46751929D01*
X108779929Y-46751930D01*
X108566554Y-46809104D01*
X108566548Y-46809107D01*
X108366340Y-46902465D01*
X108366338Y-46902466D01*
X108185377Y-47029175D01*
X108029175Y-47185377D01*
X107902466Y-47366338D01*
X107902465Y-47366340D01*
X107842382Y-47495189D01*
X107796209Y-47547628D01*
X107729016Y-47566780D01*
X107662135Y-47546564D01*
X107617618Y-47495189D01*
X107557534Y-47366340D01*
X107557533Y-47366338D01*
X107430827Y-47185381D01*
X107430823Y-47185377D01*
X107274620Y-47029174D01*
X107274616Y-47029171D01*
X107274615Y-47029170D01*
X107093666Y-46902468D01*
X107093662Y-46902466D01*
X107093660Y-46902465D01*
X106893450Y-46809106D01*
X106893447Y-46809105D01*
X106893445Y-46809104D01*
X106680070Y-46751930D01*
X106680062Y-46751929D01*
X106460002Y-46732677D01*
X106459998Y-46732677D01*
X106239937Y-46751929D01*
X106239929Y-46751930D01*
X106026554Y-46809104D01*
X106026548Y-46809107D01*
X105826340Y-46902465D01*
X105826338Y-46902466D01*
X105645377Y-47029175D01*
X105489175Y-47185377D01*
X105362466Y-47366338D01*
X105362465Y-47366340D01*
X105269107Y-47566548D01*
X105269104Y-47566554D01*
X105211930Y-47779929D01*
X105211929Y-47779937D01*
X105192677Y-47999997D01*
X86928672Y-47999997D01*
X86928954Y-47547628D01*
X86929904Y-46023923D01*
X86949630Y-45956896D01*
X87002463Y-45911174D01*
X87053904Y-45900000D01*
X146796000Y-45900000D01*
X146863039Y-45919685D01*
G37*
G04 #@! TD.AperFunction*
M02*
