M48
METRIC
T1C0.762
T2C0.800
T3C0.850
T4C1.000
T5C1.000
T6C3.500
%
G90
G05
T1
X103.92Y-48.0
X103.92Y-70.86
X106.46Y-48.0
X106.46Y-70.86
X109.0Y-48.0
X109.0Y-70.86
X111.54Y-48.0
X111.54Y-70.86
X114.08Y-48.0
X114.08Y-70.86
X116.62Y-48.0
X116.62Y-70.86
X119.16Y-48.0
X119.16Y-70.86
X121.7Y-48.0
X121.7Y-70.86
X124.24Y-48.0
X124.24Y-70.86
X126.78Y-48.0
X126.78Y-70.86
X129.32Y-48.0
X129.32Y-70.86
T2
X90.472Y-59.0
X92.0Y-83.0
X92.0Y-85.0
X92.0Y-87.0
X92.0Y-89.0
X92.472Y-59.0
X94.472Y-59.0
X96.472Y-59.0
X137.368Y-59.0
X139.368Y-59.0
X141.368Y-59.0
X143.368Y-59.0
X143.42Y-83.0
X143.42Y-85.0
X143.42Y-87.0
X143.42Y-89.0
T3
X83.8Y-77.76
X83.8Y-80.3
X83.8Y-82.84
X83.8Y-85.38
X83.8Y-87.92
X83.8Y-90.46
X83.8Y-93.0
X99.04Y-77.76
X99.04Y-80.3
X99.04Y-82.84
X99.04Y-85.38
X99.04Y-87.92
X99.04Y-90.46
X99.04Y-93.0
T4
X80.9Y-92.3
X87.2Y-77.8
X87.2Y-80.3
X87.2Y-82.9
X87.2Y-85.4
X103.92Y-51.46
X103.92Y-55.98
X103.92Y-58.96
X103.92Y-65.6
X124.2Y-51.9
X124.2Y-66.8
X126.78Y-51.79
X126.78Y-61.71
X126.78Y-67.23
X129.34Y-51.85
X129.37Y-67.25
X133.28Y-70.91
X149.6Y-88.87
X152.99Y-88.89
T5
X133.3Y-94.96
X133.3Y-102.885
X134.0Y-82.92
X134.0Y-85.46
X134.0Y-88.0
X134.0Y-90.54
X135.84Y-94.96
X135.84Y-102.885
X138.38Y-94.96
X138.38Y-102.885
X138.46Y-76.0
X140.92Y-94.96
X140.92Y-102.885
X141.0Y-76.0
X143.46Y-94.96
X143.46Y-102.885
X143.54Y-76.0
X146.0Y-94.96
X146.0Y-102.885
X148.54Y-94.96
X148.54Y-102.885
X148.96Y-76.0
X151.5Y-76.0
T6
X86.8Y-68.39
X86.8Y-103.39
X147.04Y-68.39
M30
