%TF.GenerationSoftware,KiCad,Pcbnew,6.0.11-3.fc37*%
%TF.CreationDate,2023-04-24T22:35:32+02:00*%
%TF.ProjectId,crac_as5047,63726163-5f61-4733-9530-34372e6b6963,rev?*%
%TF.SameCoordinates,Original*%
%TF.FileFunction,Copper,L1,Top*%
%TF.FilePolarity,Positive*%
%FSLAX46Y46*%
G04 Gerber Fmt 4.6, Leading zero omitted, Abs format (unit mm)*
G04 Created by KiCad (PCBNEW 6.0.11-3.fc37) date 2023-04-24 22:35:32*
%MOMM*%
%LPD*%
G01*
G04 APERTURE LIST*
%TA.AperFunction,ComponentPad*%
%ADD10C,1.308000*%
%TD*%
%TA.AperFunction,ComponentPad*%
%ADD11R,1.308000X1.308000*%
%TD*%
G04 APERTURE END LIST*
D10*
%TO.P,J1,4,NOIR*%
%TO.N,+5V*%
X153000000Y-93337500D03*
%TO.P,J1,3,ROUGE*%
%TO.N,/A*%
X151000000Y-93337500D03*
%TO.P,J1,2,BLANC*%
%TO.N,/B*%
X149000000Y-93337500D03*
D11*
%TO.P,J1,1,JAUNE*%
%TO.N,GND*%
X147000000Y-93337500D03*
%TD*%
%TA.AperFunction,Conductor*%
%TO.N,GND*%
G36*
X158910512Y-80274502D02*
G01*
X158931486Y-80291404D01*
X159708595Y-81068512D01*
X159742620Y-81130825D01*
X159745500Y-81157608D01*
X159745500Y-98842392D01*
X159725498Y-98910513D01*
X159708595Y-98931488D01*
X158931486Y-99708596D01*
X158869174Y-99742621D01*
X158842391Y-99745500D01*
X141157608Y-99745500D01*
X141089487Y-99725498D01*
X141068512Y-99708595D01*
X140291404Y-98931486D01*
X140257379Y-98869174D01*
X140254500Y-98842391D01*
X140254500Y-97935964D01*
X140642112Y-97935964D01*
X140642312Y-97941292D01*
X140642312Y-97941294D01*
X140644464Y-97998599D01*
X140643705Y-97998628D01*
X140644034Y-98000016D01*
X140644340Y-97999989D01*
X140644374Y-98000377D01*
X140644465Y-98001838D01*
X140644523Y-98002085D01*
X140644648Y-98003507D01*
X140650736Y-98165669D01*
X140651831Y-98170888D01*
X140664628Y-98231879D01*
X140663861Y-98232040D01*
X140664841Y-98234316D01*
X140664937Y-98235408D01*
X140666361Y-98240722D01*
X140666464Y-98241307D01*
X140667635Y-98246210D01*
X140697939Y-98390637D01*
X140723365Y-98455021D01*
X140723975Y-98456566D01*
X140724724Y-98458541D01*
X140726097Y-98463663D01*
X140728422Y-98468649D01*
X140728423Y-98468651D01*
X140728947Y-98469775D01*
X140731934Y-98476717D01*
X140782372Y-98604436D01*
X140819273Y-98665246D01*
X140820811Y-98668126D01*
X140820890Y-98668080D01*
X140823639Y-98672841D01*
X140825965Y-98677829D01*
X140829122Y-98682337D01*
X140829124Y-98682341D01*
X140830674Y-98684555D01*
X140835181Y-98691462D01*
X140850279Y-98716342D01*
X140901621Y-98800952D01*
X140905116Y-98804979D01*
X140905117Y-98804981D01*
X140951993Y-98859000D01*
X140955555Y-98863563D01*
X140958346Y-98866888D01*
X140961505Y-98871401D01*
X140967791Y-98877687D01*
X140973861Y-98884201D01*
X140996694Y-98910513D01*
X141052276Y-98974566D01*
X141056407Y-98977953D01*
X141116309Y-99027070D01*
X141123574Y-99033652D01*
X141124706Y-99034602D01*
X141128599Y-99038495D01*
X141133103Y-99041649D01*
X141133108Y-99041653D01*
X141135936Y-99043633D01*
X141143554Y-99049410D01*
X141225901Y-99116931D01*
X141225907Y-99116935D01*
X141230029Y-99120315D01*
X141234668Y-99122955D01*
X141234667Y-99122955D01*
X141307355Y-99164331D01*
X141317296Y-99170622D01*
X141317660Y-99170877D01*
X141317667Y-99170881D01*
X141322171Y-99174035D01*
X141327155Y-99176359D01*
X141327160Y-99176362D01*
X141329875Y-99177628D01*
X141338952Y-99182318D01*
X141365945Y-99197683D01*
X141429798Y-99234030D01*
X141519498Y-99266590D01*
X141529753Y-99270833D01*
X141531348Y-99271577D01*
X141531350Y-99271578D01*
X141536337Y-99273903D01*
X141541653Y-99275327D01*
X141541655Y-99275328D01*
X141542719Y-99275613D01*
X141543702Y-99275876D01*
X141554081Y-99279143D01*
X141645871Y-99312461D01*
X141746443Y-99330648D01*
X141756616Y-99332926D01*
X141764592Y-99335063D01*
X141770990Y-99335623D01*
X141782412Y-99337152D01*
X141872069Y-99353364D01*
X141876208Y-99353559D01*
X141876215Y-99353560D01*
X141894670Y-99354430D01*
X141894677Y-99354430D01*
X141896158Y-99354500D01*
X142057712Y-99354500D01*
X142137444Y-99347735D01*
X142223733Y-99340413D01*
X142223737Y-99340412D01*
X142229044Y-99339962D01*
X142234199Y-99338624D01*
X142234205Y-99338623D01*
X142446368Y-99283556D01*
X142446367Y-99283556D01*
X142451539Y-99282214D01*
X142598412Y-99216052D01*
X142656262Y-99189993D01*
X142656265Y-99189992D01*
X142661123Y-99187803D01*
X142851803Y-99059430D01*
X142878826Y-99033652D01*
X143014271Y-98904443D01*
X143018128Y-98900764D01*
X143155342Y-98716342D01*
X143171504Y-98684555D01*
X143257102Y-98516194D01*
X143257102Y-98516193D01*
X143259520Y-98511438D01*
X143327685Y-98291911D01*
X143357888Y-98064036D01*
X143355536Y-98001401D01*
X143356295Y-98001372D01*
X143355966Y-97999984D01*
X143355660Y-98000011D01*
X143355626Y-97999623D01*
X143355535Y-97998162D01*
X143355477Y-97997915D01*
X143355352Y-97996493D01*
X143353080Y-97935964D01*
X156642112Y-97935964D01*
X156642312Y-97941292D01*
X156642312Y-97941294D01*
X156644464Y-97998599D01*
X156643705Y-97998628D01*
X156644034Y-98000016D01*
X156644340Y-97999989D01*
X156644374Y-98000377D01*
X156644465Y-98001838D01*
X156644523Y-98002085D01*
X156644648Y-98003507D01*
X156650736Y-98165669D01*
X156651831Y-98170888D01*
X156664628Y-98231879D01*
X156663861Y-98232040D01*
X156664841Y-98234316D01*
X156664937Y-98235408D01*
X156666361Y-98240722D01*
X156666464Y-98241307D01*
X156667635Y-98246210D01*
X156697939Y-98390637D01*
X156723365Y-98455021D01*
X156723975Y-98456566D01*
X156724724Y-98458541D01*
X156726097Y-98463663D01*
X156728422Y-98468649D01*
X156728423Y-98468651D01*
X156728947Y-98469775D01*
X156731934Y-98476717D01*
X156782372Y-98604436D01*
X156819273Y-98665246D01*
X156820811Y-98668126D01*
X156820890Y-98668080D01*
X156823639Y-98672841D01*
X156825965Y-98677829D01*
X156829122Y-98682337D01*
X156829124Y-98682341D01*
X156830674Y-98684555D01*
X156835181Y-98691462D01*
X156850279Y-98716342D01*
X156901621Y-98800952D01*
X156905116Y-98804979D01*
X156905117Y-98804981D01*
X156951993Y-98859000D01*
X156955555Y-98863563D01*
X156958346Y-98866888D01*
X156961505Y-98871401D01*
X156967791Y-98877687D01*
X156973861Y-98884201D01*
X156996694Y-98910513D01*
X157052276Y-98974566D01*
X157056407Y-98977953D01*
X157116309Y-99027070D01*
X157123574Y-99033652D01*
X157124706Y-99034602D01*
X157128599Y-99038495D01*
X157133103Y-99041649D01*
X157133108Y-99041653D01*
X157135936Y-99043633D01*
X157143554Y-99049410D01*
X157225901Y-99116931D01*
X157225907Y-99116935D01*
X157230029Y-99120315D01*
X157234668Y-99122955D01*
X157234667Y-99122955D01*
X157307355Y-99164331D01*
X157317296Y-99170622D01*
X157317660Y-99170877D01*
X157317667Y-99170881D01*
X157322171Y-99174035D01*
X157327155Y-99176359D01*
X157327160Y-99176362D01*
X157329875Y-99177628D01*
X157338952Y-99182318D01*
X157365945Y-99197683D01*
X157429798Y-99234030D01*
X157519498Y-99266590D01*
X157529753Y-99270833D01*
X157531348Y-99271577D01*
X157531350Y-99271578D01*
X157536337Y-99273903D01*
X157541653Y-99275327D01*
X157541655Y-99275328D01*
X157542719Y-99275613D01*
X157543702Y-99275876D01*
X157554081Y-99279143D01*
X157645871Y-99312461D01*
X157746443Y-99330648D01*
X157756616Y-99332926D01*
X157764592Y-99335063D01*
X157770990Y-99335623D01*
X157782412Y-99337152D01*
X157872069Y-99353364D01*
X157876208Y-99353559D01*
X157876215Y-99353560D01*
X157894670Y-99354430D01*
X157894677Y-99354430D01*
X157896158Y-99354500D01*
X158057712Y-99354500D01*
X158137444Y-99347735D01*
X158223733Y-99340413D01*
X158223737Y-99340412D01*
X158229044Y-99339962D01*
X158234199Y-99338624D01*
X158234205Y-99338623D01*
X158446368Y-99283556D01*
X158446367Y-99283556D01*
X158451539Y-99282214D01*
X158598412Y-99216052D01*
X158656262Y-99189993D01*
X158656265Y-99189992D01*
X158661123Y-99187803D01*
X158851803Y-99059430D01*
X158878826Y-99033652D01*
X159014271Y-98904443D01*
X159018128Y-98900764D01*
X159155342Y-98716342D01*
X159171504Y-98684555D01*
X159257102Y-98516194D01*
X159257102Y-98516193D01*
X159259520Y-98511438D01*
X159327685Y-98291911D01*
X159357888Y-98064036D01*
X159355536Y-98001401D01*
X159356295Y-98001372D01*
X159355966Y-97999984D01*
X159355660Y-98000011D01*
X159355626Y-97999623D01*
X159355535Y-97998162D01*
X159355477Y-97997915D01*
X159355352Y-97996493D01*
X159349264Y-97834331D01*
X159335372Y-97768121D01*
X159336139Y-97767960D01*
X159335159Y-97765684D01*
X159335063Y-97764592D01*
X159333639Y-97759278D01*
X159333536Y-97758693D01*
X159332362Y-97753778D01*
X159323886Y-97713378D01*
X159302061Y-97609363D01*
X159276025Y-97543434D01*
X159275276Y-97541459D01*
X159273903Y-97536337D01*
X159271053Y-97530225D01*
X159268066Y-97523283D01*
X159217628Y-97395564D01*
X159180727Y-97334754D01*
X159179189Y-97331874D01*
X159179110Y-97331920D01*
X159176361Y-97327159D01*
X159174035Y-97322171D01*
X159170876Y-97317659D01*
X159169326Y-97315445D01*
X159164819Y-97308538D01*
X159101147Y-97203609D01*
X159101145Y-97203606D01*
X159098379Y-97199048D01*
X159048007Y-97141000D01*
X159044445Y-97136437D01*
X159041652Y-97133108D01*
X159038495Y-97128599D01*
X159034604Y-97124708D01*
X159034599Y-97124702D01*
X159032209Y-97122313D01*
X159026139Y-97115799D01*
X158951224Y-97029467D01*
X158951222Y-97029465D01*
X158947724Y-97025434D01*
X158883692Y-96972930D01*
X158876426Y-96966348D01*
X158875294Y-96965398D01*
X158871401Y-96961505D01*
X158866897Y-96958351D01*
X158866892Y-96958347D01*
X158864064Y-96956367D01*
X158856446Y-96950590D01*
X158774099Y-96883069D01*
X158774093Y-96883065D01*
X158769971Y-96879685D01*
X158692645Y-96835669D01*
X158682704Y-96829378D01*
X158682340Y-96829123D01*
X158682333Y-96829119D01*
X158677829Y-96825965D01*
X158672845Y-96823641D01*
X158672840Y-96823638D01*
X158670125Y-96822372D01*
X158661048Y-96817682D01*
X158616939Y-96792574D01*
X158570202Y-96765970D01*
X158480502Y-96733410D01*
X158470247Y-96729167D01*
X158468652Y-96728423D01*
X158468650Y-96728422D01*
X158463663Y-96726097D01*
X158458347Y-96724673D01*
X158458345Y-96724672D01*
X158457281Y-96724387D01*
X158456298Y-96724124D01*
X158445919Y-96720857D01*
X158354129Y-96687539D01*
X158253557Y-96669352D01*
X158243384Y-96667074D01*
X158235408Y-96664937D01*
X158229010Y-96664377D01*
X158217588Y-96662848D01*
X158127931Y-96646636D01*
X158123792Y-96646441D01*
X158123785Y-96646440D01*
X158105330Y-96645570D01*
X158105323Y-96645570D01*
X158103842Y-96645500D01*
X157942288Y-96645500D01*
X157862556Y-96652265D01*
X157776267Y-96659587D01*
X157776263Y-96659588D01*
X157770956Y-96660038D01*
X157765801Y-96661376D01*
X157765795Y-96661377D01*
X157593058Y-96706211D01*
X157548461Y-96717786D01*
X157441497Y-96765970D01*
X157343738Y-96810007D01*
X157343735Y-96810008D01*
X157338877Y-96812197D01*
X157148197Y-96940570D01*
X157144340Y-96944249D01*
X157144338Y-96944251D01*
X157118404Y-96968991D01*
X156981872Y-97099236D01*
X156844658Y-97283658D01*
X156842242Y-97288409D01*
X156842240Y-97288413D01*
X156742898Y-97483806D01*
X156740480Y-97488562D01*
X156672315Y-97708089D01*
X156642112Y-97935964D01*
X143353080Y-97935964D01*
X143349264Y-97834331D01*
X143335372Y-97768121D01*
X143336139Y-97767960D01*
X143335159Y-97765684D01*
X143335063Y-97764592D01*
X143333639Y-97759278D01*
X143333536Y-97758693D01*
X143332362Y-97753778D01*
X143323886Y-97713378D01*
X143302061Y-97609363D01*
X143276025Y-97543434D01*
X143275276Y-97541459D01*
X143273903Y-97536337D01*
X143271053Y-97530225D01*
X143268066Y-97523283D01*
X143217628Y-97395564D01*
X143180727Y-97334754D01*
X143179189Y-97331874D01*
X143179110Y-97331920D01*
X143176361Y-97327159D01*
X143174035Y-97322171D01*
X143170876Y-97317659D01*
X143169326Y-97315445D01*
X143164819Y-97308538D01*
X143101147Y-97203609D01*
X143101145Y-97203606D01*
X143098379Y-97199048D01*
X143048007Y-97141000D01*
X143044445Y-97136437D01*
X143041652Y-97133108D01*
X143038495Y-97128599D01*
X143034604Y-97124708D01*
X143034599Y-97124702D01*
X143032209Y-97122313D01*
X143026139Y-97115799D01*
X142951224Y-97029467D01*
X142951222Y-97029465D01*
X142947724Y-97025434D01*
X142883692Y-96972930D01*
X142876426Y-96966348D01*
X142875294Y-96965398D01*
X142871401Y-96961505D01*
X142866897Y-96958351D01*
X142866892Y-96958347D01*
X142864064Y-96956367D01*
X142856446Y-96950590D01*
X142774099Y-96883069D01*
X142774093Y-96883065D01*
X142769971Y-96879685D01*
X142692645Y-96835669D01*
X142682704Y-96829378D01*
X142682340Y-96829123D01*
X142682333Y-96829119D01*
X142677829Y-96825965D01*
X142672845Y-96823641D01*
X142672840Y-96823638D01*
X142670125Y-96822372D01*
X142661048Y-96817682D01*
X142616939Y-96792574D01*
X142570202Y-96765970D01*
X142480502Y-96733410D01*
X142470247Y-96729167D01*
X142468652Y-96728423D01*
X142468650Y-96728422D01*
X142463663Y-96726097D01*
X142458347Y-96724673D01*
X142458345Y-96724672D01*
X142457281Y-96724387D01*
X142456298Y-96724124D01*
X142445919Y-96720857D01*
X142354129Y-96687539D01*
X142253557Y-96669352D01*
X142243384Y-96667074D01*
X142235408Y-96664937D01*
X142229010Y-96664377D01*
X142217588Y-96662848D01*
X142127931Y-96646636D01*
X142123792Y-96646441D01*
X142123785Y-96646440D01*
X142105330Y-96645570D01*
X142105323Y-96645570D01*
X142103842Y-96645500D01*
X141942288Y-96645500D01*
X141862556Y-96652265D01*
X141776267Y-96659587D01*
X141776263Y-96659588D01*
X141770956Y-96660038D01*
X141765801Y-96661376D01*
X141765795Y-96661377D01*
X141593058Y-96706211D01*
X141548461Y-96717786D01*
X141441497Y-96765970D01*
X141343738Y-96810007D01*
X141343735Y-96810008D01*
X141338877Y-96812197D01*
X141148197Y-96940570D01*
X141144340Y-96944249D01*
X141144338Y-96944251D01*
X141118404Y-96968991D01*
X140981872Y-97099236D01*
X140844658Y-97283658D01*
X140842242Y-97288409D01*
X140842240Y-97288413D01*
X140742898Y-97483806D01*
X140740480Y-97488562D01*
X140672315Y-97708089D01*
X140642112Y-97935964D01*
X140254500Y-97935964D01*
X140254500Y-94036169D01*
X145838001Y-94036169D01*
X145838371Y-94042990D01*
X145843895Y-94093852D01*
X145847521Y-94109104D01*
X145892676Y-94229554D01*
X145901214Y-94245149D01*
X145977715Y-94347224D01*
X145990276Y-94359785D01*
X146092351Y-94436286D01*
X146107946Y-94444824D01*
X146228394Y-94489978D01*
X146243649Y-94493605D01*
X146294514Y-94499131D01*
X146301328Y-94499500D01*
X146727885Y-94499500D01*
X146743124Y-94495025D01*
X146744329Y-94493635D01*
X146746000Y-94485952D01*
X146746000Y-94481384D01*
X147254000Y-94481384D01*
X147258475Y-94496623D01*
X147259865Y-94497828D01*
X147267548Y-94499499D01*
X147698669Y-94499499D01*
X147705490Y-94499129D01*
X147756352Y-94493605D01*
X147771604Y-94489979D01*
X147892054Y-94444824D01*
X147907649Y-94436286D01*
X148009724Y-94359785D01*
X148022285Y-94347224D01*
X148098786Y-94245149D01*
X148107324Y-94229554D01*
X148152478Y-94109106D01*
X148156106Y-94093851D01*
X148158242Y-94074181D01*
X148185483Y-94008619D01*
X148243845Y-93968192D01*
X148314799Y-93965735D01*
X148377139Y-94003474D01*
X148388747Y-94016366D01*
X148425392Y-94042990D01*
X148495396Y-94093851D01*
X148543248Y-94128618D01*
X148549276Y-94131302D01*
X148549278Y-94131303D01*
X148711681Y-94203609D01*
X148717712Y-94206294D01*
X148811113Y-94226147D01*
X148898056Y-94244628D01*
X148898061Y-94244628D01*
X148904513Y-94246000D01*
X149095487Y-94246000D01*
X149101939Y-94244628D01*
X149101944Y-94244628D01*
X149188887Y-94226147D01*
X149282288Y-94206294D01*
X149288319Y-94203609D01*
X149450722Y-94131303D01*
X149450724Y-94131302D01*
X149456752Y-94128618D01*
X149504605Y-94093851D01*
X149574608Y-94042990D01*
X149611253Y-94016366D01*
X149615675Y-94011455D01*
X149734621Y-93879352D01*
X149734622Y-93879351D01*
X149739040Y-93874444D01*
X149834527Y-93709056D01*
X149880167Y-93568590D01*
X149920241Y-93509986D01*
X149985637Y-93482349D01*
X150055594Y-93494456D01*
X150107900Y-93542462D01*
X150119832Y-93568589D01*
X150165473Y-93709056D01*
X150260960Y-93874444D01*
X150265378Y-93879351D01*
X150265379Y-93879352D01*
X150384325Y-94011455D01*
X150388747Y-94016366D01*
X150425392Y-94042990D01*
X150495396Y-94093851D01*
X150543248Y-94128618D01*
X150549276Y-94131302D01*
X150549278Y-94131303D01*
X150711681Y-94203609D01*
X150717712Y-94206294D01*
X150811113Y-94226147D01*
X150898056Y-94244628D01*
X150898061Y-94244628D01*
X150904513Y-94246000D01*
X151095487Y-94246000D01*
X151101939Y-94244628D01*
X151101944Y-94244628D01*
X151188887Y-94226147D01*
X151282288Y-94206294D01*
X151288319Y-94203609D01*
X151450722Y-94131303D01*
X151450724Y-94131302D01*
X151456752Y-94128618D01*
X151504605Y-94093851D01*
X151574608Y-94042990D01*
X151611253Y-94016366D01*
X151615675Y-94011455D01*
X151734621Y-93879352D01*
X151734622Y-93879351D01*
X151739040Y-93874444D01*
X151834527Y-93709056D01*
X151880167Y-93568590D01*
X151920241Y-93509986D01*
X151985637Y-93482349D01*
X152055594Y-93494456D01*
X152107900Y-93542462D01*
X152119832Y-93568589D01*
X152165473Y-93709056D01*
X152260960Y-93874444D01*
X152265378Y-93879351D01*
X152265379Y-93879352D01*
X152384325Y-94011455D01*
X152388747Y-94016366D01*
X152425392Y-94042990D01*
X152495396Y-94093851D01*
X152543248Y-94128618D01*
X152549276Y-94131302D01*
X152549278Y-94131303D01*
X152711681Y-94203609D01*
X152717712Y-94206294D01*
X152811113Y-94226147D01*
X152898056Y-94244628D01*
X152898061Y-94244628D01*
X152904513Y-94246000D01*
X153095487Y-94246000D01*
X153101939Y-94244628D01*
X153101944Y-94244628D01*
X153188887Y-94226147D01*
X153282288Y-94206294D01*
X153288319Y-94203609D01*
X153450722Y-94131303D01*
X153450724Y-94131302D01*
X153456752Y-94128618D01*
X153504605Y-94093851D01*
X153574608Y-94042990D01*
X153611253Y-94016366D01*
X153615675Y-94011455D01*
X153734621Y-93879352D01*
X153734622Y-93879351D01*
X153739040Y-93874444D01*
X153834527Y-93709056D01*
X153893542Y-93527428D01*
X153897008Y-93494456D01*
X153912814Y-93344065D01*
X153913504Y-93337500D01*
X153898280Y-93192651D01*
X153894232Y-93154135D01*
X153894232Y-93154133D01*
X153893542Y-93147572D01*
X153834527Y-92965944D01*
X153739040Y-92800556D01*
X153611253Y-92658634D01*
X153512157Y-92586636D01*
X153462094Y-92550263D01*
X153462093Y-92550262D01*
X153456752Y-92546382D01*
X153450724Y-92543698D01*
X153450722Y-92543697D01*
X153288319Y-92471391D01*
X153288318Y-92471391D01*
X153282288Y-92468706D01*
X153172859Y-92445446D01*
X153101944Y-92430372D01*
X153101939Y-92430372D01*
X153095487Y-92429000D01*
X152904513Y-92429000D01*
X152898061Y-92430372D01*
X152898056Y-92430372D01*
X152827141Y-92445446D01*
X152717712Y-92468706D01*
X152711682Y-92471391D01*
X152711681Y-92471391D01*
X152549278Y-92543697D01*
X152549276Y-92543698D01*
X152543248Y-92546382D01*
X152537907Y-92550262D01*
X152537906Y-92550263D01*
X152487843Y-92586636D01*
X152388747Y-92658634D01*
X152260960Y-92800556D01*
X152165473Y-92965944D01*
X152127277Y-93083500D01*
X152119833Y-93106409D01*
X152079759Y-93165014D01*
X152014363Y-93192651D01*
X151944406Y-93180544D01*
X151892100Y-93132538D01*
X151880167Y-93106409D01*
X151872724Y-93083500D01*
X151834527Y-92965944D01*
X151739040Y-92800556D01*
X151611253Y-92658634D01*
X151512157Y-92586636D01*
X151462094Y-92550263D01*
X151462093Y-92550262D01*
X151456752Y-92546382D01*
X151450724Y-92543698D01*
X151450722Y-92543697D01*
X151288319Y-92471391D01*
X151288318Y-92471391D01*
X151282288Y-92468706D01*
X151172859Y-92445446D01*
X151101944Y-92430372D01*
X151101939Y-92430372D01*
X151095487Y-92429000D01*
X150904513Y-92429000D01*
X150898061Y-92430372D01*
X150898056Y-92430372D01*
X150827141Y-92445446D01*
X150717712Y-92468706D01*
X150711682Y-92471391D01*
X150711681Y-92471391D01*
X150549278Y-92543697D01*
X150549276Y-92543698D01*
X150543248Y-92546382D01*
X150537907Y-92550262D01*
X150537906Y-92550263D01*
X150487843Y-92586636D01*
X150388747Y-92658634D01*
X150260960Y-92800556D01*
X150165473Y-92965944D01*
X150127277Y-93083500D01*
X150119833Y-93106409D01*
X150079759Y-93165014D01*
X150014363Y-93192651D01*
X149944406Y-93180544D01*
X149892100Y-93132538D01*
X149880167Y-93106409D01*
X149872724Y-93083500D01*
X149834527Y-92965944D01*
X149739040Y-92800556D01*
X149611253Y-92658634D01*
X149512157Y-92586636D01*
X149462094Y-92550263D01*
X149462093Y-92550262D01*
X149456752Y-92546382D01*
X149450724Y-92543698D01*
X149450722Y-92543697D01*
X149288319Y-92471391D01*
X149288318Y-92471391D01*
X149282288Y-92468706D01*
X149172859Y-92445446D01*
X149101944Y-92430372D01*
X149101939Y-92430372D01*
X149095487Y-92429000D01*
X148904513Y-92429000D01*
X148898061Y-92430372D01*
X148898056Y-92430372D01*
X148827141Y-92445446D01*
X148717712Y-92468706D01*
X148711682Y-92471391D01*
X148711681Y-92471391D01*
X148549278Y-92543697D01*
X148549276Y-92543698D01*
X148543248Y-92546382D01*
X148537907Y-92550262D01*
X148537906Y-92550263D01*
X148487843Y-92586636D01*
X148388747Y-92658634D01*
X148377139Y-92671526D01*
X148316696Y-92708764D01*
X148245712Y-92707413D01*
X148186728Y-92667899D01*
X148158242Y-92600821D01*
X148156105Y-92581147D01*
X148152479Y-92565896D01*
X148107324Y-92445446D01*
X148098786Y-92429851D01*
X148022285Y-92327776D01*
X148009724Y-92315215D01*
X147907649Y-92238714D01*
X147892054Y-92230176D01*
X147771606Y-92185022D01*
X147756351Y-92181395D01*
X147705486Y-92175869D01*
X147698672Y-92175500D01*
X147272115Y-92175500D01*
X147256876Y-92179975D01*
X147255671Y-92181365D01*
X147254000Y-92189048D01*
X147254000Y-94481384D01*
X146746000Y-94481384D01*
X146746000Y-93609615D01*
X146741525Y-93594376D01*
X146740135Y-93593171D01*
X146732452Y-93591500D01*
X145856116Y-93591500D01*
X145840877Y-93595975D01*
X145839672Y-93597365D01*
X145838001Y-93605048D01*
X145838001Y-94036169D01*
X140254500Y-94036169D01*
X140254500Y-93065385D01*
X145838000Y-93065385D01*
X145842475Y-93080624D01*
X145843865Y-93081829D01*
X145851548Y-93083500D01*
X146727885Y-93083500D01*
X146743124Y-93079025D01*
X146744329Y-93077635D01*
X146746000Y-93069952D01*
X146746000Y-92193616D01*
X146741525Y-92178377D01*
X146740135Y-92177172D01*
X146732452Y-92175501D01*
X146301331Y-92175501D01*
X146294510Y-92175871D01*
X146243648Y-92181395D01*
X146228396Y-92185021D01*
X146107946Y-92230176D01*
X146092351Y-92238714D01*
X145990276Y-92315215D01*
X145977715Y-92327776D01*
X145901214Y-92429851D01*
X145892676Y-92445446D01*
X145847522Y-92565894D01*
X145843895Y-92581149D01*
X145838369Y-92632014D01*
X145838000Y-92638828D01*
X145838000Y-93065385D01*
X140254500Y-93065385D01*
X140254500Y-81935964D01*
X140642112Y-81935964D01*
X140642312Y-81941292D01*
X140642312Y-81941294D01*
X140644464Y-81998599D01*
X140643705Y-81998628D01*
X140644034Y-82000016D01*
X140644340Y-81999989D01*
X140644374Y-82000377D01*
X140644465Y-82001838D01*
X140644523Y-82002085D01*
X140644648Y-82003507D01*
X140650736Y-82165669D01*
X140651831Y-82170888D01*
X140664628Y-82231879D01*
X140663861Y-82232040D01*
X140664841Y-82234316D01*
X140664937Y-82235408D01*
X140666361Y-82240722D01*
X140666464Y-82241307D01*
X140667635Y-82246210D01*
X140697939Y-82390637D01*
X140723365Y-82455021D01*
X140723975Y-82456566D01*
X140724724Y-82458541D01*
X140726097Y-82463663D01*
X140728422Y-82468649D01*
X140728423Y-82468651D01*
X140728947Y-82469775D01*
X140731934Y-82476717D01*
X140782372Y-82604436D01*
X140819273Y-82665246D01*
X140820811Y-82668126D01*
X140820890Y-82668080D01*
X140823639Y-82672841D01*
X140825965Y-82677829D01*
X140829122Y-82682337D01*
X140829124Y-82682341D01*
X140830674Y-82684555D01*
X140835181Y-82691462D01*
X140850279Y-82716342D01*
X140901621Y-82800952D01*
X140905116Y-82804979D01*
X140905117Y-82804981D01*
X140951993Y-82859000D01*
X140955555Y-82863563D01*
X140958346Y-82866888D01*
X140961505Y-82871401D01*
X140967791Y-82877687D01*
X140973861Y-82884201D01*
X141052276Y-82974566D01*
X141056407Y-82977953D01*
X141116309Y-83027070D01*
X141123574Y-83033652D01*
X141124706Y-83034602D01*
X141128599Y-83038495D01*
X141133103Y-83041649D01*
X141133108Y-83041653D01*
X141135936Y-83043633D01*
X141143554Y-83049410D01*
X141225901Y-83116931D01*
X141225907Y-83116935D01*
X141230029Y-83120315D01*
X141234668Y-83122955D01*
X141234667Y-83122955D01*
X141307355Y-83164331D01*
X141317296Y-83170622D01*
X141317660Y-83170877D01*
X141317667Y-83170881D01*
X141322171Y-83174035D01*
X141327155Y-83176359D01*
X141327160Y-83176362D01*
X141329875Y-83177628D01*
X141338952Y-83182318D01*
X141383061Y-83207426D01*
X141429798Y-83234030D01*
X141519498Y-83266590D01*
X141529753Y-83270833D01*
X141531348Y-83271577D01*
X141531350Y-83271578D01*
X141536337Y-83273903D01*
X141541653Y-83275327D01*
X141541655Y-83275328D01*
X141542719Y-83275613D01*
X141543702Y-83275876D01*
X141554081Y-83279143D01*
X141645871Y-83312461D01*
X141746443Y-83330648D01*
X141756616Y-83332926D01*
X141764592Y-83335063D01*
X141770990Y-83335623D01*
X141782412Y-83337152D01*
X141872069Y-83353364D01*
X141876208Y-83353559D01*
X141876215Y-83353560D01*
X141894670Y-83354430D01*
X141894677Y-83354430D01*
X141896158Y-83354500D01*
X142057712Y-83354500D01*
X142137444Y-83347735D01*
X142223733Y-83340413D01*
X142223737Y-83340412D01*
X142229044Y-83339962D01*
X142234199Y-83338624D01*
X142234205Y-83338623D01*
X142446368Y-83283556D01*
X142446367Y-83283556D01*
X142451539Y-83282214D01*
X142598412Y-83216052D01*
X142656262Y-83189993D01*
X142656265Y-83189992D01*
X142661123Y-83187803D01*
X142851803Y-83059430D01*
X142878826Y-83033652D01*
X143014271Y-82904443D01*
X143018128Y-82900764D01*
X143155342Y-82716342D01*
X143171504Y-82684555D01*
X143257102Y-82516194D01*
X143257102Y-82516193D01*
X143259520Y-82511438D01*
X143327685Y-82291911D01*
X143357888Y-82064036D01*
X143355536Y-82001401D01*
X143356295Y-82001372D01*
X143355966Y-81999984D01*
X143355660Y-82000011D01*
X143355626Y-81999623D01*
X143355535Y-81998162D01*
X143355477Y-81997915D01*
X143355352Y-81996493D01*
X143353080Y-81935964D01*
X156642112Y-81935964D01*
X156642312Y-81941292D01*
X156642312Y-81941294D01*
X156644464Y-81998599D01*
X156643705Y-81998628D01*
X156644034Y-82000016D01*
X156644340Y-81999989D01*
X156644374Y-82000377D01*
X156644465Y-82001838D01*
X156644523Y-82002085D01*
X156644648Y-82003507D01*
X156650736Y-82165669D01*
X156651831Y-82170888D01*
X156664628Y-82231879D01*
X156663861Y-82232040D01*
X156664841Y-82234316D01*
X156664937Y-82235408D01*
X156666361Y-82240722D01*
X156666464Y-82241307D01*
X156667635Y-82246210D01*
X156697939Y-82390637D01*
X156723365Y-82455021D01*
X156723975Y-82456566D01*
X156724724Y-82458541D01*
X156726097Y-82463663D01*
X156728422Y-82468649D01*
X156728423Y-82468651D01*
X156728947Y-82469775D01*
X156731934Y-82476717D01*
X156782372Y-82604436D01*
X156819273Y-82665246D01*
X156820811Y-82668126D01*
X156820890Y-82668080D01*
X156823639Y-82672841D01*
X156825965Y-82677829D01*
X156829122Y-82682337D01*
X156829124Y-82682341D01*
X156830674Y-82684555D01*
X156835181Y-82691462D01*
X156850279Y-82716342D01*
X156901621Y-82800952D01*
X156905116Y-82804979D01*
X156905117Y-82804981D01*
X156951993Y-82859000D01*
X156955555Y-82863563D01*
X156958346Y-82866888D01*
X156961505Y-82871401D01*
X156967791Y-82877687D01*
X156973861Y-82884201D01*
X157052276Y-82974566D01*
X157056407Y-82977953D01*
X157116309Y-83027070D01*
X157123574Y-83033652D01*
X157124706Y-83034602D01*
X157128599Y-83038495D01*
X157133103Y-83041649D01*
X157133108Y-83041653D01*
X157135936Y-83043633D01*
X157143554Y-83049410D01*
X157225901Y-83116931D01*
X157225907Y-83116935D01*
X157230029Y-83120315D01*
X157234668Y-83122955D01*
X157234667Y-83122955D01*
X157307355Y-83164331D01*
X157317296Y-83170622D01*
X157317660Y-83170877D01*
X157317667Y-83170881D01*
X157322171Y-83174035D01*
X157327155Y-83176359D01*
X157327160Y-83176362D01*
X157329875Y-83177628D01*
X157338952Y-83182318D01*
X157383061Y-83207426D01*
X157429798Y-83234030D01*
X157519498Y-83266590D01*
X157529753Y-83270833D01*
X157531348Y-83271577D01*
X157531350Y-83271578D01*
X157536337Y-83273903D01*
X157541653Y-83275327D01*
X157541655Y-83275328D01*
X157542719Y-83275613D01*
X157543702Y-83275876D01*
X157554081Y-83279143D01*
X157645871Y-83312461D01*
X157746443Y-83330648D01*
X157756616Y-83332926D01*
X157764592Y-83335063D01*
X157770990Y-83335623D01*
X157782412Y-83337152D01*
X157872069Y-83353364D01*
X157876208Y-83353559D01*
X157876215Y-83353560D01*
X157894670Y-83354430D01*
X157894677Y-83354430D01*
X157896158Y-83354500D01*
X158057712Y-83354500D01*
X158137444Y-83347735D01*
X158223733Y-83340413D01*
X158223737Y-83340412D01*
X158229044Y-83339962D01*
X158234199Y-83338624D01*
X158234205Y-83338623D01*
X158446368Y-83283556D01*
X158446367Y-83283556D01*
X158451539Y-83282214D01*
X158598412Y-83216052D01*
X158656262Y-83189993D01*
X158656265Y-83189992D01*
X158661123Y-83187803D01*
X158851803Y-83059430D01*
X158878826Y-83033652D01*
X159014271Y-82904443D01*
X159018128Y-82900764D01*
X159155342Y-82716342D01*
X159171504Y-82684555D01*
X159257102Y-82516194D01*
X159257102Y-82516193D01*
X159259520Y-82511438D01*
X159327685Y-82291911D01*
X159357888Y-82064036D01*
X159355536Y-82001401D01*
X159356295Y-82001372D01*
X159355966Y-81999984D01*
X159355660Y-82000011D01*
X159355626Y-81999623D01*
X159355535Y-81998162D01*
X159355477Y-81997915D01*
X159355352Y-81996493D01*
X159349264Y-81834331D01*
X159335372Y-81768121D01*
X159336139Y-81767960D01*
X159335159Y-81765684D01*
X159335063Y-81764592D01*
X159333639Y-81759278D01*
X159333536Y-81758693D01*
X159332362Y-81753778D01*
X159323886Y-81713378D01*
X159302061Y-81609363D01*
X159276025Y-81543434D01*
X159275276Y-81541459D01*
X159273903Y-81536337D01*
X159271053Y-81530225D01*
X159268066Y-81523283D01*
X159217628Y-81395564D01*
X159180727Y-81334754D01*
X159179189Y-81331874D01*
X159179110Y-81331920D01*
X159176361Y-81327159D01*
X159174035Y-81322171D01*
X159170876Y-81317659D01*
X159169326Y-81315445D01*
X159164819Y-81308538D01*
X159101147Y-81203609D01*
X159101145Y-81203606D01*
X159098379Y-81199048D01*
X159048007Y-81141000D01*
X159044445Y-81136437D01*
X159041652Y-81133108D01*
X159038495Y-81128599D01*
X159034604Y-81124708D01*
X159034599Y-81124702D01*
X159032209Y-81122313D01*
X159026139Y-81115799D01*
X158951224Y-81029467D01*
X158951222Y-81029465D01*
X158947724Y-81025434D01*
X158883692Y-80972930D01*
X158876426Y-80966348D01*
X158875294Y-80965398D01*
X158871401Y-80961505D01*
X158866897Y-80958351D01*
X158866892Y-80958347D01*
X158864064Y-80956367D01*
X158856446Y-80950590D01*
X158774099Y-80883069D01*
X158774093Y-80883065D01*
X158769971Y-80879685D01*
X158692645Y-80835669D01*
X158682704Y-80829378D01*
X158682340Y-80829123D01*
X158682333Y-80829119D01*
X158677829Y-80825965D01*
X158672845Y-80823641D01*
X158672840Y-80823638D01*
X158670125Y-80822372D01*
X158661048Y-80817682D01*
X158616939Y-80792574D01*
X158570202Y-80765970D01*
X158480502Y-80733410D01*
X158470247Y-80729167D01*
X158468652Y-80728423D01*
X158468650Y-80728422D01*
X158463663Y-80726097D01*
X158458347Y-80724673D01*
X158458345Y-80724672D01*
X158457281Y-80724387D01*
X158456298Y-80724124D01*
X158445919Y-80720857D01*
X158354129Y-80687539D01*
X158253557Y-80669352D01*
X158243384Y-80667074D01*
X158235408Y-80664937D01*
X158229010Y-80664377D01*
X158217588Y-80662848D01*
X158127931Y-80646636D01*
X158123792Y-80646441D01*
X158123785Y-80646440D01*
X158105330Y-80645570D01*
X158105323Y-80645570D01*
X158103842Y-80645500D01*
X157942288Y-80645500D01*
X157862556Y-80652265D01*
X157776267Y-80659587D01*
X157776263Y-80659588D01*
X157770956Y-80660038D01*
X157765801Y-80661376D01*
X157765795Y-80661377D01*
X157593058Y-80706211D01*
X157548461Y-80717786D01*
X157441497Y-80765970D01*
X157343738Y-80810007D01*
X157343735Y-80810008D01*
X157338877Y-80812197D01*
X157148197Y-80940570D01*
X157144340Y-80944249D01*
X157144338Y-80944251D01*
X157118404Y-80968991D01*
X156981872Y-81099236D01*
X156844658Y-81283658D01*
X156842242Y-81288409D01*
X156842240Y-81288413D01*
X156742898Y-81483806D01*
X156740480Y-81488562D01*
X156672315Y-81708089D01*
X156642112Y-81935964D01*
X143353080Y-81935964D01*
X143349264Y-81834331D01*
X143335372Y-81768121D01*
X143336139Y-81767960D01*
X143335159Y-81765684D01*
X143335063Y-81764592D01*
X143333639Y-81759278D01*
X143333536Y-81758693D01*
X143332362Y-81753778D01*
X143323886Y-81713378D01*
X143302061Y-81609363D01*
X143276025Y-81543434D01*
X143275276Y-81541459D01*
X143273903Y-81536337D01*
X143271053Y-81530225D01*
X143268066Y-81523283D01*
X143217628Y-81395564D01*
X143180727Y-81334754D01*
X143179189Y-81331874D01*
X143179110Y-81331920D01*
X143176361Y-81327159D01*
X143174035Y-81322171D01*
X143170876Y-81317659D01*
X143169326Y-81315445D01*
X143164819Y-81308538D01*
X143101147Y-81203609D01*
X143101145Y-81203606D01*
X143098379Y-81199048D01*
X143048007Y-81141000D01*
X143044445Y-81136437D01*
X143041652Y-81133108D01*
X143038495Y-81128599D01*
X143034604Y-81124708D01*
X143034599Y-81124702D01*
X143032209Y-81122313D01*
X143026139Y-81115799D01*
X142951224Y-81029467D01*
X142951222Y-81029465D01*
X142947724Y-81025434D01*
X142883692Y-80972930D01*
X142876426Y-80966348D01*
X142875294Y-80965398D01*
X142871401Y-80961505D01*
X142866897Y-80958351D01*
X142866892Y-80958347D01*
X142864064Y-80956367D01*
X142856446Y-80950590D01*
X142774099Y-80883069D01*
X142774093Y-80883065D01*
X142769971Y-80879685D01*
X142692645Y-80835669D01*
X142682704Y-80829378D01*
X142682340Y-80829123D01*
X142682333Y-80829119D01*
X142677829Y-80825965D01*
X142672845Y-80823641D01*
X142672840Y-80823638D01*
X142670125Y-80822372D01*
X142661048Y-80817682D01*
X142616939Y-80792574D01*
X142570202Y-80765970D01*
X142480502Y-80733410D01*
X142470247Y-80729167D01*
X142468652Y-80728423D01*
X142468650Y-80728422D01*
X142463663Y-80726097D01*
X142458347Y-80724673D01*
X142458345Y-80724672D01*
X142457281Y-80724387D01*
X142456298Y-80724124D01*
X142445919Y-80720857D01*
X142354129Y-80687539D01*
X142253557Y-80669352D01*
X142243384Y-80667074D01*
X142235408Y-80664937D01*
X142229010Y-80664377D01*
X142217588Y-80662848D01*
X142127931Y-80646636D01*
X142123792Y-80646441D01*
X142123785Y-80646440D01*
X142105330Y-80645570D01*
X142105323Y-80645570D01*
X142103842Y-80645500D01*
X141942288Y-80645500D01*
X141862556Y-80652265D01*
X141776267Y-80659587D01*
X141776263Y-80659588D01*
X141770956Y-80660038D01*
X141765801Y-80661376D01*
X141765795Y-80661377D01*
X141593058Y-80706211D01*
X141548461Y-80717786D01*
X141441497Y-80765970D01*
X141343738Y-80810007D01*
X141343735Y-80810008D01*
X141338877Y-80812197D01*
X141148197Y-80940570D01*
X141144340Y-80944249D01*
X141144338Y-80944251D01*
X141118404Y-80968991D01*
X140981872Y-81099236D01*
X140844658Y-81283658D01*
X140842242Y-81288409D01*
X140842240Y-81288413D01*
X140742898Y-81483806D01*
X140740480Y-81488562D01*
X140672315Y-81708089D01*
X140642112Y-81935964D01*
X140254500Y-81935964D01*
X140254500Y-81157609D01*
X140274502Y-81089488D01*
X140291404Y-81068514D01*
X141068512Y-80291405D01*
X141130825Y-80257380D01*
X141157608Y-80254500D01*
X158842391Y-80254500D01*
X158910512Y-80274502D01*
G37*
%TD.AperFunction*%
%TD*%
M02*
