%TF.GenerationSoftware,KiCad,Pcbnew,6.0.11-3.fc37*%
%TF.CreationDate,2023-04-24T22:35:32+02:00*%
%TF.ProjectId,crac_as5047,63726163-5f61-4733-9530-34372e6b6963,rev?*%
%TF.SameCoordinates,Original*%
%TF.FileFunction,Copper,L2,Bot*%
%TF.FilePolarity,Positive*%
%FSLAX46Y46*%
G04 Gerber Fmt 4.6, Leading zero omitted, Abs format (unit mm)*
G04 Created by KiCad (PCBNEW 6.0.11-3.fc37) date 2023-04-24 22:35:32*
%MOMM*%
%LPD*%
G01*
G04 APERTURE LIST*
G04 Aperture macros list*
%AMRoundRect*
0 Rectangle with rounded corners*
0 $1 Rounding radius*
0 $2 $3 $4 $5 $6 $7 $8 $9 X,Y pos of 4 corners*
0 Add a 4 corners polygon primitive as box body*
4,1,4,$2,$3,$4,$5,$6,$7,$8,$9,$2,$3,0*
0 Add four circle primitives for the rounded corners*
1,1,$1+$1,$2,$3*
1,1,$1+$1,$4,$5*
1,1,$1+$1,$6,$7*
1,1,$1+$1,$8,$9*
0 Add four rect primitives between the rounded corners*
20,1,$1+$1,$2,$3,$4,$5,0*
20,1,$1+$1,$4,$5,$6,$7,0*
20,1,$1+$1,$6,$7,$8,$9,0*
20,1,$1+$1,$8,$9,$2,$3,0*%
G04 Aperture macros list end*
%TA.AperFunction,ComponentPad*%
%ADD10C,1.308000*%
%TD*%
%TA.AperFunction,ComponentPad*%
%ADD11R,1.308000X1.308000*%
%TD*%
%TA.AperFunction,SMDPad,CuDef*%
%ADD12RoundRect,0.100000X0.637500X0.100000X-0.637500X0.100000X-0.637500X-0.100000X0.637500X-0.100000X0*%
%TD*%
%TA.AperFunction,SMDPad,CuDef*%
%ADD13RoundRect,0.250000X0.412500X0.650000X-0.412500X0.650000X-0.412500X-0.650000X0.412500X-0.650000X0*%
%TD*%
%TA.AperFunction,SMDPad,CuDef*%
%ADD14RoundRect,0.250000X0.650000X-0.412500X0.650000X0.412500X-0.650000X0.412500X-0.650000X-0.412500X0*%
%TD*%
%TA.AperFunction,Conductor*%
%ADD15C,0.250000*%
%TD*%
G04 APERTURE END LIST*
D10*
%TO.P,J1,4,NOIR*%
%TO.N,+5V*%
X153000000Y-93337500D03*
%TO.P,J1,3,ROUGE*%
%TO.N,/A*%
X151000000Y-93337500D03*
%TO.P,J1,2,BLANC*%
%TO.N,/B*%
X149000000Y-93337500D03*
D11*
%TO.P,J1,1,JAUNE*%
%TO.N,GND*%
X147000000Y-93337500D03*
%TD*%
D12*
%TO.P,U1,1,~{CS}*%
%TO.N,+3.3V*%
X152862500Y-88050000D03*
%TO.P,U1,2,CLK*%
%TO.N,GND*%
X152862500Y-88700000D03*
%TO.P,U1,3,MISO*%
%TO.N,unconnected-(U1-Pad3)*%
X152862500Y-89350000D03*
%TO.P,U1,4,MOSI*%
%TO.N,GND*%
X152862500Y-90000000D03*
%TO.P,U1,5,TST*%
X152862500Y-90650000D03*
%TO.P,U1,6,B*%
%TO.N,/B*%
X152862500Y-91300000D03*
%TO.P,U1,7,A*%
%TO.N,/A*%
X152862500Y-91950000D03*
%TO.P,U1,8,W/PWM*%
%TO.N,unconnected-(U1-Pad8)*%
X147137500Y-91950000D03*
%TO.P,U1,9,V*%
%TO.N,unconnected-(U1-Pad9)*%
X147137500Y-91300000D03*
%TO.P,U1,10,U*%
%TO.N,unconnected-(U1-Pad10)*%
X147137500Y-90650000D03*
%TO.P,U1,11,VDD*%
%TO.N,+5V*%
X147137500Y-90000000D03*
%TO.P,U1,12,VDD3V3*%
%TO.N,+3.3V*%
X147137500Y-89350000D03*
%TO.P,U1,13,GND*%
%TO.N,GND*%
X147137500Y-88700000D03*
%TO.P,U1,14,I/PWM*%
%TO.N,unconnected-(U1-Pad14)*%
X147137500Y-88050000D03*
%TD*%
D13*
%TO.P,C2,1*%
%TO.N,+3.3V*%
X148362500Y-85800000D03*
%TO.P,C2,2*%
%TO.N,GND*%
X145237500Y-85800000D03*
%TD*%
D14*
%TO.P,C1,1*%
%TO.N,+5V*%
X144700000Y-91362500D03*
%TO.P,C1,2*%
%TO.N,GND*%
X144700000Y-88237500D03*
%TD*%
D15*
%TO.N,GND*%
X145237500Y-85800000D02*
X145237500Y-84962500D01*
X145237500Y-84962500D02*
X146000000Y-84200000D01*
X146000000Y-84200000D02*
X151600000Y-84200000D01*
X153800000Y-88700000D02*
X152862500Y-88700000D01*
X151600000Y-84200000D02*
X154300000Y-86900000D01*
X154300000Y-86900000D02*
X154300000Y-88200000D01*
X154300000Y-88200000D02*
X153800000Y-88700000D01*
%TO.N,+5V*%
X153000000Y-93137500D02*
X151737500Y-94400000D01*
X151737500Y-94400000D02*
X145600000Y-94400000D01*
X145600000Y-94400000D02*
X144700000Y-93500000D01*
X144700000Y-93500000D02*
X144700000Y-91262500D01*
%TO.N,GND*%
X145237500Y-85800000D02*
X145237500Y-87600000D01*
X145237500Y-87600000D02*
X144700000Y-88137500D01*
%TO.N,+3.3V*%
X147137500Y-89350000D02*
X148350000Y-89350000D01*
X148350000Y-85812500D02*
X148350000Y-89350000D01*
X148350000Y-89350000D02*
X148450000Y-89350000D01*
X148362500Y-85800000D02*
X148350000Y-85812500D01*
X148450000Y-89350000D02*
X149050000Y-89350000D01*
%TO.N,GND*%
X147137500Y-88700000D02*
X145262500Y-88700000D01*
X145262500Y-88700000D02*
X144700000Y-88137500D01*
%TO.N,+5V*%
X147137500Y-90000000D02*
X145962500Y-90000000D01*
X145962500Y-90000000D02*
X144700000Y-91262500D01*
%TO.N,GND*%
X152862500Y-90650000D02*
X151150000Y-90650000D01*
X151700000Y-88700000D02*
X151150000Y-89250000D01*
X151150000Y-90650000D02*
X149846751Y-90650000D01*
X152862500Y-88700000D02*
X151700000Y-88700000D01*
X151150000Y-89250000D02*
X151150000Y-90650000D01*
X149846751Y-90650000D02*
X147359251Y-93137500D01*
X147359251Y-93137500D02*
X147000000Y-93137500D01*
%TO.N,/B*%
X152862500Y-91300000D02*
X150100000Y-91300000D01*
X150100000Y-91300000D02*
X149000000Y-92400000D01*
X149000000Y-92400000D02*
X149000000Y-93137500D01*
%TO.N,GND*%
X152862500Y-90650000D02*
X152862500Y-90000000D01*
%TO.N,+3.3V*%
X149050000Y-89350000D02*
X150350000Y-88050000D01*
X150350000Y-88050000D02*
X152862500Y-88050000D01*
%TO.N,/A*%
X151000000Y-93137500D02*
X151000000Y-92600000D01*
X151000000Y-92600000D02*
X151650000Y-91950000D01*
X151650000Y-91950000D02*
X152862500Y-91950000D01*
%TD*%
%TA.AperFunction,Conductor*%
%TO.N,GND*%
G36*
X158910512Y-80274502D02*
G01*
X158931486Y-80291404D01*
X159708595Y-81068512D01*
X159742620Y-81130825D01*
X159745500Y-81157608D01*
X159745500Y-98842392D01*
X159725498Y-98910513D01*
X159708595Y-98931488D01*
X158931486Y-99708596D01*
X158869174Y-99742621D01*
X158842391Y-99745500D01*
X141157608Y-99745500D01*
X141089487Y-99725498D01*
X141068512Y-99708595D01*
X140291404Y-98931486D01*
X140257379Y-98869174D01*
X140254500Y-98842391D01*
X140254500Y-97935964D01*
X140642112Y-97935964D01*
X140642312Y-97941292D01*
X140642312Y-97941294D01*
X140644464Y-97998599D01*
X140643705Y-97998628D01*
X140644034Y-98000016D01*
X140644340Y-97999989D01*
X140644374Y-98000377D01*
X140644465Y-98001838D01*
X140644523Y-98002085D01*
X140644648Y-98003507D01*
X140650736Y-98165669D01*
X140651831Y-98170888D01*
X140664628Y-98231879D01*
X140663861Y-98232040D01*
X140664841Y-98234316D01*
X140664937Y-98235408D01*
X140666361Y-98240722D01*
X140666464Y-98241307D01*
X140667635Y-98246210D01*
X140697939Y-98390637D01*
X140723365Y-98455021D01*
X140723975Y-98456566D01*
X140724724Y-98458541D01*
X140726097Y-98463663D01*
X140728422Y-98468649D01*
X140728423Y-98468651D01*
X140728947Y-98469775D01*
X140731934Y-98476717D01*
X140782372Y-98604436D01*
X140819273Y-98665246D01*
X140820811Y-98668126D01*
X140820890Y-98668080D01*
X140823639Y-98672841D01*
X140825965Y-98677829D01*
X140829122Y-98682337D01*
X140829124Y-98682341D01*
X140830674Y-98684555D01*
X140835181Y-98691462D01*
X140850279Y-98716342D01*
X140901621Y-98800952D01*
X140905116Y-98804979D01*
X140905117Y-98804981D01*
X140951993Y-98859000D01*
X140955555Y-98863563D01*
X140958346Y-98866888D01*
X140961505Y-98871401D01*
X140967791Y-98877687D01*
X140973861Y-98884201D01*
X140996694Y-98910513D01*
X141052276Y-98974566D01*
X141056407Y-98977953D01*
X141116309Y-99027070D01*
X141123574Y-99033652D01*
X141124706Y-99034602D01*
X141128599Y-99038495D01*
X141133103Y-99041649D01*
X141133108Y-99041653D01*
X141135936Y-99043633D01*
X141143554Y-99049410D01*
X141225901Y-99116931D01*
X141225907Y-99116935D01*
X141230029Y-99120315D01*
X141234668Y-99122955D01*
X141234667Y-99122955D01*
X141307355Y-99164331D01*
X141317296Y-99170622D01*
X141317660Y-99170877D01*
X141317667Y-99170881D01*
X141322171Y-99174035D01*
X141327155Y-99176359D01*
X141327160Y-99176362D01*
X141329875Y-99177628D01*
X141338952Y-99182318D01*
X141365945Y-99197683D01*
X141429798Y-99234030D01*
X141519498Y-99266590D01*
X141529753Y-99270833D01*
X141531348Y-99271577D01*
X141531350Y-99271578D01*
X141536337Y-99273903D01*
X141541653Y-99275327D01*
X141541655Y-99275328D01*
X141542719Y-99275613D01*
X141543702Y-99275876D01*
X141554081Y-99279143D01*
X141645871Y-99312461D01*
X141746443Y-99330648D01*
X141756616Y-99332926D01*
X141764592Y-99335063D01*
X141770990Y-99335623D01*
X141782412Y-99337152D01*
X141872069Y-99353364D01*
X141876208Y-99353559D01*
X141876215Y-99353560D01*
X141894670Y-99354430D01*
X141894677Y-99354430D01*
X141896158Y-99354500D01*
X142057712Y-99354500D01*
X142137444Y-99347735D01*
X142223733Y-99340413D01*
X142223737Y-99340412D01*
X142229044Y-99339962D01*
X142234199Y-99338624D01*
X142234205Y-99338623D01*
X142446368Y-99283556D01*
X142446367Y-99283556D01*
X142451539Y-99282214D01*
X142598412Y-99216052D01*
X142656262Y-99189993D01*
X142656265Y-99189992D01*
X142661123Y-99187803D01*
X142851803Y-99059430D01*
X142878826Y-99033652D01*
X143014271Y-98904443D01*
X143018128Y-98900764D01*
X143155342Y-98716342D01*
X143171504Y-98684555D01*
X143257102Y-98516194D01*
X143257102Y-98516193D01*
X143259520Y-98511438D01*
X143327685Y-98291911D01*
X143357888Y-98064036D01*
X143355536Y-98001401D01*
X143356295Y-98001372D01*
X143355966Y-97999984D01*
X143355660Y-98000011D01*
X143355626Y-97999623D01*
X143355535Y-97998162D01*
X143355477Y-97997915D01*
X143355352Y-97996493D01*
X143353080Y-97935964D01*
X156642112Y-97935964D01*
X156642312Y-97941292D01*
X156642312Y-97941294D01*
X156644464Y-97998599D01*
X156643705Y-97998628D01*
X156644034Y-98000016D01*
X156644340Y-97999989D01*
X156644374Y-98000377D01*
X156644465Y-98001838D01*
X156644523Y-98002085D01*
X156644648Y-98003507D01*
X156650736Y-98165669D01*
X156651831Y-98170888D01*
X156664628Y-98231879D01*
X156663861Y-98232040D01*
X156664841Y-98234316D01*
X156664937Y-98235408D01*
X156666361Y-98240722D01*
X156666464Y-98241307D01*
X156667635Y-98246210D01*
X156697939Y-98390637D01*
X156723365Y-98455021D01*
X156723975Y-98456566D01*
X156724724Y-98458541D01*
X156726097Y-98463663D01*
X156728422Y-98468649D01*
X156728423Y-98468651D01*
X156728947Y-98469775D01*
X156731934Y-98476717D01*
X156782372Y-98604436D01*
X156819273Y-98665246D01*
X156820811Y-98668126D01*
X156820890Y-98668080D01*
X156823639Y-98672841D01*
X156825965Y-98677829D01*
X156829122Y-98682337D01*
X156829124Y-98682341D01*
X156830674Y-98684555D01*
X156835181Y-98691462D01*
X156850279Y-98716342D01*
X156901621Y-98800952D01*
X156905116Y-98804979D01*
X156905117Y-98804981D01*
X156951993Y-98859000D01*
X156955555Y-98863563D01*
X156958346Y-98866888D01*
X156961505Y-98871401D01*
X156967791Y-98877687D01*
X156973861Y-98884201D01*
X156996694Y-98910513D01*
X157052276Y-98974566D01*
X157056407Y-98977953D01*
X157116309Y-99027070D01*
X157123574Y-99033652D01*
X157124706Y-99034602D01*
X157128599Y-99038495D01*
X157133103Y-99041649D01*
X157133108Y-99041653D01*
X157135936Y-99043633D01*
X157143554Y-99049410D01*
X157225901Y-99116931D01*
X157225907Y-99116935D01*
X157230029Y-99120315D01*
X157234668Y-99122955D01*
X157234667Y-99122955D01*
X157307355Y-99164331D01*
X157317296Y-99170622D01*
X157317660Y-99170877D01*
X157317667Y-99170881D01*
X157322171Y-99174035D01*
X157327155Y-99176359D01*
X157327160Y-99176362D01*
X157329875Y-99177628D01*
X157338952Y-99182318D01*
X157365945Y-99197683D01*
X157429798Y-99234030D01*
X157519498Y-99266590D01*
X157529753Y-99270833D01*
X157531348Y-99271577D01*
X157531350Y-99271578D01*
X157536337Y-99273903D01*
X157541653Y-99275327D01*
X157541655Y-99275328D01*
X157542719Y-99275613D01*
X157543702Y-99275876D01*
X157554081Y-99279143D01*
X157645871Y-99312461D01*
X157746443Y-99330648D01*
X157756616Y-99332926D01*
X157764592Y-99335063D01*
X157770990Y-99335623D01*
X157782412Y-99337152D01*
X157872069Y-99353364D01*
X157876208Y-99353559D01*
X157876215Y-99353560D01*
X157894670Y-99354430D01*
X157894677Y-99354430D01*
X157896158Y-99354500D01*
X158057712Y-99354500D01*
X158137444Y-99347735D01*
X158223733Y-99340413D01*
X158223737Y-99340412D01*
X158229044Y-99339962D01*
X158234199Y-99338624D01*
X158234205Y-99338623D01*
X158446368Y-99283556D01*
X158446367Y-99283556D01*
X158451539Y-99282214D01*
X158598412Y-99216052D01*
X158656262Y-99189993D01*
X158656265Y-99189992D01*
X158661123Y-99187803D01*
X158851803Y-99059430D01*
X158878826Y-99033652D01*
X159014271Y-98904443D01*
X159018128Y-98900764D01*
X159155342Y-98716342D01*
X159171504Y-98684555D01*
X159257102Y-98516194D01*
X159257102Y-98516193D01*
X159259520Y-98511438D01*
X159327685Y-98291911D01*
X159357888Y-98064036D01*
X159355536Y-98001401D01*
X159356295Y-98001372D01*
X159355966Y-97999984D01*
X159355660Y-98000011D01*
X159355626Y-97999623D01*
X159355535Y-97998162D01*
X159355477Y-97997915D01*
X159355352Y-97996493D01*
X159349264Y-97834331D01*
X159335372Y-97768121D01*
X159336139Y-97767960D01*
X159335159Y-97765684D01*
X159335063Y-97764592D01*
X159333639Y-97759278D01*
X159333536Y-97758693D01*
X159332362Y-97753778D01*
X159323886Y-97713378D01*
X159302061Y-97609363D01*
X159276025Y-97543434D01*
X159275276Y-97541459D01*
X159273903Y-97536337D01*
X159271053Y-97530225D01*
X159268066Y-97523283D01*
X159217628Y-97395564D01*
X159180727Y-97334754D01*
X159179189Y-97331874D01*
X159179110Y-97331920D01*
X159176361Y-97327159D01*
X159174035Y-97322171D01*
X159170876Y-97317659D01*
X159169326Y-97315445D01*
X159164819Y-97308538D01*
X159101147Y-97203609D01*
X159101145Y-97203606D01*
X159098379Y-97199048D01*
X159048007Y-97141000D01*
X159044445Y-97136437D01*
X159041652Y-97133108D01*
X159038495Y-97128599D01*
X159034604Y-97124708D01*
X159034599Y-97124702D01*
X159032209Y-97122313D01*
X159026139Y-97115799D01*
X158951224Y-97029467D01*
X158951222Y-97029465D01*
X158947724Y-97025434D01*
X158883692Y-96972930D01*
X158876426Y-96966348D01*
X158875294Y-96965398D01*
X158871401Y-96961505D01*
X158866897Y-96958351D01*
X158866892Y-96958347D01*
X158864064Y-96956367D01*
X158856446Y-96950590D01*
X158774099Y-96883069D01*
X158774093Y-96883065D01*
X158769971Y-96879685D01*
X158692645Y-96835669D01*
X158682704Y-96829378D01*
X158682340Y-96829123D01*
X158682333Y-96829119D01*
X158677829Y-96825965D01*
X158672845Y-96823641D01*
X158672840Y-96823638D01*
X158670125Y-96822372D01*
X158661048Y-96817682D01*
X158616939Y-96792574D01*
X158570202Y-96765970D01*
X158480502Y-96733410D01*
X158470247Y-96729167D01*
X158468652Y-96728423D01*
X158468650Y-96728422D01*
X158463663Y-96726097D01*
X158458347Y-96724673D01*
X158458345Y-96724672D01*
X158457281Y-96724387D01*
X158456298Y-96724124D01*
X158445919Y-96720857D01*
X158354129Y-96687539D01*
X158253557Y-96669352D01*
X158243384Y-96667074D01*
X158235408Y-96664937D01*
X158229010Y-96664377D01*
X158217588Y-96662848D01*
X158127931Y-96646636D01*
X158123792Y-96646441D01*
X158123785Y-96646440D01*
X158105330Y-96645570D01*
X158105323Y-96645570D01*
X158103842Y-96645500D01*
X157942288Y-96645500D01*
X157862556Y-96652265D01*
X157776267Y-96659587D01*
X157776263Y-96659588D01*
X157770956Y-96660038D01*
X157765801Y-96661376D01*
X157765795Y-96661377D01*
X157593058Y-96706211D01*
X157548461Y-96717786D01*
X157441497Y-96765970D01*
X157343738Y-96810007D01*
X157343735Y-96810008D01*
X157338877Y-96812197D01*
X157148197Y-96940570D01*
X157144340Y-96944249D01*
X157144338Y-96944251D01*
X157118404Y-96968991D01*
X156981872Y-97099236D01*
X156844658Y-97283658D01*
X156842242Y-97288409D01*
X156842240Y-97288413D01*
X156742898Y-97483806D01*
X156740480Y-97488562D01*
X156672315Y-97708089D01*
X156642112Y-97935964D01*
X143353080Y-97935964D01*
X143349264Y-97834331D01*
X143335372Y-97768121D01*
X143336139Y-97767960D01*
X143335159Y-97765684D01*
X143335063Y-97764592D01*
X143333639Y-97759278D01*
X143333536Y-97758693D01*
X143332362Y-97753778D01*
X143323886Y-97713378D01*
X143302061Y-97609363D01*
X143276025Y-97543434D01*
X143275276Y-97541459D01*
X143273903Y-97536337D01*
X143271053Y-97530225D01*
X143268066Y-97523283D01*
X143217628Y-97395564D01*
X143180727Y-97334754D01*
X143179189Y-97331874D01*
X143179110Y-97331920D01*
X143176361Y-97327159D01*
X143174035Y-97322171D01*
X143170876Y-97317659D01*
X143169326Y-97315445D01*
X143164819Y-97308538D01*
X143101147Y-97203609D01*
X143101145Y-97203606D01*
X143098379Y-97199048D01*
X143048007Y-97141000D01*
X143044445Y-97136437D01*
X143041652Y-97133108D01*
X143038495Y-97128599D01*
X143034604Y-97124708D01*
X143034599Y-97124702D01*
X143032209Y-97122313D01*
X143026139Y-97115799D01*
X142951224Y-97029467D01*
X142951222Y-97029465D01*
X142947724Y-97025434D01*
X142883692Y-96972930D01*
X142876426Y-96966348D01*
X142875294Y-96965398D01*
X142871401Y-96961505D01*
X142866897Y-96958351D01*
X142866892Y-96958347D01*
X142864064Y-96956367D01*
X142856446Y-96950590D01*
X142774099Y-96883069D01*
X142774093Y-96883065D01*
X142769971Y-96879685D01*
X142692645Y-96835669D01*
X142682704Y-96829378D01*
X142682340Y-96829123D01*
X142682333Y-96829119D01*
X142677829Y-96825965D01*
X142672845Y-96823641D01*
X142672840Y-96823638D01*
X142670125Y-96822372D01*
X142661048Y-96817682D01*
X142616939Y-96792574D01*
X142570202Y-96765970D01*
X142480502Y-96733410D01*
X142470247Y-96729167D01*
X142468652Y-96728423D01*
X142468650Y-96728422D01*
X142463663Y-96726097D01*
X142458347Y-96724673D01*
X142458345Y-96724672D01*
X142457281Y-96724387D01*
X142456298Y-96724124D01*
X142445919Y-96720857D01*
X142354129Y-96687539D01*
X142253557Y-96669352D01*
X142243384Y-96667074D01*
X142235408Y-96664937D01*
X142229010Y-96664377D01*
X142217588Y-96662848D01*
X142127931Y-96646636D01*
X142123792Y-96646441D01*
X142123785Y-96646440D01*
X142105330Y-96645570D01*
X142105323Y-96645570D01*
X142103842Y-96645500D01*
X141942288Y-96645500D01*
X141862556Y-96652265D01*
X141776267Y-96659587D01*
X141776263Y-96659588D01*
X141770956Y-96660038D01*
X141765801Y-96661376D01*
X141765795Y-96661377D01*
X141593058Y-96706211D01*
X141548461Y-96717786D01*
X141441497Y-96765970D01*
X141343738Y-96810007D01*
X141343735Y-96810008D01*
X141338877Y-96812197D01*
X141148197Y-96940570D01*
X141144340Y-96944249D01*
X141144338Y-96944251D01*
X141118404Y-96968991D01*
X140981872Y-97099236D01*
X140844658Y-97283658D01*
X140842242Y-97288409D01*
X140842240Y-97288413D01*
X140742898Y-97483806D01*
X140740480Y-97488562D01*
X140672315Y-97708089D01*
X140642112Y-97935964D01*
X140254500Y-97935964D01*
X140254500Y-88697095D01*
X143292001Y-88697095D01*
X143292338Y-88703614D01*
X143302257Y-88799206D01*
X143305149Y-88812600D01*
X143356588Y-88966784D01*
X143362761Y-88979962D01*
X143448063Y-89117807D01*
X143457099Y-89129208D01*
X143571829Y-89243739D01*
X143583240Y-89252751D01*
X143721243Y-89337816D01*
X143734424Y-89343963D01*
X143888710Y-89395138D01*
X143902086Y-89398005D01*
X143996438Y-89407672D01*
X144002854Y-89408000D01*
X144427885Y-89408000D01*
X144443124Y-89403525D01*
X144444329Y-89402135D01*
X144446000Y-89394452D01*
X144446000Y-88509615D01*
X144441525Y-88494376D01*
X144440135Y-88493171D01*
X144432452Y-88491500D01*
X143310116Y-88491500D01*
X143294877Y-88495975D01*
X143293672Y-88497365D01*
X143292001Y-88505048D01*
X143292001Y-88697095D01*
X140254500Y-88697095D01*
X140254500Y-87965385D01*
X143292000Y-87965385D01*
X143296475Y-87980624D01*
X143297865Y-87981829D01*
X143305548Y-87983500D01*
X144828000Y-87983500D01*
X144896121Y-88003502D01*
X144942614Y-88057158D01*
X144954000Y-88109500D01*
X144954000Y-89389884D01*
X144958475Y-89405123D01*
X144959865Y-89406328D01*
X144967548Y-89407999D01*
X145397095Y-89407999D01*
X145403614Y-89407662D01*
X145499206Y-89397743D01*
X145512600Y-89394851D01*
X145666784Y-89343412D01*
X145679962Y-89337239D01*
X145817807Y-89251937D01*
X145829209Y-89242901D01*
X145865728Y-89206318D01*
X145928011Y-89172240D01*
X145998831Y-89177243D01*
X146054861Y-89218631D01*
X146061346Y-89227082D01*
X146072917Y-89238653D01*
X146096205Y-89256523D01*
X146138072Y-89313862D01*
X146145500Y-89356485D01*
X146145500Y-89483602D01*
X146145836Y-89485883D01*
X146130988Y-89554698D01*
X146080871Y-89604985D01*
X146020298Y-89620500D01*
X146016425Y-89620500D01*
X145992467Y-89617950D01*
X145990808Y-89617872D01*
X145980624Y-89615679D01*
X145970282Y-89616903D01*
X145970279Y-89616903D01*
X145947279Y-89619626D01*
X145941348Y-89619976D01*
X145941356Y-89620072D01*
X145936180Y-89620500D01*
X145930976Y-89620500D01*
X145911912Y-89623673D01*
X145906066Y-89624504D01*
X145894617Y-89625859D01*
X145855159Y-89630530D01*
X145846907Y-89634493D01*
X145837874Y-89635996D01*
X145828705Y-89640943D01*
X145828703Y-89640944D01*
X145792768Y-89660334D01*
X145787476Y-89663031D01*
X145741268Y-89685219D01*
X145736993Y-89688813D01*
X145735068Y-89690738D01*
X145733138Y-89692509D01*
X145733053Y-89692555D01*
X145732941Y-89692432D01*
X145732406Y-89692904D01*
X145726686Y-89695990D01*
X145719619Y-89703635D01*
X145690084Y-89735586D01*
X145686654Y-89739152D01*
X145017211Y-90408595D01*
X144954899Y-90442621D01*
X144928116Y-90445500D01*
X144002244Y-90445500D01*
X143998848Y-90445869D01*
X143998847Y-90445869D01*
X143948403Y-90451349D01*
X143948402Y-90451349D01*
X143940552Y-90452202D01*
X143933159Y-90454974D01*
X143933157Y-90454974D01*
X143929332Y-90456408D01*
X143805236Y-90502929D01*
X143798057Y-90508309D01*
X143798054Y-90508311D01*
X143717359Y-90568789D01*
X143689596Y-90589596D01*
X143684215Y-90596776D01*
X143608311Y-90698054D01*
X143608309Y-90698057D01*
X143602929Y-90705236D01*
X143552202Y-90840552D01*
X143551349Y-90848402D01*
X143551349Y-90848403D01*
X143551319Y-90848680D01*
X143545500Y-90902244D01*
X143545500Y-91822756D01*
X143552202Y-91884448D01*
X143602929Y-92019764D01*
X143608309Y-92026943D01*
X143608311Y-92026946D01*
X143647345Y-92079029D01*
X143689596Y-92135404D01*
X143696776Y-92140785D01*
X143798054Y-92216689D01*
X143798057Y-92216691D01*
X143805236Y-92222071D01*
X143854970Y-92240715D01*
X143933157Y-92270026D01*
X143933159Y-92270026D01*
X143940552Y-92272798D01*
X143948402Y-92273651D01*
X143948403Y-92273651D01*
X143998847Y-92279131D01*
X144002244Y-92279500D01*
X144194500Y-92279500D01*
X144262621Y-92299502D01*
X144309114Y-92353158D01*
X144320500Y-92405500D01*
X144320500Y-93446080D01*
X144317951Y-93470028D01*
X144317872Y-93471693D01*
X144315680Y-93481876D01*
X144316904Y-93492217D01*
X144319627Y-93515223D01*
X144319977Y-93521154D01*
X144320072Y-93521146D01*
X144320500Y-93526324D01*
X144320500Y-93531524D01*
X144321354Y-93536653D01*
X144321354Y-93536656D01*
X144323669Y-93550565D01*
X144324506Y-93556443D01*
X144327308Y-93580114D01*
X144330530Y-93607341D01*
X144334493Y-93615593D01*
X144335996Y-93624626D01*
X144340943Y-93633795D01*
X144340944Y-93633797D01*
X144360334Y-93669732D01*
X144363031Y-93675025D01*
X144381785Y-93714082D01*
X144381788Y-93714086D01*
X144385219Y-93721232D01*
X144388814Y-93725508D01*
X144390737Y-93727431D01*
X144392509Y-93729363D01*
X144392552Y-93729442D01*
X144392428Y-93729555D01*
X144392904Y-93730095D01*
X144395990Y-93735814D01*
X144403635Y-93742881D01*
X144435586Y-93772416D01*
X144439152Y-93775846D01*
X145293522Y-94630216D01*
X145308664Y-94648964D01*
X145309779Y-94650189D01*
X145315429Y-94658940D01*
X145323607Y-94665387D01*
X145323609Y-94665389D01*
X145341800Y-94679729D01*
X145346244Y-94683678D01*
X145346306Y-94683604D01*
X145350263Y-94686957D01*
X145353944Y-94690638D01*
X145369654Y-94701865D01*
X145374380Y-94705413D01*
X145414647Y-94737156D01*
X145423284Y-94740189D01*
X145430734Y-94745513D01*
X145440710Y-94748497D01*
X145440711Y-94748497D01*
X145456046Y-94753083D01*
X145479849Y-94760202D01*
X145485486Y-94762034D01*
X145526199Y-94776331D01*
X145533851Y-94779018D01*
X145539416Y-94779500D01*
X145542124Y-94779500D01*
X145544758Y-94779614D01*
X145544856Y-94779643D01*
X145544849Y-94779807D01*
X145545553Y-94779851D01*
X145551778Y-94781713D01*
X145605635Y-94779597D01*
X145610582Y-94779500D01*
X151683580Y-94779500D01*
X151707528Y-94782049D01*
X151709193Y-94782128D01*
X151719376Y-94784320D01*
X151729717Y-94783096D01*
X151752723Y-94780373D01*
X151758654Y-94780023D01*
X151758646Y-94779928D01*
X151763824Y-94779500D01*
X151769024Y-94779500D01*
X151774153Y-94778646D01*
X151774156Y-94778646D01*
X151788065Y-94776331D01*
X151793943Y-94775494D01*
X151834501Y-94770694D01*
X151834502Y-94770694D01*
X151844841Y-94769470D01*
X151853093Y-94765507D01*
X151862126Y-94764004D01*
X151871295Y-94759057D01*
X151871297Y-94759056D01*
X151907232Y-94739666D01*
X151912525Y-94736969D01*
X151951582Y-94718215D01*
X151951586Y-94718212D01*
X151958732Y-94714781D01*
X151963008Y-94711186D01*
X151964931Y-94709263D01*
X151966863Y-94707491D01*
X151966942Y-94707448D01*
X151967055Y-94707572D01*
X151967595Y-94707096D01*
X151973314Y-94704010D01*
X152009917Y-94664413D01*
X152013346Y-94660848D01*
X152483625Y-94190569D01*
X152545937Y-94156543D01*
X152616752Y-94161608D01*
X152623969Y-94164557D01*
X152717712Y-94206294D01*
X152811113Y-94226147D01*
X152898056Y-94244628D01*
X152898061Y-94244628D01*
X152904513Y-94246000D01*
X153095487Y-94246000D01*
X153101939Y-94244628D01*
X153101944Y-94244628D01*
X153188887Y-94226147D01*
X153282288Y-94206294D01*
X153288319Y-94203609D01*
X153450722Y-94131303D01*
X153450724Y-94131302D01*
X153456752Y-94128618D01*
X153611253Y-94016366D01*
X153715584Y-93900495D01*
X153734621Y-93879352D01*
X153734622Y-93879351D01*
X153739040Y-93874444D01*
X153824623Y-93726210D01*
X153831223Y-93714779D01*
X153831224Y-93714778D01*
X153834527Y-93709056D01*
X153893542Y-93527428D01*
X153897008Y-93494456D01*
X153912814Y-93344065D01*
X153913504Y-93337500D01*
X153898280Y-93192651D01*
X153894232Y-93154135D01*
X153894232Y-93154133D01*
X153893542Y-93147572D01*
X153834527Y-92965944D01*
X153739040Y-92800556D01*
X153611253Y-92658634D01*
X153583993Y-92638828D01*
X153555735Y-92618298D01*
X153512381Y-92562076D01*
X153506306Y-92491340D01*
X153539437Y-92428548D01*
X153592404Y-92396038D01*
X153593592Y-92395669D01*
X153603278Y-92394243D01*
X153676754Y-92358168D01*
X153699868Y-92346820D01*
X153699870Y-92346819D01*
X153709216Y-92342230D01*
X153792595Y-92258706D01*
X153805658Y-92231983D01*
X153840127Y-92161465D01*
X153844423Y-92152677D01*
X153853053Y-92093522D01*
X153853840Y-92088128D01*
X153853840Y-92088124D01*
X153854500Y-92083602D01*
X153854500Y-91816398D01*
X153845757Y-91757003D01*
X153845669Y-91756408D01*
X153845669Y-91756407D01*
X153844243Y-91746722D01*
X153839926Y-91737929D01*
X153811760Y-91680560D01*
X153799692Y-91610597D01*
X153811663Y-91569697D01*
X153840127Y-91511465D01*
X153844423Y-91502677D01*
X153854500Y-91433602D01*
X153854500Y-91306485D01*
X153874502Y-91238364D01*
X153903795Y-91206523D01*
X153927083Y-91188653D01*
X153938656Y-91177080D01*
X154026059Y-91063176D01*
X154034247Y-91048993D01*
X154089189Y-90916351D01*
X154093428Y-90900531D01*
X154097716Y-90867960D01*
X154095505Y-90853778D01*
X154082348Y-90850000D01*
X153573589Y-90850000D01*
X153555400Y-90848680D01*
X153538128Y-90846160D01*
X153538124Y-90846160D01*
X153533602Y-90845500D01*
X152191398Y-90845500D01*
X152186849Y-90846170D01*
X152186844Y-90846170D01*
X152169952Y-90848657D01*
X152151602Y-90850000D01*
X151643035Y-90850000D01*
X151627796Y-90854475D01*
X151608266Y-90877013D01*
X151548540Y-90915396D01*
X151513042Y-90920500D01*
X150153920Y-90920500D01*
X150129972Y-90917951D01*
X150128307Y-90917872D01*
X150118124Y-90915680D01*
X150107783Y-90916904D01*
X150084777Y-90919627D01*
X150078846Y-90919977D01*
X150078854Y-90920072D01*
X150073676Y-90920500D01*
X150068476Y-90920500D01*
X150063347Y-90921354D01*
X150063344Y-90921354D01*
X150049435Y-90923669D01*
X150043557Y-90924506D01*
X150002999Y-90929306D01*
X150002998Y-90929306D01*
X149992659Y-90930530D01*
X149984407Y-90934493D01*
X149975374Y-90935996D01*
X149966205Y-90940943D01*
X149966203Y-90940944D01*
X149930268Y-90960334D01*
X149924975Y-90963031D01*
X149885918Y-90981785D01*
X149885914Y-90981788D01*
X149878768Y-90985219D01*
X149874492Y-90988814D01*
X149872569Y-90990737D01*
X149870637Y-90992509D01*
X149870558Y-90992552D01*
X149870445Y-90992428D01*
X149869905Y-90992904D01*
X149864186Y-90995990D01*
X149857119Y-91003635D01*
X149827584Y-91035586D01*
X149824154Y-91039152D01*
X148769784Y-92093522D01*
X148751036Y-92108664D01*
X148749811Y-92109779D01*
X148741060Y-92115429D01*
X148734613Y-92123607D01*
X148734611Y-92123609D01*
X148720271Y-92141800D01*
X148716325Y-92146241D01*
X148716398Y-92146303D01*
X148713039Y-92150267D01*
X148709362Y-92153944D01*
X148698108Y-92169692D01*
X148694602Y-92174362D01*
X148662844Y-92214647D01*
X148659812Y-92223281D01*
X148654486Y-92230734D01*
X148651501Y-92240715D01*
X148639799Y-92279844D01*
X148637964Y-92285492D01*
X148633044Y-92299502D01*
X148620982Y-92333851D01*
X148620500Y-92339416D01*
X148620500Y-92342124D01*
X148620386Y-92344758D01*
X148620357Y-92344856D01*
X148620193Y-92344849D01*
X148620149Y-92345553D01*
X148618287Y-92351778D01*
X148620018Y-92395835D01*
X148620403Y-92405635D01*
X148620500Y-92410582D01*
X148620500Y-92430161D01*
X148600498Y-92498282D01*
X148553820Y-92538347D01*
X148555001Y-92540393D01*
X148549278Y-92543697D01*
X148543248Y-92546382D01*
X148537907Y-92550262D01*
X148537906Y-92550263D01*
X148487843Y-92586636D01*
X148388747Y-92658634D01*
X148377139Y-92671526D01*
X148316696Y-92708764D01*
X148245712Y-92707413D01*
X148186728Y-92667899D01*
X148158242Y-92600821D01*
X148156105Y-92581147D01*
X148152479Y-92565896D01*
X148107324Y-92445446D01*
X148098789Y-92429856D01*
X148074435Y-92397361D01*
X148049588Y-92330854D01*
X148064587Y-92261719D01*
X148067595Y-92258706D01*
X148119423Y-92152677D01*
X148128053Y-92093522D01*
X148128840Y-92088128D01*
X148128840Y-92088124D01*
X148129500Y-92083602D01*
X148129500Y-91816398D01*
X148120757Y-91757003D01*
X148120669Y-91756408D01*
X148120669Y-91756407D01*
X148119243Y-91746722D01*
X148114926Y-91737929D01*
X148086760Y-91680560D01*
X148074692Y-91610597D01*
X148086663Y-91569697D01*
X148115127Y-91511465D01*
X148119423Y-91502677D01*
X148129500Y-91433602D01*
X148129500Y-91166398D01*
X148120757Y-91107003D01*
X148120669Y-91106408D01*
X148120669Y-91106407D01*
X148119243Y-91096722D01*
X148102773Y-91063176D01*
X148086760Y-91030560D01*
X148074692Y-90960597D01*
X148086663Y-90919697D01*
X148095194Y-90902244D01*
X148119423Y-90852677D01*
X148129500Y-90783602D01*
X148129500Y-90516398D01*
X148119243Y-90446722D01*
X148112220Y-90432417D01*
X148086760Y-90380560D01*
X148074692Y-90310597D01*
X148086663Y-90269697D01*
X148088519Y-90265899D01*
X148112137Y-90217583D01*
X151627235Y-90217583D01*
X151631572Y-90250533D01*
X151635809Y-90266345D01*
X151640131Y-90276779D01*
X151647722Y-90347369D01*
X151640131Y-90373221D01*
X151635810Y-90383652D01*
X151631572Y-90399469D01*
X151627284Y-90432040D01*
X151629495Y-90446222D01*
X151642652Y-90450000D01*
X152644385Y-90450000D01*
X152659624Y-90445525D01*
X152660829Y-90444135D01*
X152662500Y-90436452D01*
X152662500Y-90431885D01*
X153062500Y-90431885D01*
X153066975Y-90447124D01*
X153068365Y-90448329D01*
X153076048Y-90450000D01*
X154081965Y-90450000D01*
X154095736Y-90445956D01*
X154097765Y-90432417D01*
X154093428Y-90399467D01*
X154089191Y-90383655D01*
X154084869Y-90373221D01*
X154077278Y-90302631D01*
X154084869Y-90276779D01*
X154089190Y-90266348D01*
X154093428Y-90250531D01*
X154097716Y-90217960D01*
X154095505Y-90203778D01*
X154082348Y-90200000D01*
X153080615Y-90200000D01*
X153065376Y-90204475D01*
X153064171Y-90205865D01*
X153062500Y-90213548D01*
X153062500Y-90431885D01*
X152662500Y-90431885D01*
X152662500Y-90218115D01*
X152658025Y-90202876D01*
X152656635Y-90201671D01*
X152648952Y-90200000D01*
X151643035Y-90200000D01*
X151629264Y-90204044D01*
X151627235Y-90217583D01*
X148112137Y-90217583D01*
X148119423Y-90202677D01*
X148129500Y-90133602D01*
X148129500Y-89866398D01*
X148129164Y-89864117D01*
X148144012Y-89795302D01*
X148194129Y-89745015D01*
X148254702Y-89729500D01*
X148327854Y-89729500D01*
X148338727Y-89729970D01*
X148380187Y-89733561D01*
X148390295Y-89731050D01*
X148400678Y-89730233D01*
X148400728Y-89730873D01*
X148411952Y-89729500D01*
X148996080Y-89729500D01*
X149020028Y-89732049D01*
X149021693Y-89732128D01*
X149031876Y-89734320D01*
X149042217Y-89733096D01*
X149065223Y-89730373D01*
X149071154Y-89730023D01*
X149071146Y-89729928D01*
X149076324Y-89729500D01*
X149081524Y-89729500D01*
X149086653Y-89728646D01*
X149086656Y-89728646D01*
X149100565Y-89726331D01*
X149106443Y-89725494D01*
X149147001Y-89720694D01*
X149147002Y-89720694D01*
X149157341Y-89719470D01*
X149165593Y-89715507D01*
X149174626Y-89714004D01*
X149183795Y-89709057D01*
X149183797Y-89709056D01*
X149219732Y-89689666D01*
X149225025Y-89686969D01*
X149264082Y-89668215D01*
X149264086Y-89668212D01*
X149271232Y-89664781D01*
X149275508Y-89661186D01*
X149277431Y-89659263D01*
X149279363Y-89657491D01*
X149279442Y-89657448D01*
X149279555Y-89657572D01*
X149280095Y-89657096D01*
X149285814Y-89654010D01*
X149322417Y-89614413D01*
X149325846Y-89610848D01*
X150019111Y-88917583D01*
X151627235Y-88917583D01*
X151631572Y-88950533D01*
X151635810Y-88966348D01*
X151690753Y-89098993D01*
X151698941Y-89113176D01*
X151786344Y-89227080D01*
X151797917Y-89238653D01*
X151812754Y-89250038D01*
X151854621Y-89307376D01*
X151858842Y-89378247D01*
X151824077Y-89440150D01*
X151812754Y-89449962D01*
X151797917Y-89461347D01*
X151786344Y-89472920D01*
X151698941Y-89586824D01*
X151690753Y-89601007D01*
X151635811Y-89733649D01*
X151631572Y-89749469D01*
X151627284Y-89782040D01*
X151629495Y-89796222D01*
X151642652Y-89800000D01*
X152151411Y-89800000D01*
X152169600Y-89801320D01*
X152186872Y-89803840D01*
X152186876Y-89803840D01*
X152191398Y-89804500D01*
X153533602Y-89804500D01*
X153538151Y-89803830D01*
X153538156Y-89803830D01*
X153555048Y-89801343D01*
X153573398Y-89800000D01*
X154081965Y-89800000D01*
X154095736Y-89795956D01*
X154097765Y-89782417D01*
X154093428Y-89749467D01*
X154089190Y-89733652D01*
X154034247Y-89601007D01*
X154026059Y-89586824D01*
X153938656Y-89472920D01*
X153927083Y-89461347D01*
X153912246Y-89449962D01*
X153870379Y-89392624D01*
X153866158Y-89321753D01*
X153900923Y-89259850D01*
X153912246Y-89250038D01*
X153927083Y-89238653D01*
X153938656Y-89227080D01*
X154026059Y-89113176D01*
X154034247Y-89098993D01*
X154089189Y-88966351D01*
X154093428Y-88950531D01*
X154097716Y-88917960D01*
X154095505Y-88903778D01*
X154082348Y-88900000D01*
X153573589Y-88900000D01*
X153555400Y-88898680D01*
X153538128Y-88896160D01*
X153538124Y-88896160D01*
X153533602Y-88895500D01*
X152191398Y-88895500D01*
X152186849Y-88896170D01*
X152186844Y-88896170D01*
X152169952Y-88898657D01*
X152151602Y-88900000D01*
X151643035Y-88900000D01*
X151629264Y-88904044D01*
X151627235Y-88917583D01*
X150019111Y-88917583D01*
X150470289Y-88466405D01*
X150532601Y-88432379D01*
X150559384Y-88429500D01*
X151512532Y-88429500D01*
X151580653Y-88449502D01*
X151606768Y-88471861D01*
X151628011Y-88495796D01*
X151642652Y-88500000D01*
X152151411Y-88500000D01*
X152169600Y-88501320D01*
X152186872Y-88503840D01*
X152186876Y-88503840D01*
X152191398Y-88504500D01*
X153533602Y-88504500D01*
X153538151Y-88503830D01*
X153538156Y-88503830D01*
X153555048Y-88501343D01*
X153573398Y-88500000D01*
X154081965Y-88500000D01*
X154095736Y-88495956D01*
X154097765Y-88482417D01*
X154093428Y-88449467D01*
X154089190Y-88433652D01*
X154034247Y-88301007D01*
X154026059Y-88286824D01*
X153938656Y-88172920D01*
X153927083Y-88161347D01*
X153903795Y-88143477D01*
X153861928Y-88086138D01*
X153854500Y-88043515D01*
X153854500Y-87916398D01*
X153844243Y-87846722D01*
X153810431Y-87777855D01*
X153796820Y-87750132D01*
X153796819Y-87750130D01*
X153792230Y-87740784D01*
X153708706Y-87657405D01*
X153695501Y-87650950D01*
X153666036Y-87636547D01*
X153602677Y-87605577D01*
X153572355Y-87601153D01*
X153538128Y-87596160D01*
X153538124Y-87596160D01*
X153533602Y-87595500D01*
X152191398Y-87595500D01*
X152186848Y-87596170D01*
X152186845Y-87596170D01*
X152131408Y-87604331D01*
X152131407Y-87604331D01*
X152121722Y-87605757D01*
X152107960Y-87612514D01*
X152016124Y-87657603D01*
X151960593Y-87670500D01*
X150403925Y-87670500D01*
X150379967Y-87667950D01*
X150378308Y-87667872D01*
X150368124Y-87665679D01*
X150357782Y-87666903D01*
X150357779Y-87666903D01*
X150334779Y-87669626D01*
X150328848Y-87669976D01*
X150328856Y-87670072D01*
X150323680Y-87670500D01*
X150318476Y-87670500D01*
X150299412Y-87673673D01*
X150293566Y-87674504D01*
X150282117Y-87675859D01*
X150242659Y-87680530D01*
X150234407Y-87684493D01*
X150225374Y-87685996D01*
X150216205Y-87690943D01*
X150216203Y-87690944D01*
X150180268Y-87710334D01*
X150174976Y-87713031D01*
X150128768Y-87735219D01*
X150124493Y-87738813D01*
X150122568Y-87740738D01*
X150120638Y-87742509D01*
X150120553Y-87742555D01*
X150120441Y-87742432D01*
X150119906Y-87742904D01*
X150114186Y-87745990D01*
X150107119Y-87753635D01*
X150077584Y-87785586D01*
X150074154Y-87789152D01*
X148944595Y-88918711D01*
X148882283Y-88952737D01*
X148811468Y-88947672D01*
X148754632Y-88905125D01*
X148729821Y-88838605D01*
X148729500Y-88829616D01*
X148729500Y-87077684D01*
X148749502Y-87009563D01*
X148803158Y-86963070D01*
X148841891Y-86952421D01*
X148855586Y-86950933D01*
X148876598Y-86948651D01*
X148876600Y-86948651D01*
X148884448Y-86947798D01*
X148891841Y-86945026D01*
X148891843Y-86945026D01*
X148936804Y-86928171D01*
X149019764Y-86897071D01*
X149026943Y-86891691D01*
X149026946Y-86891689D01*
X149128224Y-86815785D01*
X149135404Y-86810404D01*
X149169001Y-86765576D01*
X149216689Y-86701946D01*
X149216691Y-86701943D01*
X149222071Y-86694764D01*
X149272798Y-86559448D01*
X149279500Y-86497756D01*
X149279500Y-85102244D01*
X149272798Y-85040552D01*
X149222071Y-84905236D01*
X149216691Y-84898057D01*
X149216689Y-84898054D01*
X149140785Y-84796776D01*
X149135404Y-84789596D01*
X149114977Y-84774287D01*
X149026946Y-84708311D01*
X149026943Y-84708309D01*
X149019764Y-84702929D01*
X148930046Y-84669296D01*
X148891843Y-84654974D01*
X148891841Y-84654974D01*
X148884448Y-84652202D01*
X148876598Y-84651349D01*
X148876597Y-84651349D01*
X148826153Y-84645869D01*
X148826152Y-84645869D01*
X148822756Y-84645500D01*
X147902244Y-84645500D01*
X147898848Y-84645869D01*
X147898847Y-84645869D01*
X147848403Y-84651349D01*
X147848402Y-84651349D01*
X147840552Y-84652202D01*
X147833159Y-84654974D01*
X147833157Y-84654974D01*
X147794954Y-84669296D01*
X147705236Y-84702929D01*
X147698057Y-84708309D01*
X147698054Y-84708311D01*
X147610023Y-84774287D01*
X147589596Y-84789596D01*
X147584215Y-84796776D01*
X147508311Y-84898054D01*
X147508309Y-84898057D01*
X147502929Y-84905236D01*
X147452202Y-85040552D01*
X147445500Y-85102244D01*
X147445500Y-86497756D01*
X147452202Y-86559448D01*
X147502929Y-86694764D01*
X147508309Y-86701943D01*
X147508311Y-86701946D01*
X147555999Y-86765576D01*
X147589596Y-86810404D01*
X147596776Y-86815785D01*
X147698054Y-86891689D01*
X147698057Y-86891691D01*
X147705236Y-86897071D01*
X147788196Y-86928171D01*
X147833157Y-86945026D01*
X147833159Y-86945026D01*
X147840552Y-86947798D01*
X147848402Y-86948651D01*
X147848403Y-86948651D01*
X147852842Y-86949133D01*
X147858107Y-86949705D01*
X147923669Y-86976946D01*
X147964096Y-87035309D01*
X147970500Y-87074968D01*
X147970500Y-87473403D01*
X147950498Y-87541524D01*
X147896842Y-87588017D01*
X147826314Y-87598084D01*
X147808602Y-87595500D01*
X146466398Y-87595500D01*
X146461848Y-87596170D01*
X146461845Y-87596170D01*
X146406408Y-87604331D01*
X146406407Y-87604331D01*
X146396722Y-87605757D01*
X146382960Y-87612514D01*
X146300132Y-87653180D01*
X146300130Y-87653181D01*
X146290784Y-87657770D01*
X146283427Y-87665140D01*
X146274958Y-87671203D01*
X146273409Y-87669040D01*
X146224626Y-87695734D01*
X146153806Y-87690733D01*
X146096932Y-87648238D01*
X146078208Y-87612514D01*
X146043412Y-87508216D01*
X146037239Y-87495038D01*
X145951937Y-87357193D01*
X145942902Y-87345794D01*
X145939782Y-87342679D01*
X145905701Y-87280398D01*
X145910702Y-87209577D01*
X145953197Y-87152703D01*
X145975342Y-87139404D01*
X145979957Y-87137242D01*
X146117807Y-87051937D01*
X146129208Y-87042901D01*
X146243739Y-86928171D01*
X146252751Y-86916760D01*
X146337816Y-86778757D01*
X146343963Y-86765576D01*
X146395138Y-86611290D01*
X146398005Y-86597914D01*
X146407672Y-86503562D01*
X146408000Y-86497146D01*
X146408000Y-86072115D01*
X146403525Y-86056876D01*
X146402135Y-86055671D01*
X146394452Y-86054000D01*
X144085116Y-86054000D01*
X144069877Y-86058475D01*
X144068672Y-86059865D01*
X144067001Y-86067548D01*
X144067001Y-86497095D01*
X144067338Y-86503614D01*
X144077257Y-86599206D01*
X144080149Y-86612600D01*
X144131588Y-86766784D01*
X144137762Y-86779962D01*
X144196386Y-86874698D01*
X144215224Y-86943150D01*
X144194063Y-87010919D01*
X144139622Y-87056491D01*
X144089242Y-87067001D01*
X144002905Y-87067001D01*
X143996386Y-87067338D01*
X143900794Y-87077257D01*
X143887400Y-87080149D01*
X143733216Y-87131588D01*
X143720038Y-87137761D01*
X143582193Y-87223063D01*
X143570792Y-87232099D01*
X143456261Y-87346829D01*
X143447249Y-87358240D01*
X143362184Y-87496243D01*
X143356037Y-87509424D01*
X143304862Y-87663710D01*
X143301995Y-87677086D01*
X143292328Y-87771438D01*
X143292000Y-87777855D01*
X143292000Y-87965385D01*
X140254500Y-87965385D01*
X140254500Y-85527885D01*
X144067000Y-85527885D01*
X144071475Y-85543124D01*
X144072865Y-85544329D01*
X144080548Y-85546000D01*
X144965385Y-85546000D01*
X144980624Y-85541525D01*
X144981829Y-85540135D01*
X144983500Y-85532452D01*
X144983500Y-85527885D01*
X145491500Y-85527885D01*
X145495975Y-85543124D01*
X145497365Y-85544329D01*
X145505048Y-85546000D01*
X146389884Y-85546000D01*
X146405123Y-85541525D01*
X146406328Y-85540135D01*
X146407999Y-85532452D01*
X146407999Y-85102905D01*
X146407662Y-85096386D01*
X146397743Y-85000794D01*
X146394851Y-84987400D01*
X146343412Y-84833216D01*
X146337239Y-84820038D01*
X146251937Y-84682193D01*
X146242901Y-84670792D01*
X146128171Y-84556261D01*
X146116760Y-84547249D01*
X145978757Y-84462184D01*
X145965576Y-84456037D01*
X145811290Y-84404862D01*
X145797914Y-84401995D01*
X145703562Y-84392328D01*
X145697145Y-84392000D01*
X145509615Y-84392000D01*
X145494376Y-84396475D01*
X145493171Y-84397865D01*
X145491500Y-84405548D01*
X145491500Y-85527885D01*
X144983500Y-85527885D01*
X144983500Y-84410116D01*
X144979025Y-84394877D01*
X144977635Y-84393672D01*
X144969952Y-84392001D01*
X144777905Y-84392001D01*
X144771386Y-84392338D01*
X144675794Y-84402257D01*
X144662400Y-84405149D01*
X144508216Y-84456588D01*
X144495038Y-84462761D01*
X144357193Y-84548063D01*
X144345792Y-84557099D01*
X144231261Y-84671829D01*
X144222249Y-84683240D01*
X144137184Y-84821243D01*
X144131037Y-84834424D01*
X144079862Y-84988710D01*
X144076995Y-85002086D01*
X144067328Y-85096438D01*
X144067000Y-85102855D01*
X144067000Y-85527885D01*
X140254500Y-85527885D01*
X140254500Y-81935964D01*
X140642112Y-81935964D01*
X140642312Y-81941292D01*
X140642312Y-81941294D01*
X140644464Y-81998599D01*
X140643705Y-81998628D01*
X140644034Y-82000016D01*
X140644340Y-81999989D01*
X140644374Y-82000377D01*
X140644465Y-82001838D01*
X140644523Y-82002085D01*
X140644648Y-82003507D01*
X140650736Y-82165669D01*
X140651831Y-82170888D01*
X140664628Y-82231879D01*
X140663861Y-82232040D01*
X140664841Y-82234316D01*
X140664937Y-82235408D01*
X140666361Y-82240722D01*
X140666464Y-82241307D01*
X140667635Y-82246210D01*
X140697939Y-82390637D01*
X140723365Y-82455021D01*
X140723975Y-82456566D01*
X140724724Y-82458541D01*
X140726097Y-82463663D01*
X140728422Y-82468649D01*
X140728423Y-82468651D01*
X140728947Y-82469775D01*
X140731934Y-82476717D01*
X140782372Y-82604436D01*
X140819273Y-82665246D01*
X140820811Y-82668126D01*
X140820890Y-82668080D01*
X140823639Y-82672841D01*
X140825965Y-82677829D01*
X140829122Y-82682337D01*
X140829124Y-82682341D01*
X140830674Y-82684555D01*
X140835181Y-82691462D01*
X140850279Y-82716342D01*
X140901621Y-82800952D01*
X140905116Y-82804979D01*
X140905117Y-82804981D01*
X140951993Y-82859000D01*
X140955555Y-82863563D01*
X140958346Y-82866888D01*
X140961505Y-82871401D01*
X140967791Y-82877687D01*
X140973861Y-82884201D01*
X141052276Y-82974566D01*
X141056407Y-82977953D01*
X141116309Y-83027070D01*
X141123574Y-83033652D01*
X141124706Y-83034602D01*
X141128599Y-83038495D01*
X141133103Y-83041649D01*
X141133108Y-83041653D01*
X141135936Y-83043633D01*
X141143554Y-83049410D01*
X141225901Y-83116931D01*
X141225907Y-83116935D01*
X141230029Y-83120315D01*
X141234668Y-83122955D01*
X141234667Y-83122955D01*
X141307355Y-83164331D01*
X141317296Y-83170622D01*
X141317660Y-83170877D01*
X141317667Y-83170881D01*
X141322171Y-83174035D01*
X141327155Y-83176359D01*
X141327160Y-83176362D01*
X141329875Y-83177628D01*
X141338952Y-83182318D01*
X141383061Y-83207426D01*
X141429798Y-83234030D01*
X141519498Y-83266590D01*
X141529753Y-83270833D01*
X141531348Y-83271577D01*
X141531350Y-83271578D01*
X141536337Y-83273903D01*
X141541653Y-83275327D01*
X141541655Y-83275328D01*
X141542719Y-83275613D01*
X141543702Y-83275876D01*
X141554081Y-83279143D01*
X141645871Y-83312461D01*
X141746443Y-83330648D01*
X141756616Y-83332926D01*
X141764592Y-83335063D01*
X141770990Y-83335623D01*
X141782412Y-83337152D01*
X141872069Y-83353364D01*
X141876208Y-83353559D01*
X141876215Y-83353560D01*
X141894670Y-83354430D01*
X141894677Y-83354430D01*
X141896158Y-83354500D01*
X142057712Y-83354500D01*
X142137444Y-83347735D01*
X142223733Y-83340413D01*
X142223737Y-83340412D01*
X142229044Y-83339962D01*
X142234199Y-83338624D01*
X142234205Y-83338623D01*
X142446368Y-83283556D01*
X142446367Y-83283556D01*
X142451539Y-83282214D01*
X142598412Y-83216052D01*
X142656262Y-83189993D01*
X142656265Y-83189992D01*
X142661123Y-83187803D01*
X142851803Y-83059430D01*
X142878826Y-83033652D01*
X143014271Y-82904443D01*
X143018128Y-82900764D01*
X143155342Y-82716342D01*
X143171504Y-82684555D01*
X143257102Y-82516194D01*
X143257102Y-82516193D01*
X143259520Y-82511438D01*
X143327685Y-82291911D01*
X143357888Y-82064036D01*
X143355536Y-82001401D01*
X143356295Y-82001372D01*
X143355966Y-81999984D01*
X143355660Y-82000011D01*
X143355626Y-81999623D01*
X143355535Y-81998162D01*
X143355477Y-81997915D01*
X143355352Y-81996493D01*
X143353080Y-81935964D01*
X156642112Y-81935964D01*
X156642312Y-81941292D01*
X156642312Y-81941294D01*
X156644464Y-81998599D01*
X156643705Y-81998628D01*
X156644034Y-82000016D01*
X156644340Y-81999989D01*
X156644374Y-82000377D01*
X156644465Y-82001838D01*
X156644523Y-82002085D01*
X156644648Y-82003507D01*
X156650736Y-82165669D01*
X156651831Y-82170888D01*
X156664628Y-82231879D01*
X156663861Y-82232040D01*
X156664841Y-82234316D01*
X156664937Y-82235408D01*
X156666361Y-82240722D01*
X156666464Y-82241307D01*
X156667635Y-82246210D01*
X156697939Y-82390637D01*
X156723365Y-82455021D01*
X156723975Y-82456566D01*
X156724724Y-82458541D01*
X156726097Y-82463663D01*
X156728422Y-82468649D01*
X156728423Y-82468651D01*
X156728947Y-82469775D01*
X156731934Y-82476717D01*
X156782372Y-82604436D01*
X156819273Y-82665246D01*
X156820811Y-82668126D01*
X156820890Y-82668080D01*
X156823639Y-82672841D01*
X156825965Y-82677829D01*
X156829122Y-82682337D01*
X156829124Y-82682341D01*
X156830674Y-82684555D01*
X156835181Y-82691462D01*
X156850279Y-82716342D01*
X156901621Y-82800952D01*
X156905116Y-82804979D01*
X156905117Y-82804981D01*
X156951993Y-82859000D01*
X156955555Y-82863563D01*
X156958346Y-82866888D01*
X156961505Y-82871401D01*
X156967791Y-82877687D01*
X156973861Y-82884201D01*
X157052276Y-82974566D01*
X157056407Y-82977953D01*
X157116309Y-83027070D01*
X157123574Y-83033652D01*
X157124706Y-83034602D01*
X157128599Y-83038495D01*
X157133103Y-83041649D01*
X157133108Y-83041653D01*
X157135936Y-83043633D01*
X157143554Y-83049410D01*
X157225901Y-83116931D01*
X157225907Y-83116935D01*
X157230029Y-83120315D01*
X157234668Y-83122955D01*
X157234667Y-83122955D01*
X157307355Y-83164331D01*
X157317296Y-83170622D01*
X157317660Y-83170877D01*
X157317667Y-83170881D01*
X157322171Y-83174035D01*
X157327155Y-83176359D01*
X157327160Y-83176362D01*
X157329875Y-83177628D01*
X157338952Y-83182318D01*
X157383061Y-83207426D01*
X157429798Y-83234030D01*
X157519498Y-83266590D01*
X157529753Y-83270833D01*
X157531348Y-83271577D01*
X157531350Y-83271578D01*
X157536337Y-83273903D01*
X157541653Y-83275327D01*
X157541655Y-83275328D01*
X157542719Y-83275613D01*
X157543702Y-83275876D01*
X157554081Y-83279143D01*
X157645871Y-83312461D01*
X157746443Y-83330648D01*
X157756616Y-83332926D01*
X157764592Y-83335063D01*
X157770990Y-83335623D01*
X157782412Y-83337152D01*
X157872069Y-83353364D01*
X157876208Y-83353559D01*
X157876215Y-83353560D01*
X157894670Y-83354430D01*
X157894677Y-83354430D01*
X157896158Y-83354500D01*
X158057712Y-83354500D01*
X158137444Y-83347735D01*
X158223733Y-83340413D01*
X158223737Y-83340412D01*
X158229044Y-83339962D01*
X158234199Y-83338624D01*
X158234205Y-83338623D01*
X158446368Y-83283556D01*
X158446367Y-83283556D01*
X158451539Y-83282214D01*
X158598412Y-83216052D01*
X158656262Y-83189993D01*
X158656265Y-83189992D01*
X158661123Y-83187803D01*
X158851803Y-83059430D01*
X158878826Y-83033652D01*
X159014271Y-82904443D01*
X159018128Y-82900764D01*
X159155342Y-82716342D01*
X159171504Y-82684555D01*
X159257102Y-82516194D01*
X159257102Y-82516193D01*
X159259520Y-82511438D01*
X159327685Y-82291911D01*
X159357888Y-82064036D01*
X159355536Y-82001401D01*
X159356295Y-82001372D01*
X159355966Y-81999984D01*
X159355660Y-82000011D01*
X159355626Y-81999623D01*
X159355535Y-81998162D01*
X159355477Y-81997915D01*
X159355352Y-81996493D01*
X159349264Y-81834331D01*
X159335372Y-81768121D01*
X159336139Y-81767960D01*
X159335159Y-81765684D01*
X159335063Y-81764592D01*
X159333639Y-81759278D01*
X159333536Y-81758693D01*
X159332362Y-81753778D01*
X159323886Y-81713378D01*
X159302061Y-81609363D01*
X159276025Y-81543434D01*
X159275276Y-81541459D01*
X159273903Y-81536337D01*
X159271053Y-81530225D01*
X159268066Y-81523283D01*
X159217628Y-81395564D01*
X159180727Y-81334754D01*
X159179189Y-81331874D01*
X159179110Y-81331920D01*
X159176361Y-81327159D01*
X159174035Y-81322171D01*
X159170876Y-81317659D01*
X159169326Y-81315445D01*
X159164819Y-81308538D01*
X159101147Y-81203609D01*
X159101145Y-81203606D01*
X159098379Y-81199048D01*
X159048007Y-81141000D01*
X159044445Y-81136437D01*
X159041652Y-81133108D01*
X159038495Y-81128599D01*
X159034604Y-81124708D01*
X159034599Y-81124702D01*
X159032209Y-81122313D01*
X159026139Y-81115799D01*
X158951224Y-81029467D01*
X158951222Y-81029465D01*
X158947724Y-81025434D01*
X158883692Y-80972930D01*
X158876426Y-80966348D01*
X158875294Y-80965398D01*
X158871401Y-80961505D01*
X158866897Y-80958351D01*
X158866892Y-80958347D01*
X158864064Y-80956367D01*
X158856446Y-80950590D01*
X158774099Y-80883069D01*
X158774093Y-80883065D01*
X158769971Y-80879685D01*
X158692645Y-80835669D01*
X158682704Y-80829378D01*
X158682340Y-80829123D01*
X158682333Y-80829119D01*
X158677829Y-80825965D01*
X158672845Y-80823641D01*
X158672840Y-80823638D01*
X158670125Y-80822372D01*
X158661048Y-80817682D01*
X158616939Y-80792574D01*
X158570202Y-80765970D01*
X158480502Y-80733410D01*
X158470247Y-80729167D01*
X158468652Y-80728423D01*
X158468650Y-80728422D01*
X158463663Y-80726097D01*
X158458347Y-80724673D01*
X158458345Y-80724672D01*
X158457281Y-80724387D01*
X158456298Y-80724124D01*
X158445919Y-80720857D01*
X158354129Y-80687539D01*
X158253557Y-80669352D01*
X158243384Y-80667074D01*
X158235408Y-80664937D01*
X158229010Y-80664377D01*
X158217588Y-80662848D01*
X158127931Y-80646636D01*
X158123792Y-80646441D01*
X158123785Y-80646440D01*
X158105330Y-80645570D01*
X158105323Y-80645570D01*
X158103842Y-80645500D01*
X157942288Y-80645500D01*
X157862556Y-80652265D01*
X157776267Y-80659587D01*
X157776263Y-80659588D01*
X157770956Y-80660038D01*
X157765801Y-80661376D01*
X157765795Y-80661377D01*
X157593058Y-80706211D01*
X157548461Y-80717786D01*
X157441497Y-80765970D01*
X157343738Y-80810007D01*
X157343735Y-80810008D01*
X157338877Y-80812197D01*
X157148197Y-80940570D01*
X157144340Y-80944249D01*
X157144338Y-80944251D01*
X157118404Y-80968991D01*
X156981872Y-81099236D01*
X156844658Y-81283658D01*
X156842242Y-81288409D01*
X156842240Y-81288413D01*
X156742898Y-81483806D01*
X156740480Y-81488562D01*
X156672315Y-81708089D01*
X156642112Y-81935964D01*
X143353080Y-81935964D01*
X143349264Y-81834331D01*
X143335372Y-81768121D01*
X143336139Y-81767960D01*
X143335159Y-81765684D01*
X143335063Y-81764592D01*
X143333639Y-81759278D01*
X143333536Y-81758693D01*
X143332362Y-81753778D01*
X143323886Y-81713378D01*
X143302061Y-81609363D01*
X143276025Y-81543434D01*
X143275276Y-81541459D01*
X143273903Y-81536337D01*
X143271053Y-81530225D01*
X143268066Y-81523283D01*
X143217628Y-81395564D01*
X143180727Y-81334754D01*
X143179189Y-81331874D01*
X143179110Y-81331920D01*
X143176361Y-81327159D01*
X143174035Y-81322171D01*
X143170876Y-81317659D01*
X143169326Y-81315445D01*
X143164819Y-81308538D01*
X143101147Y-81203609D01*
X143101145Y-81203606D01*
X143098379Y-81199048D01*
X143048007Y-81141000D01*
X143044445Y-81136437D01*
X143041652Y-81133108D01*
X143038495Y-81128599D01*
X143034604Y-81124708D01*
X143034599Y-81124702D01*
X143032209Y-81122313D01*
X143026139Y-81115799D01*
X142951224Y-81029467D01*
X142951222Y-81029465D01*
X142947724Y-81025434D01*
X142883692Y-80972930D01*
X142876426Y-80966348D01*
X142875294Y-80965398D01*
X142871401Y-80961505D01*
X142866897Y-80958351D01*
X142866892Y-80958347D01*
X142864064Y-80956367D01*
X142856446Y-80950590D01*
X142774099Y-80883069D01*
X142774093Y-80883065D01*
X142769971Y-80879685D01*
X142692645Y-80835669D01*
X142682704Y-80829378D01*
X142682340Y-80829123D01*
X142682333Y-80829119D01*
X142677829Y-80825965D01*
X142672845Y-80823641D01*
X142672840Y-80823638D01*
X142670125Y-80822372D01*
X142661048Y-80817682D01*
X142616939Y-80792574D01*
X142570202Y-80765970D01*
X142480502Y-80733410D01*
X142470247Y-80729167D01*
X142468652Y-80728423D01*
X142468650Y-80728422D01*
X142463663Y-80726097D01*
X142458347Y-80724673D01*
X142458345Y-80724672D01*
X142457281Y-80724387D01*
X142456298Y-80724124D01*
X142445919Y-80720857D01*
X142354129Y-80687539D01*
X142253557Y-80669352D01*
X142243384Y-80667074D01*
X142235408Y-80664937D01*
X142229010Y-80664377D01*
X142217588Y-80662848D01*
X142127931Y-80646636D01*
X142123792Y-80646441D01*
X142123785Y-80646440D01*
X142105330Y-80645570D01*
X142105323Y-80645570D01*
X142103842Y-80645500D01*
X141942288Y-80645500D01*
X141862556Y-80652265D01*
X141776267Y-80659587D01*
X141776263Y-80659588D01*
X141770956Y-80660038D01*
X141765801Y-80661376D01*
X141765795Y-80661377D01*
X141593058Y-80706211D01*
X141548461Y-80717786D01*
X141441497Y-80765970D01*
X141343738Y-80810007D01*
X141343735Y-80810008D01*
X141338877Y-80812197D01*
X141148197Y-80940570D01*
X141144340Y-80944249D01*
X141144338Y-80944251D01*
X141118404Y-80968991D01*
X140981872Y-81099236D01*
X140844658Y-81283658D01*
X140842242Y-81288409D01*
X140842240Y-81288413D01*
X140742898Y-81483806D01*
X140740480Y-81488562D01*
X140672315Y-81708089D01*
X140642112Y-81935964D01*
X140254500Y-81935964D01*
X140254500Y-81157609D01*
X140274502Y-81089488D01*
X140291404Y-81068514D01*
X141068512Y-80291405D01*
X141130825Y-80257380D01*
X141157608Y-80254500D01*
X158842391Y-80254500D01*
X158910512Y-80274502D01*
G37*
%TD.AperFunction*%
%TA.AperFunction,Conductor*%
G36*
X146063532Y-90539828D02*
G01*
X146120368Y-90582375D01*
X146145179Y-90648895D01*
X146145500Y-90657884D01*
X146145500Y-90783602D01*
X146146170Y-90788152D01*
X146146170Y-90788155D01*
X146154331Y-90843592D01*
X146155757Y-90853278D01*
X146160074Y-90862070D01*
X146160074Y-90862071D01*
X146188240Y-90919440D01*
X146200308Y-90989403D01*
X146188337Y-91030303D01*
X146155577Y-91097323D01*
X146145500Y-91166398D01*
X146145500Y-91433602D01*
X146146170Y-91438152D01*
X146146170Y-91438155D01*
X146154331Y-91493592D01*
X146155757Y-91503278D01*
X146160074Y-91512070D01*
X146160074Y-91512071D01*
X146188240Y-91569440D01*
X146200308Y-91639403D01*
X146188337Y-91680303D01*
X146155577Y-91747323D01*
X146145500Y-91816398D01*
X146145500Y-92083602D01*
X146146169Y-92088149D01*
X146146170Y-92088158D01*
X146149895Y-92113459D01*
X146140027Y-92183766D01*
X146098530Y-92231983D01*
X146099538Y-92233328D01*
X145990276Y-92315215D01*
X145977715Y-92327776D01*
X145901214Y-92429851D01*
X145892676Y-92445446D01*
X145847522Y-92565894D01*
X145843895Y-92581149D01*
X145838369Y-92632014D01*
X145838000Y-92638828D01*
X145838000Y-93065385D01*
X145842475Y-93080624D01*
X145843865Y-93081829D01*
X145851548Y-93083500D01*
X147128000Y-93083500D01*
X147196121Y-93103502D01*
X147242614Y-93157158D01*
X147254000Y-93209500D01*
X147254000Y-93465500D01*
X147233998Y-93533621D01*
X147180342Y-93580114D01*
X147128000Y-93591500D01*
X145856116Y-93591500D01*
X145840877Y-93595975D01*
X145839672Y-93597365D01*
X145838001Y-93605048D01*
X145838001Y-93797117D01*
X145817999Y-93865238D01*
X145764343Y-93911731D01*
X145694069Y-93921835D01*
X145629489Y-93892341D01*
X145622906Y-93886212D01*
X145116405Y-93379711D01*
X145082379Y-93317399D01*
X145079500Y-93290616D01*
X145079500Y-92405500D01*
X145099502Y-92337379D01*
X145153158Y-92290886D01*
X145205500Y-92279500D01*
X145397756Y-92279500D01*
X145401153Y-92279131D01*
X145451597Y-92273651D01*
X145451598Y-92273651D01*
X145459448Y-92272798D01*
X145466841Y-92270026D01*
X145466843Y-92270026D01*
X145545030Y-92240715D01*
X145594764Y-92222071D01*
X145601943Y-92216691D01*
X145601946Y-92216689D01*
X145703224Y-92140785D01*
X145710404Y-92135404D01*
X145752655Y-92079029D01*
X145791689Y-92026946D01*
X145791691Y-92026943D01*
X145797071Y-92019764D01*
X145847798Y-91884448D01*
X145854500Y-91822756D01*
X145854500Y-90902244D01*
X145848681Y-90848680D01*
X145848651Y-90848403D01*
X145848651Y-90848402D01*
X145847798Y-90840552D01*
X145824698Y-90778931D01*
X145819515Y-90708126D01*
X145853585Y-90645609D01*
X145930405Y-90568789D01*
X145992717Y-90534763D01*
X146063532Y-90539828D01*
G37*
%TD.AperFunction*%
%TD*%
M02*
