%TF.GenerationSoftware,KiCad,Pcbnew,6.0.11-3.fc37*%
%TF.CreationDate,2023-04-24T22:35:33+02:00*%
%TF.ProjectId,crac_as5047,63726163-5f61-4733-9530-34372e6b6963,rev?*%
%TF.SameCoordinates,Original*%
%TF.FileFunction,Legend,Bot*%
%TF.FilePolarity,Positive*%
%FSLAX46Y46*%
G04 Gerber Fmt 4.6, Leading zero omitted, Abs format (unit mm)*
G04 Created by KiCad (PCBNEW 6.0.11-3.fc37) date 2023-04-24 22:35:33*
%MOMM*%
%LPD*%
G01*
G04 APERTURE LIST*
%ADD10C,0.150000*%
%ADD11C,0.120000*%
G04 APERTURE END LIST*
D10*
%TO.C,U1*%
X155561904Y-87452380D02*
X155561904Y-88261904D01*
X155514285Y-88357142D01*
X155466666Y-88404761D01*
X155371428Y-88452380D01*
X155180952Y-88452380D01*
X155085714Y-88404761D01*
X155038095Y-88357142D01*
X154990476Y-88261904D01*
X154990476Y-87452380D01*
X153990476Y-88452380D02*
X154561904Y-88452380D01*
X154276190Y-88452380D02*
X154276190Y-87452380D01*
X154371428Y-87595238D01*
X154466666Y-87690476D01*
X154561904Y-87738095D01*
%TO.C,C2*%
X146966666Y-84307142D02*
X147014285Y-84354761D01*
X147157142Y-84402380D01*
X147252380Y-84402380D01*
X147395238Y-84354761D01*
X147490476Y-84259523D01*
X147538095Y-84164285D01*
X147585714Y-83973809D01*
X147585714Y-83830952D01*
X147538095Y-83640476D01*
X147490476Y-83545238D01*
X147395238Y-83450000D01*
X147252380Y-83402380D01*
X147157142Y-83402380D01*
X147014285Y-83450000D01*
X146966666Y-83497619D01*
X146585714Y-83497619D02*
X146538095Y-83450000D01*
X146442857Y-83402380D01*
X146204761Y-83402380D01*
X146109523Y-83450000D01*
X146061904Y-83497619D01*
X146014285Y-83592857D01*
X146014285Y-83688095D01*
X146061904Y-83830952D01*
X146633333Y-84402380D01*
X146014285Y-84402380D01*
%TO.C,C1*%
X142766666Y-90157142D02*
X142814285Y-90204761D01*
X142957142Y-90252380D01*
X143052380Y-90252380D01*
X143195238Y-90204761D01*
X143290476Y-90109523D01*
X143338095Y-90014285D01*
X143385714Y-89823809D01*
X143385714Y-89680952D01*
X143338095Y-89490476D01*
X143290476Y-89395238D01*
X143195238Y-89300000D01*
X143052380Y-89252380D01*
X142957142Y-89252380D01*
X142814285Y-89300000D01*
X142766666Y-89347619D01*
X141814285Y-90252380D02*
X142385714Y-90252380D01*
X142100000Y-90252380D02*
X142100000Y-89252380D01*
X142195238Y-89395238D01*
X142290476Y-89490476D01*
X142385714Y-89538095D01*
D11*
%TO.C,U1*%
X150000000Y-87390000D02*
X147800000Y-87390000D01*
X150000000Y-92610000D02*
X147800000Y-92610000D01*
X150000000Y-92610000D02*
X152200000Y-92610000D01*
X150000000Y-87390000D02*
X153600000Y-87390000D01*
%TO.C,C2*%
X147511252Y-86710000D02*
X146088748Y-86710000D01*
X147511252Y-84890000D02*
X146088748Y-84890000D01*
%TO.C,C1*%
X143790000Y-90511252D02*
X143790000Y-89088748D01*
X145610000Y-90511252D02*
X145610000Y-89088748D01*
%TD*%
M02*
